<?xml version="1.0" encoding="utf-8"?>
<!-- Generator: Adobe Illustrator 19.0.1, SVG Export Plug-In . SVG Version: 6.00 Build 0)  -->
<svg version="1.2" baseProfile="tiny" id="icon24-map"
	 xmlns="http://www.w3.org/2000/svg" xmlns:xlink="http://www.w3.org/1999/xlink" x="0px" y="0px" width="640px" height="406px"
	 viewBox="9 -185 640 406" xml:space="preserve">
<path fill="#0C0E0F" d="M20.6-165c3.9,0,7-3.1,7-7s-3.1-7-7-7s-7,3.1-7,7S16.7-165,20.6-165z M20.6-181c5,0,9,4,9,9s-4,9-9,9
	s-9-4-9-9S15.6-181,20.6-181z M21.1-177v5.3l4,2.3l-0.8,1.2l-4.7-2.8v-6H21.1z M16.5-181.6l-4.6,3.8l-1.3-1.5l4.6-3.8L16.5-181.6z
	 M30.6-179.3l-1.3,1.5l-4.6-3.9l1.3-1.5L30.6-179.3z"/>
<path fill="#0C0E0F" d="M61.1-178v5.3l4.5,2.7l-0.8,1.3l-5.2-3.3v-6H61.1z M60.6-165c4.4,0,8-3.6,8-8s-3.6-8-8-8s-8,3.6-8,8
	S56.2-165,60.6-165z M60.6-183c5.5,0,10,4.5,10,10s-4.5,10-10,10s-10-4.5-10-10S55.1-183,60.6-183z"/>
<path fill="#0C0E0F" d="M100.6-165.8c2.5,0,4.7-1.3,6-3.2c0-2-4-3.1-6-3.1s-6,1.1-6,3.1C95.9-167.1,98.1-165.8,100.6-165.8z
	 M100.6-180c-1.6,0-3,1.4-3,3s1.4,3,3,3s3-1.4,3-3S102.2-180,100.6-180z M100.6-183c5.5,0,10,4.5,10,10s-4.5,10-10,10s-10-4.5-10-10
	S95.1-183,100.6-183z"/>
<path fill="#0C0E0F" d="M147.6-172h-6v6h-2v-6h-6v-2h6v-6h2v6h6V-172z"/>
<path fill="#0C0E0F" d="M179.1-170.5l4.9-5l1.1,1.1l-6,6l-3.2-3.2l1-1L179.1-170.5z M180.6-165c3.9,0,7-3.1,7-7s-3.1-7-7-7
	s-7,3.1-7,7S176.7-165,180.6-165z M180.6-181c5,0,9,4,9,9s-4,9-9,9s-9-4-9-9S175.6-181,180.6-181z M176.5-181.6l-4.6,3.8l-1.3-1.5
	l4.6-3.8L176.5-181.6z M190.6-179.3l-1.3,1.5l-4.6-3.9l1.3-1.5L190.6-179.3z"/>
<path fill="#0C0E0F" d="M221.6-170v-2h-2v2H221.6z M221.6-174v-6h-2v6H221.6z M228.6-183c1.1,0,2,0.9,2,2v12c0,1.1-0.9,2-2,2h-14
	l-4,4v-18c0-1.1,0.9-2,2-2H228.6z"/>
<path fill="#0C0E0F" d="M264.6-165v-4h4v4H264.6z M264.6-171v-4h4v4H264.6z M258.6-177v-4h4v4H258.6z M264.6-181h4v4h-4V-181z
	 M258.6-171v-4h4v4H258.6z M252.6-171v-4h4v4H252.6z M252.6-165v-4h4v4H252.6z M258.6-165v-4h4v4H258.6z M252.6-177v-4h4v4H252.6z"
	/>
<path fill="#0C0E0F" d="M308.6-174v2h-12.2l5.6,5.6l-1.4,1.4l-8-8l8-8l1.4,1.4l-5.6,5.6H308.6L308.6-174z"/>
<path fill="#0C0E0F" d="M348.6-173l-8,8l-8-8l1.5-1.4l5.6,5.6V-181h2v12.2l5.6-5.6L348.6-173z"/>
<path fill="#0C0E0F" d="M375.6-175h10l-5,5L375.6-175z"/>
<path fill="#0C0E0F" d="M415.6-171l5-5l5,5H415.6L415.6-171z"/>
<path fill="#0C0E0F" d="M460.6-181l8,8l-8,8l-1.4-1.4l5.6-5.6h-12.2v-2h12.2l-5.6-5.6L460.6-181z"/>
<path fill="#0C0E0F" d="M492.6-173l8-8l8,8l-1.5,1.4l-5.6-5.6v12.2h-2v-12.2l-5.6,5.6L492.6-173z"/>
<path fill="#0C0E0F" d="M539.1-170l-2.3-3l-1.7,2.3l-1.3-1.5l-1.7,2.3L539.1-170L539.1-170z M540.6-176v6c0,1.1-0.9,2-2,2h-6
	c-1.1,0-2-0.9-2-2v-6c0-1.1,0.9-2,2-2h6C539.7-178,540.6-177.1,540.6-176z M542.6-168v-2h8v2H542.6z M550.6-178v2h-8v-2H550.6z
	 M550.6-172h-8v-2h8V-172z"/>
<path fill="#0C0E0F" d="M589.6-166v-14h-18v14.1h18V-166z M589.6-182c1.1,0,2,0.9,2,2v14c0,1.1-0.9,2-2,2h-18c-1.1,0-2-0.9-2-2v-14
	c0-1.1,0.9-2,2-2H589.6z M575.6-176v3h-2v-5h5v2H575.6z M587.6-173v5h-5v-2h3v-3H587.6z"/>
<path fill="#0C0E0F" d="M626.6-166v-1.4c0-2-4-3.1-6-3.1s-6,1.1-6,3.1v1.4H626.6z M620.6-178c-1.6,0-3,1.4-3,3s1.4,3,3,3s3-1.4,3-3
	C623.6-176.7,622.2-178,620.6-178z M620.6-182c-0.6,0-1,0.4-1,1s0.4,1,1,1s1-0.5,1-1C621.6-181.6,621.2-182,620.6-182z M627.6-182
	c1.1,0,2,0.9,2,2v14c0,1.1-0.9,2-2,2h-14c-1.1,0-2-0.9-2-2v-14c0-1.1,0.9-2,2-2h4.2c0.4-1.2,1.5-2,2.8-2s2.4,0.8,2.8,2H627.6
	L627.6-182z"/>
<path fill="#0C0E0F" d="M20.6-140c0.6,0,1-0.5,1-1c0-0.6-0.4-1-1-1s-1,0.4-1,1C19.6-140.5,20-140,20.6-140z M21.6-131v-6h-2v6H21.6z
	 M21.6-127v-2h-2v2H21.6z M27.6-142c1.1,0,2,0.9,2,2v14c0,1.1-0.9,2-2,2h-14c-1.1,0-2-0.9-2-2v-14c0-1.1,0.9-2,2-2h4.2
	c0.4-1.2,1.5-2,2.8-2s2.4,0.8,2.8,2H27.6L27.6-142z"/>
<path fill="#0C0E0F" d="M58.6-128l8-8l-1.4-1.4l-6.6,6.6l-2.6-2.6l-1.4,1.4L58.6-128z M60.6-142c-0.6,0-1,0.4-1,1s0.4,1,1,1
	s1-0.5,1-1C61.6-141.6,61.2-142,60.6-142z M67.6-142c1.1,0,2,0.9,2,2v14c0,1.1-0.9,2-2,2h-14c-1.1,0-2-0.9-2-2v-14c0-1.1,0.9-2,2-2
	h4.2c0.4-1.2,1.5-2,2.8-2s2.4,0.8,2.8,2H67.6L67.6-142z"/>
<path fill="#0C0E0F" d="M103-139h5.6v10h-7l-0.4-2h-5.6v7h-2v-17h9L103-139z"/>
<path fill="#0C0E0F" d="M147.4-137.3c0.8,1.2,1.3,2.7,1.3,4.3c0,4.4-3.6,8-8,8v3l-4-4l4-4v3c3.3,0,6-2.7,6-6c0-1-0.3-2-0.7-2.8
	L147.4-137.3z M140.6-139c-3.3,0-6,2.7-6,6c0,1,0.2,2,0.7,2.8l-1.5,1.5c-0.8-1.2-1.3-2.7-1.3-4.3c0-4.4,3.6-8,8-8v-3l4,4l-4,4v-3
	H140.6z"/>
<path fill="#0C0E0F" d="M187.6-129.4L184-133l3.6-3.6l-1.4-1.4l-3.6,3.6L179-138l-1.4,1.4l3.6,3.6l-3.6,3.6l1.4,1.4l3.6-3.6l3.6,3.6
	L187.6-129.4z M190.6-142c1.1,0,2,0.9,2,2v14c0,1.1-0.9,2-2,2h-15c-0.7,0-1.2-0.4-1.6-0.9l-5.4-8.1l5.4-8.1c0.4-0.5,0.9-0.9,1.6-0.9
	H190.6L190.6-142z"/>
<path fill="#0C0E0F" d="M222.6-132h3l-5-5l-5,5h3v4h4V-132L222.6-132z M228-135c2.6,0.2,4.6,2.3,4.6,5c0,2.8-2.3,5-5,5h-13
	c-3.3,0-6-2.7-6-6c0-3.1,2.3-5.6,5.3-6c1.3-2.4,3.8-4.1,6.7-4.1C224.3-141,227.3-138.4,228-135L228-135z"/>
<path fill="#0C0E0F" d="M271.3-126c0.4,0.3,0.4,1-0.1,1.4l-2.3,2.3c-0.4,0.4-1,0.4-1.4,0l-9.1-9.1c-2.3,0.9-5,0.4-6.9-1.5
	c-2-2-2.5-5-1.3-7.4l4.4,4.3l3-3l-4.3-4.3c2.4-1.1,5.4-0.7,7.4,1.3c1.9,1.9,2.4,4.6,1.5,6.9L271.3-126z"/>
<path fill="#0C0E0F" d="M294.6-133h3l-4,4l-4-4h3c0-4.4,3.6-8,8-8c1.5,0,3,0.5,4.3,1.3l-1.5,1.5c-0.8-0.5-1.8-0.7-2.8-0.7
	C297.3-139,294.6-136.3,294.6-133L294.6-133z M307.6-137l4,4h-3c0,4.4-3.6,8-8,8c-1.5,0-3-0.5-4.3-1.3l1.5-1.5
	c0.8,0.5,1.8,0.7,2.8,0.7c3.3,0,6-2.7,6-6h-3L307.6-137z"/>
<path fill="#0C0E0F" d="M335.2-134.2c1.5,2.8,3.8,5.2,6.6,6.6l2.2-2.2c0.3-0.3,0.7-0.4,1-0.2c1.1,0.4,2.3,0.6,3.6,0.6
	c0.6,0,1,0.4,1,1v3.5c0,0.6-0.4,1-1,1c-9.4,0-17-7.6-17-17c0-0.6,0.4-1,1-1h3.5c0.6,0,1,0.4,1,1c0,1.3,0.2,2.4,0.6,3.6
	c0.1,0.3,0,0.8-0.2,1L335.2-134.2z"/>
<path fill="#0C0E0F" d="M380.6-136c-1.6,0-3.1,0.2-4.6,0.7v3.1c0,0.4-0.2,0.8-0.6,0.9c-1,0.5-1.9,1.1-2.7,1.8
	c-0.2,0.2-0.4,0.3-0.7,0.3c-0.3,0-0.5-0.1-0.7-0.3l-2.5-2.5c-0.2-0.2-0.3-0.4-0.3-0.7s0.1-0.5,0.3-0.7c3-2.9,7.2-4.7,11.7-4.7
	s8.7,1.8,11.7,4.7c0.2,0.2,0.3,0.4,0.3,0.7s-0.1,0.5-0.3,0.7l-2.5,2.5c-0.2,0.2-0.4,0.3-0.7,0.3c-0.3,0-0.5-0.1-0.7-0.3
	c-0.8-0.8-1.7-1.4-2.7-1.8c-0.3-0.1-0.6-0.5-0.6-0.9v-3.1C383.7-135.7,382.2-136,380.6-136z"/>
<path fill="#0C0E0F" d="M417.6-140h10v10h-2v-6.6L414-125l-1.4-1.4l11.6-11.6h-6.6V-140z"/>
<path fill="#0C0E0F" d="M466.6-137v-2h-12v2H466.6z M462.6-131v-2h-8v2H462.6z M454.6-136v2h12v-2H454.6z M468.6-143
	c1.1,0,2,0.9,2,2v12c0,1.1-0.9,2-2,2h-14l-4,4v-18c0-1.1,0.9-2,2-2H468.6z"/>
<path fill="#0C0E0F" d="M508.6-143c1.1,0,2,0.9,2,2v12c0,1.1-0.9,2-2,2h-14l-4,4v-18c0-1.1,0.9-2,2-2H508.6z"/>
<path fill="#0C0E0F" d="M548.6-129v-12h-16v14l2-2H548.6L548.6-129z M548.6-143c1.1,0,2,0.9,2,2v12c0,1.1-0.9,2-2,2h-14l-4,4v-18
	c0-1.1,0.9-2,2-2H548.6z"/>
<path fill="#0C0E0F" d="M577.6-128.8l10.6-10.6l1.4,1.4l-12,12l-5.6-5.6l1.4-1.4L577.6-128.8z"/>
<path fill="#0C0E0F" d="M624-137.6l-4.6,4.6l4.6,4.6l-1.4,1.4l-6-6l6-6L624-137.6z"/>
<path fill="#0C0E0F" d="M18.6-99l6,6l-6,6l-1.4-1.4l4.6-4.6l-4.6-4.6L18.6-99z"/>
<path fill="#0C0E0F" d="M67.6-98.6L62-93l5.6,5.6L66.2-86l-5.6-5.6L55-86l-1.4-1.4l5.6-5.6l-5.6-5.6L55-100l5.6,5.6l5.6-5.6
	L67.6-98.6z"/>
<path fill="#0C0E0F" d="M95.6-98h14v2h-14V-98z M91.6-88v-2h14v2H91.6z M93.6-92v-2h14v2H93.6z"/>
<path fill="#0C0E0F" d="M138.6-88l6.6-6.6l-1.4-1.4l-5.2,5.2l-2.1-2.1l-1.4,1.4L138.6-88z M148-95c2.6,0.2,4.6,2.3,4.6,5
	c0,2.8-2.3,5-5,5h-13c-3.3,0-6-2.7-6-6c0-3.1,2.3-5.6,5.3-6c1.3-2.4,3.8-4.1,6.7-4.1C144.3-101,147.3-98.4,148-95L148-95z"/>
<path fill="#0C0E0F" d="M185.6-92h-3v-4h-4v4h-3l5,5L185.6-92z M188-95c2.6,0.2,4.6,2.3,4.6,5c0,2.8-2.3,5-5,5h-13c-3.3,0-6-2.7-6-6
	c0-3.1,2.3-5.6,5.3-6c1.3-2.4,3.8-4.1,6.7-4.1C184.3-101,187.3-98.4,188-95L188-95z"/>
<path fill="#0C0E0F" d="M227.6-87c1.6,0,3-1.4,3-3s-1.4-3-3-3h-1.5v-0.5c0-3-2.4-5.5-5.5-5.5c-2.5,0-4.6,1.7-5.3,4h-0.7
	c-2.2,0-4,1.8-4,4s1.8,4,4,4H227.6L227.6-87z M228-95c2.6,0.2,4.6,2.3,4.6,5c0,2.8-2.3,5-5,5h-13c-3.3,0-6-2.7-6-6
	c0-3.1,2.3-5.6,5.3-6c1.3-2.4,3.8-4.1,6.7-4.1C224.3-101,227.3-98.4,228-95L228-95z"/>
<path fill="#0C0E0F" d="M263.2-88.4l4.6-4.6l-4.6-4.6l1.4-1.4l6,6l-6,6L263.2-88.4z M258-88.4l-1.4,1.4l-6-6l6-6l1.4,1.4l-4.6,4.6
	L258-88.4z"/>
<path fill="#0C0E0F" d="M306.6-97v-2h-12v2H306.6z M306.6-94v-2h-12v2H306.6z M306.6-91v-2h-12v2H306.6z M310.6-101v18l-4-4h-14
	c-1.1,0-2-0.9-2-2v-12c0-1.1,0.9-2,2-2h16C309.7-103,310.6-102.1,310.6-101z"/>
<path fill="#0C0E0F" d="M332.6-99v10h16v-10H332.6z M348.6-87h4v2h-24v-2h4c-1.1,0-2-0.9-2-2v-10c0-1.1,0.9-2,2-2h16
	c1.1,0,2,0.9,2,2v10C350.6-87.9,349.7-87,348.6-87L348.6-87z"/>
<path fill="#0C0E0F" d="M389.3-98l-1.8,1.8l-3.8-3.8l1.8-1.8c0.4-0.4,1-0.4,1.4,0l2.3,2.3C389.7-99,389.7-98.3,389.3-98z
	 M371.6-87.8l11.1-11.1l3.8,3.8L375.4-84h-3.8V-87.8z"/>
<path fill="#0C0E0F" d="M428.6-97v-2h-16v2H428.6z M428.6-87v-6h-16v6H428.6z M428.6-101c1.1,0,2,0.9,2,2v12c0,1.1-0.8,2-2,2h-16
	c-1.1,0-2-0.9-2-2v-12c0-1.1,0.8-2,2-2H428.6z"/>
<path fill="#0C0E0F" d="M467.6-101v2h-14v-2h3.5l1-1h5l1,1H467.6z M454.6-86v-12h12v12c0,1.1-0.9,2-2,2h-8
	C455.5-84,454.6-84.9,454.6-86L454.6-86z"/>
<path fill="#0C0E0F" d="M504.1-101h3.5v2h-14v-2h3.5l1-1h5L504.1-101z M497-93.1l2.2,2.2l-2.1,2.1l1.4,1.4l2.1-2.1l2.1,2.1l1.4-1.4
	l-2.1-2.1l2.1-2.2l-1.4-1.4l-2.1,2.2l-2.1-2.2L497-93.1z M494.6-86v-12h12v12c0,1.1-0.9,2-2,2h-8C495.5-84,494.6-84.9,494.6-86
	L494.6-86z"/>
<path fill="#0C0E0F" d="M541.6-96h5.5l-5.5-5.5V-96z M544.6-91v-2h-8v2H544.6z M544.6-87v-2h-8v2H544.6z M542.6-103l6,6v12
	c0,1.1-0.9,2-2,2h-12c-1.1,0-2-0.9-2-2v-16c0-1.1,0.9-2,2-2H542.6z"/>
<path fill="#0C0E0F" d="M589.6-89v-12h-18v12H589.6z M589.6-103c1.1,0,2,0.9,2,2v12c0,1.1-0.9,2-2,2h-7v2h2v2h-8v-2h2v-2h-7
	c-1.1,0-2-0.9-2-2v-12c0-1.1,0.9-2,2-2H589.6L589.6-103z"/>
<path fill="#0C0E0F" d="M617.6-88.8l10.6-10.6l1.4,1.4l-12,12l-5.6-5.6l1.4-1.4L617.6-88.8z"/>
<path fill="#0C0E0F" d="M9-51.6l1.4-1.4l5.6,5.6L14.6-46L9-51.6z M30.8-59.4l1.5,1.4l-12,12l-5.6-5.6l1.5-1.4l4.2,4.2L30.8-59.4z
	 M26.6-58l-6.3,6.4L18.9-53l6.3-6.4L26.6-58z"/>
<path fill="#0C0E0F" d="M60.6-52l8.3-5.2L60.6-62l-8.3,4.8L60.6-52z M70.6-57v10c0,1.1-0.9,2-2,2h-16c-1.1,0-2-0.9-2-2v-10
	c0-0.7,0.4-1.4,0.9-1.7l9-5.3l9,5.3C70.2-58.4,70.6-57.7,70.6-57L70.6-57z"/>
<path fill="#0C0E0F" d="M92.6-50v-2h16v2H92.6z M108.6-56v2h-16v-2H108.6z"/>
<path fill="#0C0E0F" d="M148.6-57v-2l-8,5l-8-5v2l8,5L148.6-57z M148.6-61c1.1,0,2,0.9,2,2v12c0,1.1-0.9,2-2,2h-16c-1.1,0-2-0.9-2-2
	v-12c0-1.1,0.9-2,2-2H148.6z"/>
<path fill="#0C0E0F" d="M184.6-56h4v11h-4V-56z M172.6-45v-8h4v8H172.6z M178.6-45v-16h4v16H178.6z"/>
<path fill="#0C0E0F" d="M221.6-52v-6h-2v6H221.6z M221.6-48v-2h-2v2H221.6z M220.6-63c5.5,0,10,4.5,10,10s-4.5,10-10,10
	s-10-4.5-10-10S215.1-63,220.6-63z"/>
<path fill="#0C0E0F" d="M260.6-45c4.4,0,8-3.6,8-8s-3.6-8-8-8s-8,3.6-8,8S256.2-45,260.6-45z M260.6-63c5.5,0,10,4.5,10,10
	s-4.5,10-10,10s-10-4.5-10-10S255.1-63,260.6-63z M259.6-58h2v6h-2V-58z M259.6-50h2v2h-2V-50z"/>
<path fill="#0C0E0F" d="M300.6-57l6,6l-1.4,1.4l-4.6-4.6l-4.6,4.6l-1.4-1.4L300.6-57z"/>
<path fill="#0C0E0F" d="M345.2-56.4l1.4,1.4l-6,6l-6-6l1.4-1.4l4.6,4.6L345.2-56.4z"/>
<path fill="#0C0E0F" d="M380.6-43.7l-1.5-1.3c-5.2-4.7-8.5-7.7-8.5-11.5c0-3.1,2.4-5.5,5.5-5.5c1.7,0,3.4,0.8,4.5,2.1
	c1.1-1.3,2.8-2.1,4.5-2.1c3.1,0,5.5,2.4,5.5,5.5c0,3.8-3.4,6.9-8.5,11.6L380.6-43.7z"/>
<path fill="#0C0E0F" d="M420.7-46.4c4.8-4.3,7.9-7.2,7.9-10.1c0-2-1.5-3.5-3.5-3.5c-1.5,0-3,1-3.6,2.3h-1.9c-0.5-1.4-2-2.3-3.6-2.3
	c-2,0-3.5,1.5-3.5,3.5c0,2.9,3.1,5.8,7.9,10.1H420.7L420.7-46.4z M425.1-62c3.1,0,5.5,2.4,5.5,5.5c0,3.8-3.4,6.8-8.5,11.5l-1.5,1.3
	l-1.5-1.3c-5.2-4.7-8.5-7.8-8.5-11.6c0-3.1,2.4-5.5,5.5-5.5c1.7,0,3.4,0.8,4.5,2.1C421.7-61.2,423.4-62,425.1-62z"/>
<path fill="#0C0E0F" d="M461.6-55v-4h-2v4H461.6z M461.6-51v-2h-2v2H461.6z M468.6-63c1.1,0,2,0.9,2,2v12c0,1.1-0.9,2-2,2h-14l-4,4
	v-18c0-1.1,0.9-2,2-2H468.6z"/>
<path fill="#0C0E0F" d="M493.6-47h14v2h-14V-47z M507.6-56l-7,7l-7-7h4v-6h6v6H507.6z"/>
<path fill="#0C0E0F" d="M533.6-47h14v2h-14V-47z M537.6-49v-6h-4l7-7l7,7h-4v6H537.6z"/>
<path fill="#0C0E0F" d="M585.6-53c0,0.6-0.5,1-1,1h-10l-4,4v-14c0-0.6,0.4-1,1-1h13c0.6,0,1,0.4,1,1V-53L585.6-53z M589.6-59
	c0.6,0,1,0.4,1,1v15l-4-4h-11c-0.6,0-1-0.4-1-1v-2h13v-9H589.6z"/>
<path fill="#0C0E0F" d="M622.6-60h5v5h-2v-3h-3V-60z M625.6-48v-3h2v5h-5v-2H625.6z M613.6-55v-5h5v2h-3v3H613.6z M615.6-51v3h3v2
	h-5v-5H615.6z"/>
<path fill="#0C0E0F" d="M24.6-17h3v2h-5v-5h2V-17z M22.6-6v-5h5v2h-3v3H22.6z M16.6-17v-3h2v5h-5v-2H16.6z M13.6-9v-2h5v5h-2v-3
	H13.6z"/>
<path fill="#0C0E0F" d="M64.6-12c2.3,0,7,1.2,7,3.5V-6h-6v-2.5c0-1.5-0.8-2.6-2-3.5C64-12,64.3-12,64.6-12z M56.6-12
	c2.3,0,7,1.2,7,3.5V-6h-14v-2.5C49.6-10.8,54.3-12,56.6-12L56.6-12z M56.6-14c-1.6,0-3-1.4-3-3s1.4-3,3-3s3,1.4,3,3
	C59.6-15.3,58.3-14,56.6-14z M64.6-14c-1.6,0-3-1.4-3-3s1.4-3,3-3s3,1.4,3,3C67.6-15.3,66.2-14,64.6-14z"/>
<path fill="#0C0E0F" d="M101.6-12c2,0,6,1,6,3v2h-12v-2C95.6-11,99.6-12,101.6-12z M108.2-11.8c2,0.3,4.4,1.3,4.4,2.8v2h-3v-2
	C109.6-10.2,109.1-11.1,108.2-11.8z M101.6-14c-1.6,0-3-1.4-3-3s1.4-3,3-3s3,1.4,3,3C104.6-15.3,103.2-14,101.6-14z M106.6-14
	c-0.3,0-0.6,0-0.9-0.1c0.6-0.8,0.9-1.8,0.9-2.9c0-1.1-0.3-2.1-0.9-2.9c0.3-0.1,0.6-0.1,0.9-0.1c1.6,0,3,1.4,3,3
	C109.6-15.3,108.2-14,106.6-14z M96.6-15v2h-3v3h-2v-3h-3v-2h3v-3h2v3H96.6z"/>
<path fill="#0C0E0F" d="M140.6-5c4.4,0,8-3.6,8-8s-3.6-8-8-8s-8,3.6-8,8S136.2-5,140.6-5z M140.6-23c5.5,0,10,4.5,10,10
	s-4.5,10-10,10s-10-4.5-10-10S135.1-23,140.6-23z M143.2-17l1.4,1.4L142-13l2.6,2.6L143.2-9l-2.6-2.6L138-9l-1.4-1.4l2.6-2.6
	l-2.6-2.6L138-17l2.6,2.6L143.2-17z"/>
<path fill="#0C0E0F" d="M180.6-17h1.5v4.2l3.5,2.1l-0.8,1.2l-4.2-2.5V-17z M181.6-22c5,0,9,4,9,9s-4,9-9,9c-2.5,0-4.7-1-6.3-2.6
	l1.4-1.5c1.3,1.3,3,2.1,4.9,2.1c3.9,0,7-3.1,7-7s-3.1-7-7-7s-7,3.1-7,7h3l-4,4l-0.1-0.1l-3.9-3.9h3C172.6-18,176.6-22,181.6-22z"/>
<path fill="#0C0E0F" d="M218.6-5h-5v-8h-3l10-9l10,9h-3v8h-5v-6h-4V-5L218.6-5z"/>
<path fill="#0C0E0F" d="M263.7-17v-2c0-1.7-1.4-3.1-3.1-3.1s-3.1,1.4-3.1,3.1v2H263.7z M260.6-8c1.1,0,2-0.9,2-2s-0.9-2-2-2
	s-2,0.9-2,2S259.5-8,260.6-8z M266.6-17c1.1,0,2,0.9,2,2v10c0,1.1-0.9,2-2,2h-12c-1.1,0-2-0.9-2-2v-10c0-1.1,0.9-2,2-2h1v-2
	c0-2.8,2.3-5,5-5c2.8,0,5,2.3,5,5v2H266.6z"/>
<path fill="#0C0E0F" d="M299.6-16v-2h2v2H299.6z M300.6-5c4.4,0,8-3.6,8-8s-3.6-8-8-8s-8,3.6-8,8S296.2-5,300.6-5z M300.6-23
	c5.5,0,10,4.5,10,10s-4.5,10-10,10s-10-4.5-10-10S295.1-23,300.6-23z M299.6-8v-6h2v6H299.6z"/>
<path fill="#0C0E0F" d="M346.6-17v-2h-12v2H346.6z M346.6-14v-2h-12v2H346.6z M346.6-11v-2h-12v2H346.6z M348.6-23c1.1,0,2,0.9,2,2
	v18l-4-4h-14c-1.1,0-2-0.9-2-2v-12c0-1.1,0.9-2,2-2H348.6z"/>
<path fill="#0C0E0F" d="M381.6-16h5.5l-5.5-5.5V-16z M374.6-23h8l6,6v12c0,1.1-0.9,2-2,2h-12c-1.1,0-2-0.9-2-2v-16
	C372.6-22.1,373.5-23,374.6-23z"/>
<path fill="#0C0E0F" d="M416-17.2l4.6,4.6l4.6-4.6l1.4,1.4l-6,6l-6-6L416-17.2z"/>
<path fill="#0C0E0F" d="M464-8.9l-1.4,1.4l-6-6l6-6l1.4,1.4l-4.6,4.6L464-8.9z"/>
<path fill="#0C0E0F" d="M497.2-8.6l4.6-4.6l-4.6-4.6l1.4-1.4l6,6l-6,6L497.2-8.6z"/>
<path fill="#0C0E0F" d="M536-9.6l-1.4-1.4l6-6l6,6l-1.4,1.4l-4.6-4.6L536-9.6z"/>
<path fill="#0C0E0F" d="M589.6-14v2h-14.2l3.6,3.6L577.6-7l-6-6l6-6l1.4,1.4l-3.6,3.6H589.6L589.6-14z"/>
<path fill="#0C0E0F" d="M625.9-13h1.7c0,3.4-2.7,6.2-6,6.7V-3h-2v-3.3c-3.3-0.5-6-3.3-6-6.7h1.7c0,3,2.5,5.1,5.3,5.1
	S625.9-10,625.9-13L625.9-13z M620.6-10c-1.6,0-3-1.4-3-3v-6c0-1.6,1.4-3,3-3s3,1.4,3,3v6C623.6-11.4,622.2-10,620.6-10z"/>
<path fill="#0C0E0F" d="M26.2,20.9l4.4,6.1l-4.4,6.1c-0.4,0.5-1,0.8-1.6,0.8h-11c-1.1,0-2-0.9-2-2v-10c0-1.1,0.9-2,2-2h11
	C25.2,20,25.9,20.3,26.2,20.9L26.2,20.9z"/>
<path fill="#0C0E0F" d="M64.6,32l3.6-5l-3.6-5h-11v10H64.6L64.6,32z M66.2,20.9l4.4,6.1l-4.4,6.1c-0.4,0.5-1,0.8-1.6,0.8h-11
	c-1.1,0-2-0.9-2-2v-10c0-1.1,0.9-2,2-2h11C65.2,20,65.9,20.3,66.2,20.9L66.2,20.9z"/>
<path fill="#0C0E0F" d="M105,29h3.4c0.1-0.7,0.3-1.3,0.3-2s-0.1-1.4-0.3-2H105c0.1,0.7,0.1,1.3,0.1,2S105.1,28.4,105,29z
	 M103.2,34.5c1.8-0.6,3.4-1.9,4.4-3.6h-3C104.3,32.2,103.8,33.4,103.2,34.5z M102.9,29c0.1-0.7,0.1-1.3,0.1-2s0-1.4-0.1-2h-4.7
	c-0.1,0.7-0.1,1.3-0.1,2s0,1.4,0.1,2H102.9z M100.6,35c0.8-1.2,1.5-2.5,1.9-4h-3.8C99.1,32.4,99.8,33.8,100.6,35z M96.6,23
	c0.3-1.3,0.8-2.4,1.4-3.6c-1.8,0.6-3.4,1.9-4.4,3.6H96.6z M93.7,31c0.9,1.6,2.5,3,4.4,3.6c-0.6-1.1-1.1-2.3-1.4-3.6
	C96.6,31,93.7,31,93.7,31z M92.9,29h3.4c-0.1-0.7-0.1-1.3-0.1-2s0-1.4,0.1-2h-3.4c-0.1,0.7-0.3,1.3-0.3,2S92.7,28.4,92.9,29z
	 M100.6,19c-0.8,1.2-1.5,2.5-1.9,4h3.8C102.1,21.6,101.4,20.2,100.6,19z M107.5,23c-0.9-1.6-2.5-3-4.4-3.6c0.6,1.1,1.1,2.3,1.4,3.6
	H107.5z M100.6,17c5.5,0,10,4.5,10,10s-4.5,10-10,10s-10-4.5-10-10S95.1,17,100.6,17z"/>
<path fill="#0C0E0F" d="M142.6,18h7v7h-2v-3.6l-9.8,9.8l-1.4-1.4l9.8-9.8h-3.6V18L142.6,18z M147.6,34v-7h2v7c0,1.1-0.9,2-2,2h-14
	c-1.1,0-2-0.9-2-2V20c0-1.1,0.9-2,2-2h7v2h-7v14H147.6z"/>
<path fill="#0C0E0F" d="M175.6,22h14v2h-14V22z M175.6,32v-2h14v2H175.6z M175.6,28v-2h14v2H175.6z M171.6,24v-2h2v2H171.6z
	 M171.6,32v-2h2v2H171.6z M171.6,28v-2h2v2H171.6z"/>
<path fill="#0C0E0F" d="M226.6,29v-4h-4v-4h-4v4h-4v4h4v4h4v-4H226.6z M227.6,18c1.1,0,2,0.9,2,2v14c0,1.1-0.9,2-2,2h-14
	c-1.1,0-2-0.9-2-2V20c0-1.1,0.9-2,2-2H227.6z"/>
<path fill="#0C0E0F" d="M254.1,22c0.8,0,1.5-0.7,1.5-1.5s-0.7-1.5-1.5-1.5s-1.5,0.7-1.5,1.5S253.2,22,254.1,22z M270,26.6
	c0.4,0.4,0.6,0.8,0.6,1.4c0,0.6-0.2,1-0.6,1.4l-7,7c-0.4,0.4-0.8,0.6-1.4,0.6s-1-0.2-1.4-0.6l-9-9c-0.4-0.4-0.6-0.8-0.6-1.4v-7
	c0-1.1,0.9-2,2-2h7c0.6,0,1,0.2,1.4,0.6L270,26.6z"/>
<path fill="#0C0E0F" d="M306.6,35V25h-12v10H306.6z M306.6,23c1.1,0,2,0.9,2,2v10c0,1.1-0.9,2-2,2h-12c-1.1,0-2-0.9-2-2V25
	c0-1.1,0.9-2,2-2h9.1v-2c0-1.7-1.4-3.1-3.1-3.1s-3.1,1.4-3.1,3.1h-1.9c0-2.8,2.3-5,5-5s5,2.3,5,5v2H306.6z M300.6,32
	c-1.1,0-2-0.9-2-2s0.9-2,2-2s2,0.9,2,2S301.7,32,300.6,32z"/>
<path fill="#0C0E0F" d="M346.6,35V25h-12v10H346.6z M337.5,21v2h6.2v-2c0-1.7-1.4-3.1-3.1-3.1S337.5,19.3,337.5,21z M346.6,23
	c1.1,0,2,0.9,2,2v10c0,1.1-0.9,2-2,2h-12c-1.1,0-2-0.9-2-2V25c0-1.1,0.9-2,2-2h1v-2c0-2.8,2.3-5,5-5s5,2.3,5,5v2H346.6z M340.6,32
	c-1.1,0-2-0.9-2-2s0.9-2,2-2s2,0.9,2,2S341.7,32,340.6,32z"/>
<path fill="#0C0E0F" d="M380.6,26l8-5h-16L380.6,26z M388.6,33V23l-8,5l-8-5v10H388.6L388.6,33z M388.6,19c1.1,0,2,0.9,2,2v12
	c0,1.1-0.9,2-2,2h-16c-1.1,0-2-0.9-2-2V21c0-1.1,0.9-2,2-2H388.6z"/>
<path fill="#0C0E0F" d="M411.6,21h18v2h-18V21z M411.6,28v-2h18v2H411.6z M411.6,33v-2h18v2H411.6z"/>
<path fill="#0C0E0F" d="M466.6,23v-2h-12v2H466.6z M466.6,26v-2h-12v2H466.6z M466.6,29v-2h-12v2H466.6z M468.6,17c1.1,0,2,0.9,2,2
	v12c0,1.1-0.9,2-2,2h-14l-4,4V19c0-1.1,0.9-2,2-2H468.6z"/>
<path fill="#0C0E0F" d="M505.9,26h1.7c0,3.4-2.7,6.2-6,6.7V36h-2v-3.3c-3.3-0.5-6-3.3-6-6.7h1.7c0,3,2.5,5.1,5.3,5.1
	S505.9,29,505.9,26L505.9,26z M500.6,29c-1.6,0-3-1.4-3-3v-6c0-1.6,1.4-3,3-3s3,1.4,3,3v6C503.6,27.7,502.2,29,500.6,29z"/>
<path fill="#0C0E0F" d="M545.9,26h1.7c0,3.4-2.7,6.2-6,6.7V36h-2v-3.3c-3.3-0.5-6-3.3-6-6.7h1.7c0,3,2.5,5.1,5.3,5.1
	S545.9,29,545.9,26L545.9,26z M539.4,19.9v6.2c0,0.7,0.6,1.2,1.2,1.2s1.2-0.5,1.2-1.2v-6.2c0-0.7-0.6-1.2-1.2-1.2
	S539.4,19.3,539.4,19.9z M540.6,29c-1.6,0-3-1.4-3-3v-6c0-1.6,1.4-3,3-3s3,1.4,3,3v6C543.6,27.7,542.2,29,540.6,29z"/>
<path fill="#0C0E0F" d="M572.9,18l16.7,16.7l-1.3,1.3l-4.2-4.2c-0.8,0.5-1.7,0.8-2.6,0.9V36h-2v-3.3c-3.3-0.5-6-3.3-6-6.7h1.7
	c0,3,2.5,5.1,5.3,5.1c0.8,0,1.6-0.2,2.3-0.5l-1.6-1.6c-0.2,0-0.4,0.1-0.7,0.1c-1.6,0-3-1.4-3-3v-0.8l-6-6L572.9,18z M583.6,26.2
	l-6-6V20c0-1.6,1.4-3,3-3s3,1.4,3,3V26.2z M587.6,26c0,1.2-0.3,2.3-0.9,3.3l-1.2-1.3c0.3-0.6,0.4-1.3,0.4-2H587.6L587.6,26z"/>
<path fill="#0C0E0F" d="M613.6,29h14l-4.5-6l-3.5,4.5l-2.5-3L613.6,29z M628.6,17c1.1,0,2,0.9,2,2v12c0,1.1-0.9,2-2,2h-14l-4,4V19
	c0-1.1,0.9-2,2-2H628.6z"/>
<path fill="#0C0E0F" d="M30.6,59v18l-4-4h-14c-1.1,0-2-0.9-2-2V59c0-1.1,0.9-2,2-2h16C29.7,57,30.6,57.9,30.6,59z"/>
<path fill="#0C0E0F" d="M67.6,68.5c0.8,0,1.5-0.7,1.5-1.5s-0.7-1.5-1.5-1.5s-1.5,0.7-1.5,1.5S66.7,68.5,67.6,68.5z M62.6,68.5
	c0.8,0,1.5-0.7,1.5-1.5s-0.7-1.5-1.5-1.5s-1.5,0.7-1.5,1.5S61.8,68.5,62.6,68.5z M57.6,68.5c0.8,0,1.5-0.7,1.5-1.5s-0.7-1.5-1.5-1.5
	s-1.5,0.7-1.5,1.5S56.8,68.5,57.6,68.5z M70.6,58c1.1,0,2,0.9,2,2v14c0,1.1-0.9,2-2,2H55.7c-0.7,0-1.3-0.4-1.7-0.9L48.6,67l5.4-8.1
	c0.4-0.5,0.9-0.9,1.6-0.9H70.6L70.6,58z"/>
<path fill="#0C0E0F" d="M100.6,65c1.1,0,2,0.9,2,2s-0.9,2-2,2s-2-0.9-2-2S99.5,65,100.6,65z M106.6,65c1.1,0,2,0.9,2,2s-0.9,2-2,2
	s-2-0.9-2-2S105.5,65,106.6,65z M94.6,65c1.1,0,2,0.9,2,2s-0.9,2-2,2s-2-0.9-2-2S93.5,65,94.6,65z"/>
<path fill="#0C0E0F" d="M140.6,71c1.1,0,2,0.9,2,2s-0.9,2-2,2s-2-0.9-2-2S139.5,71,140.6,71z M140.6,65c1.1,0,2,0.9,2,2s-0.9,2-2,2
	s-2-0.9-2-2S139.5,65,140.6,65z M140.6,63c-1.1,0-2-0.9-2-2s0.9-2,2-2s2,0.9,2,2S141.7,63,140.6,63z"/>
<path fill="#0C0E0F" d="M180.6,57l7.5,18.3l-0.7,0.7l-6.8-3l-6.8,3l-0.7-0.7L180.6,57z"/>
<path fill="#0C0E0F" d="M229.6,58l-7.5,18h-1l-2.6-6.8l-6.8-2.6v-1L229.6,58z"/>
<path fill="#0C0E0F" d="M263.6,60.5V66h5.5L263.6,60.5z M270.6,65v8c0,1.1-0.9,2-2,2h-16c-1.1,0-2-0.9-2-2V61c0-1.1,0.9-2,2-2h12
	L270.6,65z"/>
<path fill="#0C0E0F" d="M301.6,64h5.5l-5.5-5.5V64z M304.6,71v-2h-3v-3h-2v3h-3v2h3v3h2v-3H304.6z M302.6,57l6,6v12c0,1.1-0.9,2-2,2
	h-12c-1.1,0-2-0.9-2-2V59c0-1.1,0.9-2,2-2H302.6z"/>
<path fill="#0C0E0F" d="M345.1,61.5c-1.1,0-2,0.9-2,2s0.9,2,2,2s2-0.9,2-2S346.2,61.5,345.1,61.5z M345.1,67c-1.9,0-3.5-1.6-3.5-3.5
	s1.6-3.5,3.5-3.5s3.5,1.5,3.5,3.5C348.6,65.4,347,67,345.1,67z M336.1,61.5c-1.1,0-2,0.9-2,2s0.9,2,2,2s2-0.9,2-2
	S337.2,61.5,336.1,61.5z M336.1,67c-1.9,0-3.5-1.6-3.5-3.5s1.6-3.5,3.5-3.5s3.5,1.5,3.5,3.5C339.6,65.4,338,67,336.1,67z
	 M350.1,72.5v-1.2c0-0.6-2.6-1.8-5-1.8c-1.1,0-2.1,0.3-3,0.6c0.3,0.4,0.5,0.8,0.5,1.2v1.2H350.1L350.1,72.5z M341.1,72.5v-1.2
	c0-0.6-2.6-1.8-5-1.8s-5,1.2-5,1.8v1.2H341.1L341.1,72.5z M345.1,68c2.2,0,6.5,1.1,6.5,3.3V74h-22v-2.7c0-2.2,4.4-3.3,6.5-3.3
	c1.2,0,3,0.4,4.5,1C342.1,68.4,343.9,68,345.1,68L345.1,68z"/>
<path fill="#0C0E0F" d="M386.6,73v-1c0-2-4-3.1-6-3.1s-6,1.1-6,3.1v1C374.6,73,386.6,73,386.6,73z M380.6,61c-1.6,0-3,1.4-3,3
	s1.4,3,3,3s3-1.4,3-3S382.2,61,380.6,61z M387.6,58c1.1,0,2,0.9,2,2v14c0,1.1-0.9,2-2,2h-14c-1.1,0-2-0.9-2-2V60c0-1.1,0.9-2,2-2h1
	v-2h2v2h8v-2h2v2H387.6z"/>
<path fill="#0C0E0F" d="M420.6,68c2.7,0,8,1.4,8,4v3h-16v-3C412.6,69.3,417.9,68,420.6,68L420.6,68z M420.6,59c2.2,0,4,1.8,4,4
	s-1.8,4-4,4s-4-1.8-4-4S418.4,59,420.6,59z M420.6,69.9c-3,0-6.1,1.5-6.1,2.1v1.1h12.2V72C426.7,71.4,423.6,69.9,420.6,69.9z
	 M420.6,60.9c-1.2,0-2.1,0.9-2.1,2.1s0.9,2.1,2.1,2.1s2.1-0.9,2.1-2.1S421.8,60.9,420.6,60.9z"/>
<path fill="#0C0E0F" d="M460.6,69c2.7,0,8,1.3,8,4v2h-16v-2C452.6,70.3,457.9,69,460.6,69L460.6,69z M460.6,67c-2.2,0-4-1.8-4-4
	s1.8-4,4-4s4,1.8,4,4S462.8,67,460.6,67z"/>
<path fill="#0C0E0F" d="M503.6,69c2.7,0,8,1.3,8,4v2h-16v-2C495.6,70.3,500.9,69,503.6,69L503.6,69z M494.6,65h3v2h-3v3h-2v-3h-3v-2
	h3v-3h2V65z M503.6,67c-2.2,0-4-1.8-4-4s1.8-4,4-4s4,1.8,4,4S505.8,67,503.6,67z"/>
<path fill="#0C0E0F" d="M546.6,71v-0.9c0-2-4-3.1-6-3.1s-6,1.1-6,3.1V71C534.6,71,546.6,71,546.6,71z M540.6,60.3
	c-1.5,0-2.7,1.2-2.7,2.7s1.2,2.7,2.7,2.7s2.7-1.2,2.7-2.7S542.1,60.3,540.6,60.3z M547.6,57c1.1,0,2,0.9,2,2v14c0,1.1-0.9,2-2,2h-4
	l-3,3l-3-3h-4c-1.1,0-2-0.9-2-2V59c0-1.1,0.9-2,2-2H547.6L547.6,57z"/>
<path fill="#0C0E0F" d="M580.6,69c1.7,0,3.1-0.8,4-2.2c0-1.3-2.7-2.1-4-2.1s-4,0.8-4,2.1C577.5,68.2,578.9,69,580.6,69z M580.6,59
	c-1.1,0-2,0.9-2,2s0.9,2,2,2s2-0.9,2-2S581.7,59,580.6,59z M580.6,57c3.8,0,7,3.1,7,7c0,5.3-7,13-7,13s-7-7.7-7-13
	C573.6,60.2,576.8,57,580.6,57z"/>
<path fill="#0C0E0F" d="M628.6,70.5c0.6,0,1,0.4,1,1V75c0,0.6-0.4,1-1,1c-9.4,0-17-7.6-17-17c0-0.6,0.4-1,1-1h3.5c0.6,0,1,0.4,1,1
	c0,1.3,0.2,2.4,0.6,3.6c0.1,0.3,0,0.8-0.2,1l-2.2,2.2c1.5,2.9,3.8,5.2,6.6,6.6l2.2-2.2c0.3-0.3,0.7-0.3,1-0.2
	C626.2,70.3,627.4,70.5,628.6,70.5z M626.6,66v-3h-4v-4h4v-3l5,5L626.6,66z"/>
<path fill="#0C0E0F" d="M23.6,107c0-1.6-1.4-3-3-3v-2c2.8,0,5,2.3,5,5H23.6z M27.6,107c0-3.9-3.1-7-7-7v-2c5,0,9,4,9,9H27.6z
	 M28.6,110.5c0.6,0,1,0.4,1,1v3.5c0,0.6-0.4,1-1,1c-9.4,0-17-7.6-17-17c0-0.6,0.4-1,1-1h3.5c0.6,0,1,0.4,1,1c0,1.3,0.2,2.4,0.6,3.6
	c0.1,0.3,0,0.8-0.2,1l-2.2,2.2c1.5,2.9,3.8,5.2,6.6,6.6l2.2-2.2c0.3-0.3,0.7-0.3,1-0.2C26.2,110.3,27.4,110.5,28.6,110.5z"/>
<path fill="#0C0E0F" d="M67.6,98h2v7h-2V98z M68.6,110.5c0.6,0,1,0.4,1,1v3.5c0,0.6-0.4,1-1,1c-9.4,0-17-7.6-17-17c0-0.6,0.4-1,1-1
	h3.5c0.6,0,1,0.4,1,1c0,1.3,0.2,2.4,0.6,3.6c0.1,0.3,0,0.8-0.2,1l-2.2,2.2c1.5,2.9,3.8,5.2,6.6,6.6l2.2-2.2c0.3-0.3,0.7-0.3,1-0.2
	C66.2,110.3,67.4,110.5,68.6,110.5z M65.6,98v7h-2v-7H65.6z"/>
<path fill="#0C0E0F" d="M93.6,115h14v2h-14V115z M98.6,103c0,1.1,0.9,2,2,2s2-0.9,2-2s-0.9-2-2-2S98.6,101.9,98.6,103z M106.6,103
	c0,4.5-6,11-6,11s-6-6.5-6-11c0-3.3,2.7-6,6-6S106.6,99.7,106.6,103z"/>
<path fill="#0C0E0F" d="M130.6,111v-2h8v2H130.6z M146.6,109h4v2h-4v4h-2v-4h-4v-2h4v-4h2V109z M142.6,101v2h-12v-2H142.6z
	 M142.6,105v2h-12v-2H142.6z"/>
<path fill="#0C0E0F" d="M190.1,106.5l1.5,1.5l-7,7l-4.5-4.5l1.5-1.5l3,3L190.1,106.5z M170.6,111v-2h8v2H170.6z M182.6,101v2h-12v-2
	H182.6z M182.6,105v2h-12v-2H182.6z"/>
<path fill="#0C0E0F" d="M226.4,100.2c1.9,1.6,3.2,4.1,3.2,6.8c0,5-4,9-9,9s-9-4-9-9c0-2.7,1.3-5.2,3.2-6.8l1.4,1.4
	c-1.5,1.3-2.6,3.2-2.6,5.4c0,3.9,3.1,7,7,7s7-3.1,7-7c0-2.2-1-4.1-2.6-5.4L226.4,100.2z M221.6,98v10h-2V98H221.6z"/>
<path fill="#0C0E0F" d="M258.6,107h-2l4-4l4,4h-2v4h-4V107L258.6,107z M269.6,114v-14h-18v14H269.6z M269.6,98c1.1,0,2,0.9,2,2v14
	c0,1.1-0.9,2-2,2h-18c-1.1,0-2-0.9-2-2v-14c0-1.1,0.9-2,2-2H269.6z"/>
<path fill="#0C0E0F" d="M298.6,98h4v12h-4V98z M298.6,114c0-1.1,0.9-2,2-2s2,0.8,2,2s-0.9,2-2,2S298.6,115.1,298.6,114z"/>
<path fill="#0C0E0F" d="M348.7,97c3.9,4,3.9,10.1,0,14l-1.6-1.6c2.8-3.2,2.8-7.8,0-10.8L348.7,97z M345.4,100.3c2,2.2,2,5.3,0,7.3
	l-1.7-1.7c0.8-1.2,0.8-2.7,0-3.9L345.4,100.3z M337.6,110c2.7,0,8,1.3,8,4v2h-16v-2C329.6,111.3,334.9,110,337.6,110L337.6,110z
	 M333.6,104c0-2.2,1.8-4,4-4s4,1.8,4,4s-1.8,4-4,4S333.6,106.2,333.6,104z"/>
<path fill="#0C0E0F" d="M387.6,108h-14v-2h14V108z"/>
<path fill="#0C0E0F" d="M418.6,104c7,1,10,6,11,11c-2.5-3.5-6-5.1-11-5.1v4.1l-7-7l7-7V104L418.6,104z"/>
<path fill="#0C0E0F" d="M461.6,104c7,1,10,6,11,11c-2.5-3.5-6-5.1-11-5.1v4.1l-7-7l7-7V104L461.6,104z M455.6,103l-4,4l4,4v3l-7-7
	l7-7V103z"/>
<path fill="#0C0E0F" d="M498.1,109c2.5,0,4.5-2,4.5-4.5s-2-4.5-4.5-4.5s-4.5,2-4.5,4.5S495.6,109,498.1,109z M504.1,109l5,5
	l-1.5,1.5l-5-5v-0.8l-0.3-0.3c-1.1,1-2.6,1.5-4.2,1.5c-3.6,0-6.5-2.9-6.5-6.5s2.9-6.5,6.5-6.5s6.5,2.9,6.5,6.5
	c0,1.6-0.6,3.1-1.5,4.2l0.3,0.3C503.3,109,504.1,109,504.1,109z"/>
<path fill="#0C0E0F" d="M530.6,116v-7l15-2l-15-2v-7l21,9L530.6,116z"/>
<path fill="#0C0E0F" d="M580.6,110.5c1.9,0,3.5-1.6,3.5-3.5s-1.6-3.5-3.5-3.5s-3.5,1.6-3.5,3.5S578.7,110.5,580.6,110.5z M588.1,108
	l2.1,1.6c0.2,0.1,0.2,0.4,0.1,0.7l-2,3.5c-0.1,0.2-0.4,0.3-0.6,0.2l-2.5-1c-0.5,0.4-1.1,0.8-1.7,1l-0.4,2.6c0,0.2-0.2,0.4-0.5,0.4
	h-4c-0.2,0-0.4-0.2-0.5-0.4l-0.4-2.6c-0.6-0.2-1.2-0.6-1.7-1l-2.5,1c-0.2,0.1-0.5,0-0.6-0.2l-2-3.5c-0.1-0.2-0.1-0.5,0.1-0.7
	l2.1-1.6c0-0.3,0-0.7,0-1s0-0.7,0-1l-2.1-1.6c-0.2-0.1-0.2-0.4-0.1-0.7l2-3.5c0.1-0.2,0.4-0.3,0.6-0.2l2.5,1c0.5-0.4,1.1-0.8,1.7-1
	l0.4-2.6c0-0.2,0.2-0.4,0.5-0.4h4c0.2,0,0.4,0.2,0.5,0.4l0.4,2.6c0.6,0.2,1.2,0.6,1.7,1l2.5-1c0.2-0.1,0.5,0,0.6,0.2l2,3.5
	c0.1,0.2,0.1,0.5-0.1,0.7l-2.1,1.6c0,0.3,0,0.7,0,1S588.1,107.7,588.1,108z"/>
<path fill="#0C0E0F" d="M626.6,111.1c1.6,0,2.9,1.3,2.9,2.9s-1.3,3-2.9,3s-2.9-1.4-2.9-3c0-0.2,0-0.5,0-0.7l-7.1-4.1
	c-0.6,0.5-1.3,0.8-2.1,0.8c-1.6,0-3-1.4-3-3s1.4-3,3-3c0.8,0,1.5,0.3,2.1,0.8l7-4.1c0-0.2-0.1-0.5-0.1-0.7c0-1.6,1.4-3,3-3
	s3,1.4,3,3s-1.4,3-3,3c-0.8,0-1.5-0.3-2.1-0.8l-7,4.1c0,0.2,0.1,0.5,0.1,0.7s0,0.5-0.1,0.7l7.1,4.1
	C625.1,111.4,625.9,111.1,626.6,111.1z"/>
<path fill="#0C0E0F" d="M25.6,146v-2h-2v2H25.6z M21.6,146v-2h-2v2H21.6z M17.6,146v-2h-2v2H17.6z M28.6,137c1.1,0,2,0.9,2,2v12
	c0,1.1-0.9,2-2,2h-14l-4,4v-18c0-1.1,0.9-2,2-2H28.6z"/>
<path fill="#0C0E0F" d="M66.6,143v-2h-8v2H66.6z M66.6,146v-2h-8v2H66.6z M63.6,149v-2h-5v2H63.6z M56.6,143v-2h-2v2H56.6z
	 M56.6,146v-2h-2v2H56.6z M56.6,149v-2h-2v2H56.6z M68.6,137c1.1,0,2,0.9,2,2v12c0,1.1-0.9,2-2,2h-14l-4,4v-18c0-1.1,0.9-2,2-2H68.6
	z"/>
<path fill="#0C0E0F" d="M110.2,146.6l1.4,1.4l-9.5,9.5l-5.1-5.1l1.4-1.4l3.7,3.7L110.2,146.6z M95,146h4.1l-2.1-5.5L95,146z
	 M101.1,151l-1.2-3h-5.6l-1.1,3h-2.1l5.1-13h1.9l5.1,13H101.1L101.1,151z"/>
<path fill="#0C0E0F" d="M132.6,140h16v2h-16V140z M132.6,150v-2h16v2H132.6z M148.6,144v2h-16v-2H148.6z M142.6,152v2h-10v-2H142.6z
	"/>
<path fill="#0C0E0F" d="M177.6,148c0.7,0,1.5,0.1,2.4,0.3c-2.1,1.1-2.4,2.6-2.4,3.5v2.3h-7v-2.5C170.6,149.2,175.3,148,177.6,148z
	 M185.1,149c1.8,0,5.5,0.9,5.5,2.7v2.3h-11v-2.3C179.6,149.9,183.3,149,185.1,149L185.1,149z M177.6,146c-1.6,0-3-1.4-3-3s1.4-3,3-3
	s3,1.4,3,3S179.2,146,177.6,146z M185.1,147c-1.4,0-2.5-1.1-2.5-2.5s1.1-2.5,2.5-2.5s2.5,1.2,2.5,2.5S186.5,147,185.1,147z"/>
<path fill="#0C0E0F" d="M227.6,138h4v12h-4V138z M223.6,138c1.1,0,2,0.9,2,2v10c0,0.6-0.2,1-0.6,1.4l-6.6,6.6l-1.1-1.1
	c-0.3-0.3-0.4-0.6-0.4-1v-0.3l1-4.6h-6.3c-1.1,0-2-0.9-2-2v-0.1l0,0V147c0-0.3,0-0.5,0.1-0.8l3-7c0.3-0.7,1-1.2,1.8-1.2H223.6
	L223.6,138z"/>
<path fill="#0C0E0F" d="M271.6,145L271.6,145L271.6,145v2c0,0.3,0,0.5-0.1,0.8l-3,7c-0.3,0.7-1,1.2-1.8,1.2h-9c-1.1,0-2-0.9-2-2v-10
	c0-0.6,0.2-1,0.6-1.4l6.6-6.6l1.1,1.1c0.3,0.3,0.4,0.6,0.4,1v0.3l-1,4.6h6.3C270.7,143,271.6,143.9,271.6,145L271.6,145z M249.6,156
	v-12h4v12H249.6z"/>
<path fill="#0C0E0F" d="M307.6,148v-2h2v2H307.6z M307.6,142h2v2h-2V142z M307.6,152v-2h2v2H307.6z M291.6,152v-2h14v2H291.6z
	 M291.6,148v-2h14v2H291.6z M291.6,144v-2h14v2H291.6z"/>
<path fill="#0C0E0F" d="M350.6,147l-4,4v-3h-15v-2h15v-3L350.6,147z"/>
<path fill="#0C0E0F" d="M383.6,144v-6h2v2h4v2h-4v2H383.6L383.6,144z M389.6,148h-10v-2h10V148z M375.6,144h2v6h-2v-2h-4v-2h4V144
	L375.6,144z M381.6,156h-2v-6h2v2h8v2h-8V156L381.6,156z M371.6,140h10v2h-10V140z M371.6,152h6v2h-6V152z"/>
<path fill="#0C0E0F" d="M421.1,143c4.6,0,8.5,3,9.9,7.2l-2.3,0.8c-1-3.2-4-5.5-7.6-5.5c-2,0-3.8,0.7-5.2,1.9l3.7,3.6h-9v-9l3.6,3.6
	C416,144,418.4,143,421.1,143L421.1,143z"/>
<path fill="#0C0E0F" d="M458.6,152l8-8l-1.4-1.4l-6.6,6.6l-2.6-2.6l-1.4,1.4L458.6,152z M460.6,136l9,4v6c0,5.5-3.8,10.7-9,12
	c-5.2-1.3-9-6.5-9-12v-6L460.6,136z"/>
<path fill="#0C0E0F" d="M504.6,140h5v6h-5V140z M498.6,146v-6h5v6H498.6z M504.6,153v-6h5v6H504.6z M498.6,153v-6h5v6H498.6z
	 M492.6,153v-6h5v6H492.6z M492.6,146v-6h5v6H492.6z"/>
<path fill="#0C0E0F" d="M546.6,149v-8l-4,3.2V141h-8v8h8v-3.2L546.6,149z M548.6,137c1.1,0,2,0.9,2,2v12c0,1.1-0.9,2-2,2h-14l-4,4
	v-18c0-1.1,0.9-2,2-2H548.6z"/>
<path fill="#0C0E0F" d="M580.3,154c2.7,0,4.8-2.1,4.8-4.8c0-1.4-0.2-2.7-0.6-4c-1,1.4-2.9,2.2-4.6,2.6c-1.8,0.4-2.8,1.5-2.8,3.1
	C577.1,152.6,578.5,154,580.3,154L580.3,154z M582.1,135.7c3.9,3.1,6.5,8,6.5,13.4c0,4.4-3.6,8-8,8s-8-3.6-8-8
	c0-3.4,1.2-6.5,3.2-8.9v0.4c0,2.1,1.5,3.7,3.6,3.7s3.4-1.6,3.4-3.7C582.8,138.3,582.1,135.7,582.1,135.7L582.1,135.7z"/>
<path fill="#0C0E0F" d="M620.6,145h-2v2h-1v-2h-2v-1h2v-2h1v2h2V145z M618.1,149c2.5,0,4.5-2,4.5-4.5s-2-4.5-4.5-4.5s-4.5,2-4.5,4.5
	S615.6,149,618.1,149z M624.1,149l5,5l-1.5,1.5l-5-5v-0.8l-0.3-0.3c-1.1,1-2.6,1.5-4.2,1.5c-3.6,0-6.5-2.9-6.5-6.5
	c0-3.6,2.9-6.5,6.5-6.5s6.5,2.9,6.5,6.5c0,1.6-0.6,3.1-1.5,4.2l0.3,0.3C623.3,149,624.1,149,624.1,149z"/>
<path fill="#0C0E0F" d="M15.6,184h5v1h-5V184z M18.1,189c2.5,0,4.5-2,4.5-4.5s-2-4.5-4.5-4.5s-4.5,2-4.5,4.5S15.6,189,18.1,189z
	 M24.1,189l5,5l-1.5,1.5l-5-5v-0.8l-0.3-0.3c-1.1,1-2.6,1.5-4.2,1.5c-3.6,0.1-6.5-2.8-6.5-6.4s2.9-6.5,6.5-6.5s6.5,2.9,6.5,6.5
	c0,1.6-0.6,3.1-1.5,4.2l0.3,0.3C23.3,189,24.1,189,24.1,189z"/>
<path fill="#0C0E0F" d="M69.6,190v6h-6l2.3-2.3l-2.9-2.9l1.5-1.5l2.9,2.9L69.6,190z M57.6,196h-6v-6l2.3,2.3l2.9-2.9l1.5,1.5
	l-2.9,2.9L57.6,196z M51.6,184v-6h6l-2.3,2.3l2.9,2.9l-1.5,1.5l-2.9-2.9L51.6,184z M63.6,178h6v6l-2.3-2.3l-2.9,2.9l-1.5-1.5
	l2.9-2.9L63.6,178z"/>
<path fill="#FFFFFF" d="M411.6,180h18v2h-18V180z M411.6,187v-2h18v2H411.6z M411.6,192v-2h18v2H411.6z"/>
<path fill="#FFFFFF" d="M100.6,193.2c2.5,0,4.7-1.3,6-3.2c0-2-4-3.1-6-3.1s-6,1.1-6,3.1C95.9,191.9,98.1,193.2,100.6,193.2z
	 M100.6,179c-1.6,0-3,1.4-3,3s1.4,3,3,3s3-1.4,3-3S102.2,179,100.6,179z M100.6,176c5.5,0,10,4.5,10,10s-4.5,10-10,10s-10-4.5-10-10
	S95.1,176,100.6,176z"/>
<path fill="#FFFFFF" d="M460.6,188c2.7,0,8,1.3,8,4v2h-16v-2C452.6,189.3,457.9,188,460.6,188L460.6,188z M460.6,186
	c-2.2,0-4-1.8-4-4s1.8-4,4-4s4,1.8,4,4S462.8,186,460.6,186z"/>
<path fill="#FFFFFF" d="M503.6,188c2.7,0,8,1.3,8,4v2h-16v-2C495.6,189.3,500.9,188,503.6,188L503.6,188z M494.6,184h3v2h-3v3h-2v-3
	h-3v-2h3v-3h2V184z M503.6,186c-2.2,0-4-1.8-4-4s1.8-4,4-4s4,1.8,4,4S505.8,186,503.6,186z"/>
<path fill="#FFFFFF" d="M349.9,179.2h-4.3c-0.2-0.9-1-1.5-1.9-1.5h-6c-0.9,0-1.7,0.6-1.9,1.5h-4.3c-1.1,0-2,0.8-2,1.9v10.3
	c0,1,0.9,1.9,2,1.9h18.4c1.1,0,2-0.8,2-1.9v-10.3C351.9,180.1,351,179.2,349.9,179.2z M340.7,190.2c-2.2,0-4-1.8-4-4
	c0-2.2,1.8-4,4-4c2.2,0,4,1.8,4,4C344.7,188.4,342.9,190.2,340.7,190.2z"/>
<path fill="#FFFFFF" d="M140.6,190c1.1,0,2,0.9,2,2s-0.9,2-2,2s-2-0.9-2-2S139.5,190,140.6,190z M140.6,184c1.1,0,2,0.9,2,2
	s-0.9,2-2,2s-2-0.9-2-2S139.5,184,140.6,184z M140.6,182c-1.1,0-2-0.9-2-2s0.9-2,2-2s2,0.9,2,2S141.7,182,140.6,182z"/>
<path fill="#FFFFFF" d="M620.3,179.2l1.4,1.4l-5.6,5.6h12.2l0,0v2h-12.2l5.6,5.6l-1.4,1.4l-8-8L620.3,179.2"/>
<path fill="#FFFFFF" d="M540.1,189c2.5,0,4.5-2,4.5-4.5s-2-4.5-4.5-4.5s-4.5,2-4.5,4.5S537.6,189,540.1,189z M546.1,189l5,5
	l-1.5,1.5l-5-5v-0.8l-0.3-0.3c-1.1,1-2.6,1.5-4.2,1.5c-3.6,0-6.5-2.9-6.5-6.5c0-3.6,2.9-6.5,6.5-6.5c3.6,0,6.5,2.9,6.5,6.5
	c0,1.6-0.6,3.1-1.5,4.2l0.3,0.3C545.3,189,546.1,189,546.1,189z"/>
<path d="M307.6,178h-1v-2h-2v2h-8v-2h-2v2h-1c-1.1,0-2,0.9-2,2v14c0,1.1,0.9,2,2,2h14c1.1,0,2-0.9,2-2v-14
	C309.6,178.9,308.7,178,307.6,178z M308.1,193.5c0,0.6-0.5,1-1,1h-12.9c-0.6,0-1-0.5-1-1.1v-12.9c0-0.5,0.5-1,1-1h12.9
	c0.6,0,1,0.5,1,1V193.5z M297.8,182.6h0.7v8.6h-1.1v-6.7c-0.3,0.2-0.6,0.5-1,0.7s-0.8,0.4-1.1,0.5v-1c0.6-0.3,1.1-0.6,1.5-1
	S297.6,183,297.8,182.6z M305.1,186.3c0.5,0.5,0.8,1.2,0.8,2c0,0.8-0.2,1.4-0.7,2c-0.6,0.7-1.3,1-2.3,1c-0.8,0-1.4-0.2-1.9-0.7
	s-0.8-1-0.8-1.7l1.1-0.1c0.1,0.5,0.3,0.9,0.6,1.2s0.7,0.4,1.1,0.4c0.5,0,0.9-0.2,1.3-0.6s0.5-0.9,0.5-1.5c0-0.6-0.2-1.1-0.5-1.4
	s-0.8-0.5-1.3-0.5c-0.3,0-0.6,0.1-0.9,0.2s-0.5,0.4-0.6,0.6l-1-0.1l0.8-4.4h4.3v1H302l-0.5,2.3c0.5-0.4,1.1-0.5,1.6-0.5
	C304,185.5,304.6,185.8,305.1,186.3z"/>
<path fill="#FFFFFF" d="M389.8,180.5l-1.8,1.8l-3.8-3.8l1.8-1.8c0.4-0.4,1-0.4,1.4,0l2.3,2.3C390.2,179.5,390.2,180.2,389.8,180.5z
	 M372.1,190.7l11.1-11.1l3.8,3.8l-11.1,11.1h-3.8V190.7z"/>
</svg>
