<?xml version="1.0" encoding="utf-8"?>
<!-- Generated by IcoMoon.io -->
<!DOCTYPE svg PUBLIC "-//W3C//DTD SVG 1.1//EN" "http://www.w3.org/Graphics/SVG/1.1/DTD/svg11.dtd">
<svg version="1.1" xmlns="http://www.w3.org/2000/svg" xmlns:xlink="http://www.w3.org/1999/xlink" width="624" height="384" viewBox="0 0 624 384">
<svg id="icon24-alarm" width="24" height="24" viewBox="0 0 24 24" x="0" y="0">
<path d="M12 20.016c3.891 0 6.984-3.141 6.984-7.031s-3.094-6.984-6.984-6.984-6.984 3.094-6.984 6.984 3.094 7.031 6.984 7.031zM12 3.984c4.969 0 9 4.031 9 9s-4.031 9-9 9-9-4.031-9-9 4.031-9 9-9zM12.516 8.016v5.25l3.984 2.344-0.75 1.219-4.734-2.813v-6h1.5zM7.875 3.375l-4.594 3.844-1.266-1.5 4.594-3.844zM21.984 5.719l-1.266 1.547-4.594-3.891 1.266-1.5z"></path>
</svg>
<svg id="icon24-schedule" width="24" height="24" viewBox="0 0 24 24" x="40" y="0">
<path d="M12.516 6.984v5.25l4.5 2.672-0.75 1.266-5.25-3.188v-6h1.5zM12 20.016c4.406 0 8.016-3.609 8.016-8.016s-3.609-8.016-8.016-8.016-8.016 3.609-8.016 8.016 3.609 8.016 8.016 8.016zM12 2.016c5.531 0 9.984 4.453 9.984 9.984s-4.453 9.984-9.984 9.984-9.984-4.453-9.984-9.984 4.453-9.984 9.984-9.984z"></path>
</svg>
<svg id="icon24-account_circle" width="24" height="24" viewBox="0 0 24 24" x="80" y="0">
<path d="M12 19.219c2.484 0 4.688-1.313 6-3.234-0.047-1.969-4.031-3.094-6-3.094-2.016 0-5.953 1.125-6 3.094 1.313 1.922 3.516 3.234 6 3.234zM12 5.016c-1.641 0-3 1.359-3 3s1.359 3 3 3 3-1.359 3-3-1.359-3-3-3zM12 2.016c5.531 0 9.984 4.453 9.984 9.984s-4.453 9.984-9.984 9.984-9.984-4.453-9.984-9.984 4.453-9.984 9.984-9.984z"></path>
</svg>
<svg id="icon24-add" width="24" height="24" viewBox="0 0 24 24" x="120" y="0">
<path d="M18.984 12.984h-6v6h-1.969v-6h-6v-1.969h6v-6h1.969v6h6v1.969z"></path>
</svg>
<svg id="icon24-alarm_on" width="24" height="24" viewBox="0 0 24 24" x="160" y="0">
<path d="M10.547 14.531l4.922-4.969 1.078 1.078-6 6-3.188-3.188 1.031-1.031zM12 20.016c3.891 0 6.984-3.141 6.984-7.031s-3.094-6.984-6.984-6.984-6.984 3.094-6.984 6.984 3.094 7.031 6.984 7.031zM12 3.984c4.969 0 9 4.031 9 9s-4.031 9-9 9-9-4.031-9-9 4.031-9 9-9zM7.875 3.375l-4.594 3.844-1.266-1.5 4.594-3.844zM21.984 5.719l-1.266 1.547-4.594-3.891 1.266-1.5z"></path>
</svg>
<svg id="icon24-announcement" width="24" height="24" viewBox="0 0 24 24" x="200" y="0">
<path d="M12.984 15v-2.016h-1.969v2.016h1.969zM12.984 11.016v-6h-1.969v6h1.969zM20.016 2.016c1.078 0 1.969 0.891 1.969 1.969v12c0 1.078-0.891 2.016-1.969 2.016h-14.016l-3.984 3.984v-18c0-1.078 0.891-1.969 1.969-1.969h16.031z"></path>
</svg>
<svg id="icon24-apps" width="24" height="24" viewBox="0 0 24 24" x="240" y="0">
<path d="M15.984 20.016v-4.031h4.031v4.031h-4.031zM15.984 14.016v-4.031h4.031v4.031h-4.031zM9.984 8.016v-4.031h4.031v4.031h-4.031zM15.984 3.984h4.031v4.031h-4.031v-4.031zM9.984 14.016v-4.031h4.031v4.031h-4.031zM3.984 14.016v-4.031h4.031v4.031h-4.031zM3.984 20.016v-4.031h4.031v4.031h-4.031zM9.984 20.016v-4.031h4.031v4.031h-4.031zM3.984 8.016v-4.031h4.031v4.031h-4.031z"></path>
</svg>
<svg id="icon24-arrow_back" width="24" height="24" viewBox="0 0 24 24" x="280" y="0">
<path d="M20.016 11.016v1.969h-12.188l5.578 5.625-1.406 1.406-8.016-8.016 8.016-8.016 1.406 1.406-5.578 5.625h12.188z"></path>
</svg>
<svg id="icon24-arrow_downward" width="24" height="24" viewBox="0 0 24 24" x="320" y="0">
<path d="M20.016 12l-8.016 8.016-8.016-8.016 1.453-1.406 5.578 5.578v-12.188h1.969v12.188l5.625-5.578z"></path>
</svg>
<svg id="icon24-arrow_drop_down" width="24" height="24" viewBox="0 0 24 24" x="360" y="0">
<path d="M6.984 9.984h10.031l-5.016 5.016z"></path>
</svg>
<svg id="icon24-arrow_drop_up" width="24" height="24" viewBox="0 0 24 24" x="400" y="0">
<path d="M6.984 14.016l5.016-5.016 5.016 5.016h-10.031z"></path>
</svg>
<svg id="icon24-arrow_forward" width="24" height="24" viewBox="0 0 24 24" x="440" y="0">
<path d="M12 3.984l8.016 8.016-8.016 8.016-1.406-1.406 5.578-5.625h-12.188v-1.969h12.188l-5.578-5.625z"></path>
</svg>
<svg id="icon24-arrow_upward" width="24" height="24" viewBox="0 0 24 24" x="480" y="0">
<path d="M3.984 12l8.016-8.016 8.016 8.016-1.453 1.406-5.578-5.578v12.188h-1.969v-12.188l-5.625 5.578z"></path>
</svg>
<svg id="icon24-art_track" width="24" height="24" viewBox="0 0 24 24" x="520" y="0">
<path d="M10.5 15l-2.25-3-1.734 2.25-1.266-1.5-1.734 2.25h6.984zM12 9v6c0 1.078-0.938 2.016-2.016 2.016h-6c-1.078 0-1.969-0.938-1.969-2.016v-6c0-1.078 0.891-2.016 1.969-2.016h6c1.078 0 2.016 0.938 2.016 2.016zM14.016 17.016v-2.016h7.969v2.016h-7.969zM21.984 6.984v2.016h-7.969v-2.016h7.969zM21.984 12.984h-7.969v-1.969h7.969v1.969z"></path>
</svg>
<svg id="icon24-aspect_ratio" width="24" height="24" viewBox="0 0 24 24" x="560" y="0">
<path d="M21 19.031v-14.063h-18v14.063h18zM21 3c1.078 0 2.016 0.938 2.016 2.016v13.969c0 1.078-0.938 2.016-2.016 2.016h-18c-1.078 0-2.016-0.938-2.016-2.016v-13.969c0-1.078 0.938-2.016 2.016-2.016h18zM6.984 9v3h-1.969v-5.016h4.969v2.016h-3zM18.984 12v5.016h-4.969v-2.016h3v-3h1.969z"></path>
</svg>
<svg id="icon24-assignment_ind" width="24" height="24" viewBox="0 0 24 24" x="600" y="0">
<path d="M18 18.984v-1.406c0-2.016-3.984-3.094-6-3.094s-6 1.078-6 3.094v1.406h12zM12 6.984c-1.641 0-3 1.359-3 3s1.359 3 3 3 3-1.359 3-3-1.359-3-3-3zM12 3c-0.563 0-0.984 0.422-0.984 0.984s0.422 1.031 0.984 1.031 0.984-0.469 0.984-1.031-0.422-0.984-0.984-0.984zM18.984 3c1.078 0 2.016 0.938 2.016 2.016v13.969c0 1.078-0.938 2.016-2.016 2.016h-13.969c-1.078 0-2.016-0.938-2.016-2.016v-13.969c0-1.078 0.938-2.016 2.016-2.016h4.172c0.422-1.172 1.5-2.016 2.813-2.016s2.391 0.844 2.813 2.016h4.172z"></path>
</svg>
<svg id="icon24-assignment_late" width="24" height="24" viewBox="0 0 24 24" x="0" y="40">
<path d="M12 5.016c0.563 0 0.984-0.469 0.984-1.031s-0.422-0.984-0.984-0.984-0.984 0.422-0.984 0.984 0.422 1.031 0.984 1.031zM12.984 14.016v-6h-1.969v6h1.969zM12.984 18v-2.016h-1.969v2.016h1.969zM18.984 3c1.078 0 2.016 0.938 2.016 2.016v13.969c0 1.078-0.938 2.016-2.016 2.016h-13.969c-1.078 0-2.016-0.938-2.016-2.016v-13.969c0-1.078 0.938-2.016 2.016-2.016h4.172c0.422-1.172 1.5-2.016 2.813-2.016s2.391 0.844 2.813 2.016h4.172z"></path>
</svg>
<svg id="icon24-assignment_turned_in" width="24" height="24" viewBox="0 0 24 24" x="40" y="40">
<path d="M9.984 17.016l8.016-8.016-1.406-1.406-6.609 6.563-2.578-2.578-1.406 1.406zM12 3c-0.563 0-0.984 0.422-0.984 0.984s0.422 1.031 0.984 1.031 0.984-0.469 0.984-1.031-0.422-0.984-0.984-0.984zM18.984 3c1.078 0 2.016 0.938 2.016 2.016v13.969c0 1.078-0.938 2.016-2.016 2.016h-13.969c-1.078 0-2.016-0.938-2.016-2.016v-13.969c0-1.078 0.938-2.016 2.016-2.016h4.172c0.422-1.172 1.5-2.016 2.813-2.016s2.391 0.844 2.813 2.016h4.172z"></path>
</svg>
<svg id="icon24-flag" width="24" height="24" viewBox="0 0 24 24" x="80" y="40">
<path d="M14.391 6h5.625v9.984h-7.031l-0.375-1.969h-5.625v6.984h-1.969v-17.016h9z"></path>
</svg>
<svg id="icon24-autorenew" width="24" height="24" viewBox="0 0 24 24" x="120" y="40">
<path d="M18.75 7.734c0.797 1.219 1.266 2.719 1.266 4.266 0 4.406-3.609 8.016-8.016 8.016v3l-3.984-4.031 3.984-3.984v3c3.328 0 6-2.672 6-6 0-1.031-0.281-1.969-0.703-2.813zM12 6c-3.328 0-6 2.672-6 6 0 1.031 0.234 1.969 0.703 2.813l-1.453 1.453c-0.797-1.219-1.266-2.719-1.266-4.266 0-4.406 3.609-8.016 8.016-8.016v-3l3.984 4.031-3.984 3.984v-3z"></path>
</svg>
<svg id="icon24-backspace" width="24" height="24" viewBox="0 0 24 24" x="160" y="40">
<path d="M18.984 15.609l-3.563-3.609 3.563-3.609-1.406-1.406-3.563 3.609-3.609-3.609-1.406 1.406 3.609 3.609-3.609 3.609 1.406 1.406 3.609-3.609 3.563 3.609zM21.984 3c1.078 0 2.016 0.938 2.016 2.016v13.969c0 1.078-0.938 2.016-2.016 2.016h-15c-0.703 0-1.219-0.375-1.594-0.891l-5.391-8.109 5.391-8.109c0.375-0.516 0.891-0.891 1.594-0.891h15z"></path>
</svg>
<svg id="icon24-cloud_upload" width="24" height="24" viewBox="0 0 24 24" x="200" y="40">
<path d="M14.016 12.984h3l-5.016-4.969-5.016 4.969h3v4.031h4.031v-4.031zM19.359 10.031c2.578 0.188 4.641 2.344 4.641 4.969 0 2.766-2.25 5.016-5.016 5.016h-12.984c-3.328 0-6-2.672-6-6 0-3.094 2.344-5.625 5.344-5.953 1.266-2.391 3.75-4.078 6.656-4.078 3.656 0 6.656 2.578 7.359 6.047z"></path>
</svg>
<svg id="icon24-build" width="24" height="24" viewBox="0 0 24 24" x="240" y="40">
<path d="M22.688 18.984c0.422 0.281 0.422 0.984-0.094 1.406l-2.297 2.297c-0.422 0.422-0.984 0.422-1.406 0l-9.094-9.094c-2.297 0.891-4.969 0.422-6.891-1.5-2.016-2.016-2.531-5.016-1.313-7.406l4.406 4.313 3-3-4.313-4.313c2.391-1.078 5.391-0.703 7.406 1.313 1.922 1.922 2.391 4.594 1.5 6.891z"></path>
</svg>
<svg id="icon24-cached" width="24" height="24" viewBox="0 0 24 24" x="280" y="40">
<path d="M6 12h3l-3.984 3.984-4.031-3.984h3c0-4.406 3.609-8.016 8.016-8.016 1.547 0 3.047 0.469 4.266 1.266l-1.453 1.453c-0.844-0.469-1.781-0.703-2.813-0.703-3.328 0-6 2.672-6 6zM18.984 8.016l4.031 3.984h-3c0 4.406-3.609 8.016-8.016 8.016-1.547 0-3.047-0.469-4.266-1.266l1.453-1.453c0.844 0.469 1.781 0.703 2.813 0.703 3.328 0 6-2.672 6-6h-3z"></path>
</svg>
<svg id="icon24-phone" width="24" height="24" viewBox="0 0 24 24" x="320" y="40">
<path d="M6.609 10.781c1.453 2.813 3.797 5.156 6.609 6.609l2.203-2.203c0.281-0.281 0.703-0.375 1.031-0.234 1.125 0.375 2.344 0.563 3.563 0.563 0.563 0 0.984 0.422 0.984 0.984v3.516c0 0.563-0.422 0.984-0.984 0.984-9.375 0-17.016-7.641-17.016-17.016 0-0.563 0.422-0.984 0.984-0.984h3.516c0.563 0 0.984 0.422 0.984 0.984 0 1.266 0.188 2.438 0.563 3.563 0.094 0.328 0.047 0.75-0.234 1.031z"></path>
</svg>
<svg id="icon24-call_end" width="24" height="24" viewBox="0 0 24 24" x="360" y="40">
<path d="M12 9c-1.594 0-3.141 0.234-4.594 0.703v3.094c0 0.375-0.234 0.797-0.563 0.938-0.984 0.469-1.875 1.078-2.672 1.828-0.188 0.188-0.422 0.281-0.703 0.281s-0.516-0.094-0.703-0.281l-2.484-2.484c-0.188-0.188-0.281-0.422-0.281-0.703s0.094-0.516 0.281-0.703c3.047-2.906 7.172-4.688 11.719-4.688s8.672 1.781 11.719 4.688c0.188 0.188 0.281 0.422 0.281 0.703s-0.094 0.516-0.281 0.703l-2.484 2.484c-0.188 0.188-0.422 0.281-0.703 0.281s-0.516-0.094-0.703-0.281c-0.797-0.75-1.688-1.359-2.672-1.828-0.328-0.141-0.563-0.469-0.563-0.891v-3.094c-1.453-0.469-3-0.75-4.594-0.75z"></path>
</svg>
<svg id="icon24-call_made" width="24" height="24" viewBox="0 0 24 24" x="400" y="40">
<path d="M9 5.016h9.984v9.984h-1.969v-6.609l-11.625 11.625-1.406-1.406 11.625-11.625h-6.609v-1.969z"></path>
</svg>
<svg id="icon24-chat" width="24" height="24" viewBox="0 0 24 24" x="440" y="40">
<path d="M18 8.016v-2.016h-12v2.016h12zM14.016 14.016v-2.016h-8.016v2.016h8.016zM6 9v2.016h12v-2.016h-12zM20.016 2.016c1.078 0 1.969 0.891 1.969 1.969v12c0 1.078-0.891 2.016-1.969 2.016h-14.016l-3.984 3.984v-18c0-1.078 0.891-1.969 1.969-1.969h16.031z"></path>
</svg>
<svg id="icon24-chat_bubble" width="24" height="24" viewBox="0 0 24 24" x="480" y="40">
<path d="M20.016 2.016c1.078 0 1.969 0.891 1.969 1.969v12c0 1.078-0.891 2.016-1.969 2.016h-14.016l-3.984 3.984v-18c0-1.078 0.891-1.969 1.969-1.969h16.031z"></path>
</svg>
<svg id="icon24-chat_bubble_outline" width="24" height="24" viewBox="0 0 24 24" x="520" y="40">
<path d="M20.016 15.984v-12h-16.031v14.016l2.016-2.016h14.016zM20.016 2.016c1.078 0 1.969 0.891 1.969 1.969v12c0 1.078-0.891 2.016-1.969 2.016h-14.016l-3.984 3.984v-18c0-1.078 0.891-1.969 1.969-1.969h16.031z"></path>
</svg>
<svg id="icon24-check" width="24" height="24" viewBox="0 0 24 24" x="560" y="40">
<path d="M9 16.172l10.594-10.594 1.406 1.406-12 12-5.578-5.578 1.406-1.406z"></path>
</svg>
<svg id="icon24-navigate_before" width="24" height="24" viewBox="0 0 24 24" x="600" y="40">
<path d="M15.422 7.406l-4.594 4.594 4.594 4.594-1.406 1.406-6-6 6-6z"></path>
</svg>
<svg id="icon24-navigate_next" width="24" height="24" viewBox="0 0 24 24" x="0" y="80">
<path d="M9.984 6l6 6-6 6-1.406-1.406 4.594-4.594-4.594-4.594z"></path>
</svg>
<svg id="icon24-close" width="24" height="24" viewBox="0 0 24 24" x="40" y="80">
<path d="M18.984 6.422l-5.578 5.578 5.578 5.578-1.406 1.406-5.578-5.578-5.578 5.578-1.406-1.406 5.578-5.578-5.578-5.578 1.406-1.406 5.578 5.578 5.578-5.578z"></path>
</svg>
<svg id="icon24-clear_all" width="24" height="24" viewBox="0 0 24 24" x="80" y="80">
<path d="M6.984 6.984h14.016v2.016h-14.016v-2.016zM3 17.016v-2.016h14.016v2.016h-14.016zM5.016 12.984v-1.969h13.969v1.969h-13.969z"></path>
</svg>
<svg id="icon24-cloud_done" width="24" height="24" viewBox="0 0 24 24" x="120" y="80">
<path d="M9.984 17.016l6.609-6.609-1.406-1.406-5.203 5.156-2.063-2.063-1.406 1.406zM19.359 10.031c2.578 0.188 4.641 2.344 4.641 4.969 0 2.766-2.25 5.016-5.016 5.016h-12.984c-3.328 0-6-2.672-6-6 0-3.094 2.344-5.625 5.344-5.953 1.266-2.391 3.75-4.078 6.656-4.078 3.656 0 6.656 2.578 7.359 6.047z"></path>
</svg>
<svg id="icon24-cloud_download" width="24" height="24" viewBox="0 0 24 24" x="160" y="80">
<path d="M17.016 12.984h-3v-3.984h-4.031v3.984h-3l5.016 5.016zM19.359 10.031c2.578 0.188 4.641 2.344 4.641 4.969 0 2.766-2.25 5.016-5.016 5.016h-12.984c-3.328 0-6-2.672-6-6 0-3.094 2.344-5.625 5.344-5.953 1.266-2.391 3.75-4.078 6.656-4.078 3.656 0 6.656 2.578 7.359 6.047z"></path>
</svg>
<svg id="icon24-cloud_queue" width="24" height="24" viewBox="0 0 24 24" x="200" y="80">
<path d="M18.984 18c1.641 0 3-1.359 3-3s-1.359-3-3-3h-1.5v-0.516c0-3.047-2.438-5.484-5.484-5.484-2.531 0-4.641 1.688-5.297 3.984h-0.703c-2.203 0-3.984 1.828-3.984 4.031s1.781 3.984 3.984 3.984h12.984zM19.359 10.031c2.578 0.188 4.641 2.344 4.641 4.969 0 2.766-2.25 5.016-5.016 5.016h-12.984c-3.328 0-6-2.672-6-6 0-3.094 2.344-5.625 5.344-5.953 1.266-2.391 3.75-4.078 6.656-4.078 3.656 0 6.656 2.578 7.359 6.047z"></path>
</svg>
<svg id="icon24-code" width="24" height="24" viewBox="0 0 24 24" x="240" y="80">
<path d="M14.578 16.594l4.641-4.594-4.641-4.594 1.406-1.406 6 6-6 6zM9.422 16.594l-1.406 1.406-6-6 6-6 1.406 1.406-4.641 4.594z"></path>
</svg>
<svg id="icon24-comment" width="24" height="24" viewBox="0 0 24 24" x="280" y="80">
<path d="M18 8.016v-2.016h-12v2.016h12zM18 11.016v-2.016h-12v2.016h12zM18 14.016v-2.016h-12v2.016h12zM21.984 3.984v18l-3.984-3.984h-14.016c-1.078 0-1.969-0.938-1.969-2.016v-12c0-1.078 0.891-1.969 1.969-1.969h16.031c1.078 0 1.969 0.891 1.969 1.969z"></path>
</svg>
<svg id="icon24-laptop" width="24" height="24" viewBox="0 0 24 24" x="320" y="80">
<path d="M3.984 6v9.984h16.031v-9.984h-16.031zM20.016 18h3.984v2.016h-24v-2.016h3.984c-1.078 0-1.969-0.938-1.969-2.016v-9.984c0-1.078 0.891-2.016 1.969-2.016h16.031c1.078 0 1.969 0.938 1.969 2.016v9.984c0 1.078-0.891 2.016-1.969 2.016z"></path>
</svg>
<svg id="icon24-mode_edit" width="24" height="24" viewBox="0 0 24 24" x="360" y="80">
<path d="M20.719 7.031l-1.828 1.828-3.75-3.75 1.828-1.828c0.375-0.375 1.031-0.375 1.406 0l2.344 2.344c0.375 0.375 0.375 1.031 0 1.406zM3 17.25l11.063-11.063 3.75 3.75-11.063 11.063h-3.75v-3.75z"></path>
</svg>
<svg id="icon24-payment" width="24" height="24" viewBox="0 0 24 24" x="400" y="80">
<path d="M20.016 8.016v-2.016h-16.031v2.016h16.031zM20.016 18v-6h-16.031v6h16.031zM20.016 3.984c1.125 0 1.969 0.891 1.969 2.016v12c0 1.125-0.844 2.016-1.969 2.016h-16.031c-1.125 0-1.969-0.891-1.969-2.016v-12c0-1.125 0.844-2.016 1.969-2.016h16.031z"></path>
</svg>
<svg id="icon24-delete" width="24" height="24" viewBox="0 0 24 24" x="440" y="80">
<path d="M18.984 3.984v2.016h-13.969v-2.016h3.469l1.031-0.984h4.969l1.031 0.984h3.469zM6 18.984v-12h12v12c0 1.078-0.938 2.016-2.016 2.016h-7.969c-1.078 0-2.016-0.938-2.016-2.016z"></path>
</svg>
<svg id="icon24-delete_forever" width="24" height="24" viewBox="0 0 24 24" x="480" y="80">
<path d="M15.516 3.984h3.469v2.016h-13.969v-2.016h3.469l1.031-0.984h4.969zM8.438 11.859l2.156 2.156-2.109 2.109 1.406 1.406 2.109-2.109 2.109 2.109 1.406-1.406-2.109-2.109 2.109-2.156-1.406-1.406-2.109 2.156-2.109-2.156zM6 18.984v-12h12v12c0 1.078-0.938 2.016-2.016 2.016h-7.969c-1.078 0-2.016-0.938-2.016-2.016z"></path>
</svg>
<svg id="icon24-description" width="24" height="24" viewBox="0 0 24 24" x="520" y="80">
<path d="M12.984 9h5.531l-5.531-5.484v5.484zM15.984 14.016v-2.016h-7.969v2.016h7.969zM15.984 18v-2.016h-7.969v2.016h7.969zM14.016 2.016l6 6v12c0 1.078-0.938 1.969-2.016 1.969h-12c-1.078 0-2.016-0.891-2.016-1.969l0.047-16.031c0-1.078 0.891-1.969 1.969-1.969h8.016z"></path>
</svg>
<svg id="icon24-desktop_windows" width="24" height="24" viewBox="0 0 24 24" x="560" y="80">
<path d="M21 15.984v-12h-18v12h18zM21 2.016c1.078 0 2.016 0.891 2.016 1.969v12c0 1.078-0.938 2.016-2.016 2.016h-6.984v2.016h1.969v1.969h-7.969v-1.969h1.969v-2.016h-6.984c-1.078 0-2.016-0.938-2.016-2.016v-12c0-1.078 0.938-1.969 2.016-1.969h18z"></path>
</svg>
<svg id="icon24-done" width="24" height="24" viewBox="0 0 24 24" x="600" y="80">
<path d="M9 16.219l10.594-10.641 1.406 1.406-12 12-5.578-5.578 1.359-1.406z"></path>
</svg>
<svg id="icon24-done_all" width="24" height="24" viewBox="0 0 24 24" x="0" y="120">
<path d="M0.422 13.406l1.406-1.406 5.578 5.578-1.406 1.406zM22.219 5.578l1.453 1.406-12 12-5.625-5.578 1.453-1.406 4.172 4.172zM18 6.984l-6.328 6.375-1.406-1.406 6.328-6.375z"></path>
</svg>
<svg id="icon24-drafts" width="24" height="24" viewBox="0 0 24 24" x="40" y="120">
<path d="M12 12.984l8.25-5.156-8.25-4.828-8.25 4.828zM21.984 8.016v9.984c0 1.078-0.891 2.016-1.969 2.016h-16.031c-1.078 0-1.969-0.938-1.969-2.016v-9.984c0-0.703 0.375-1.406 0.938-1.734l9.047-5.297 9.047 5.297c0.563 0.328 0.938 1.031 0.938 1.734z"></path>
</svg>
<svg id="icon24-drag_handle" width="24" height="24" viewBox="0 0 24 24" x="80" y="120">
<path d="M3.984 15v-2.016h16.031v2.016h-16.031zM20.016 9v2.016h-16.031v-2.016h16.031z"></path>
</svg>
<svg id="icon24-markunread" width="24" height="24" viewBox="0 0 24 24" x="120" y="120">
<path d="M20.016 8.016v-2.016l-8.016 5.016-8.016-5.016v2.016l8.016 4.969zM20.016 3.984c1.078 0 1.969 0.938 1.969 2.016v12c0 1.078-0.891 2.016-1.969 2.016h-16.031c-1.078 0-1.969-0.938-1.969-2.016v-12c0-1.078 0.891-2.016 1.969-2.016h16.031z"></path>
</svg>
<svg id="icon24-equalizer" width="24" height="24" viewBox="0 0 24 24" x="160" y="120">
<path d="M15.984 9h4.031v11.016h-4.031v-11.016zM3.984 20.016v-8.016h4.031v8.016h-4.031zM9.984 20.016v-16.031h4.031v16.031h-4.031z"></path>
</svg>
<svg id="icon24-error" width="24" height="24" viewBox="0 0 24 24" x="200" y="120">
<path d="M12.984 12.984v-6h-1.969v6h1.969zM12.984 17.016v-2.016h-1.969v2.016h1.969zM12 2.016c5.531 0 9.984 4.453 9.984 9.984s-4.453 9.984-9.984 9.984-9.984-4.453-9.984-9.984 4.453-9.984 9.984-9.984z"></path>
</svg>
<svg id="icon24-error_outline" width="24" height="24" viewBox="0 0 24 24" x="240" y="120">
<path d="M12 20.016c4.406 0 8.016-3.609 8.016-8.016s-3.609-8.016-8.016-8.016-8.016 3.609-8.016 8.016 3.609 8.016 8.016 8.016zM12 2.016c5.531 0 9.984 4.453 9.984 9.984s-4.453 9.984-9.984 9.984-9.984-4.453-9.984-9.984 4.453-9.984 9.984-9.984zM11.016 6.984h1.969v6h-1.969v-6zM11.016 15h1.969v2.016h-1.969v-2.016z"></path>
</svg>
<svg id="icon24-expand_less" width="24" height="24" viewBox="0 0 24 24" x="280" y="120">
<path d="M12 8.016l6 6-1.406 1.406-4.594-4.594-4.594 4.594-1.406-1.406z"></path>
</svg>
<svg id="icon24-expand_more" width="24" height="24" viewBox="0 0 24 24" x="320" y="120">
<path d="M16.594 8.578l1.406 1.406-6 6-6-6 1.406-1.406 4.594 4.594z"></path>
</svg>
<svg id="icon24-favorite" width="24" height="24" viewBox="0 0 24 24" x="360" y="120">
<path d="M12 21.328l-1.453-1.313c-5.156-4.688-8.531-7.734-8.531-11.531 0-3.094 2.391-5.484 5.484-5.484 1.734 0 3.422 0.844 4.5 2.109 1.078-1.266 2.766-2.109 4.5-2.109 3.094 0 5.484 2.391 5.484 5.484 0 3.797-3.375 6.891-8.531 11.578z"></path>
</svg>
<svg id="icon24-favorite_border" width="24" height="24" viewBox="0 0 24 24" x="400" y="120">
<path d="M12.094 18.563c4.781-4.313 7.922-7.172 7.922-10.078 0-2.016-1.5-3.469-3.516-3.469-1.547 0-3.047 0.984-3.563 2.344h-1.875c-0.516-1.359-2.016-2.344-3.563-2.344-2.016 0-3.516 1.453-3.516 3.469 0 2.906 3.141 5.766 7.922 10.078l0.094 0.094zM16.5 3c3.094 0 5.484 2.391 5.484 5.484 0 3.797-3.375 6.844-8.531 11.531l-1.453 1.313-1.453-1.266c-5.156-4.688-8.531-7.781-8.531-11.578 0-3.094 2.391-5.484 5.484-5.484 1.734 0 3.422 0.844 4.5 2.109 1.078-1.266 2.766-2.109 4.5-2.109z"></path>
</svg>
<svg id="icon24-sms_failed" width="24" height="24" viewBox="0 0 24 24" x="440" y="120">
<path d="M12.984 9.984v-3.984h-1.969v3.984h1.969zM12.984 14.016v-2.016h-1.969v2.016h1.969zM20.016 2.016c1.078 0 1.969 0.891 1.969 1.969v12c0 1.078-0.891 2.016-1.969 2.016h-14.016l-3.984 3.984v-18c0-1.078 0.891-1.969 1.969-1.969h16.031z"></path>
</svg>
<svg id="icon24-get_app" width="24" height="24" viewBox="0 0 24 24" x="480" y="120">
<path d="M5.016 18h13.969v2.016h-13.969v-2.016zM18.984 9l-6.984 6.984-6.984-6.984h3.984v-6h6v6h3.984z"></path>
</svg>
<svg id="icon24-file_upload" width="24" height="24" viewBox="0 0 24 24" x="520" y="120">
<path d="M5.016 18h13.969v2.016h-13.969v-2.016zM9 15.984v-6h-3.984l6.984-6.984 6.984 6.984h-3.984v6h-6z"></path>
</svg>
<svg id="icon24-question_answer" width="24" height="24" viewBox="0 0 24 24" x="560" y="120">
<path d="M17.016 12c0 0.563-0.469 0.984-1.031 0.984h-9.984l-3.984 4.031v-14.016c0-0.563 0.422-0.984 0.984-0.984h12.984c0.563 0 1.031 0.422 1.031 0.984v9zM21 6c0.563 0 0.984 0.422 0.984 0.984v15l-3.984-3.984h-11.016c-0.563 0-0.984-0.422-0.984-0.984v-2.016h12.984v-9h2.016z"></path>
</svg>
<svg id="icon24-fullscreen" width="24" height="24" viewBox="0 0 24 24" x="600" y="120">
<path d="M14.016 5.016h4.969v4.969h-1.969v-3h-3v-1.969zM17.016 17.016v-3h1.969v4.969h-4.969v-1.969h3zM5.016 9.984v-4.969h4.969v1.969h-3v3h-1.969zM6.984 14.016v3h3v1.969h-4.969v-4.969h1.969z"></path>
</svg>
<svg id="icon24-fullscreen_exit" width="24" height="24" viewBox="0 0 24 24" x="0" y="160">
<path d="M15.984 8.016h3v1.969h-4.969v-4.969h1.969v3zM14.016 18.984v-4.969h4.969v1.969h-3v3h-1.969zM8.016 8.016v-3h1.969v4.969h-4.969v-1.969h3zM5.016 15.984v-1.969h4.969v4.969h-1.969v-3h-3z"></path>
</svg>
<svg id="icon24-people" width="24" height="24" viewBox="0 0 24 24" x="40" y="160">
<path d="M15.984 12.984c2.344 0 7.031 1.172 7.031 3.516v2.484h-6v-2.484c0-1.5-0.797-2.625-1.969-3.469 0.328-0.047 0.656-0.047 0.938-0.047zM8.016 12.984c2.344 0 6.984 1.172 6.984 3.516v2.484h-14.016v-2.484c0-2.344 4.688-3.516 7.031-3.516zM8.016 11.016c-1.641 0-3-1.359-3-3s1.359-3 3-3 2.953 1.359 2.953 3-1.313 3-2.953 3zM15.984 11.016c-1.641 0-3-1.359-3-3s1.359-3 3-3 3 1.359 3 3-1.359 3-3 3z"></path>
</svg>
<svg id="icon24-group_add" width="24" height="24" viewBox="0 0 24 24" x="80" y="160">
<path d="M12.984 12.984c2.016 0 6 0.984 6 3v2.016h-12v-2.016c0-2.016 3.984-3 6-3zM19.641 13.172c2.016 0.328 4.359 1.266 4.359 2.813v2.016h-3v-2.016c0-1.172-0.516-2.063-1.359-2.813zM12.984 11.016c-1.641 0-3-1.359-3-3s1.359-3 3-3 3 1.359 3 3-1.359 3-3 3zM18 11.016c-0.328 0-0.609-0.047-0.891-0.141 0.563-0.797 0.891-1.781 0.891-2.859s-0.328-2.063-0.891-2.859c0.281-0.094 0.563-0.141 0.891-0.141 1.641 0 3 1.359 3 3s-1.359 3-3 3zM8.016 9.984v2.016h-3v3h-2.016v-3h-3v-2.016h3v-3h2.016v3h3z"></path>
</svg>
<svg id="icon24-highlight_off" width="24" height="24" viewBox="0 0 24 24" x="120" y="160">
<path d="M12 20.016c4.406 0 8.016-3.609 8.016-8.016s-3.609-8.016-8.016-8.016-8.016 3.609-8.016 8.016 3.609 8.016 8.016 8.016zM12 2.016c5.531 0 9.984 4.453 9.984 9.984s-4.453 9.984-9.984 9.984-9.984-4.453-9.984-9.984 4.453-9.984 9.984-9.984zM14.578 8.016l1.406 1.406-2.578 2.578 2.578 2.578-1.406 1.406-2.578-2.578-2.578 2.578-1.406-1.406 2.578-2.578-2.578-2.578 1.406-1.406 2.578 2.578z"></path>
</svg>
<svg id="icon24-restore" width="24" height="24" viewBox="0 0 24 24" x="160" y="160">
<path d="M12 8.016h1.5v4.219l3.516 2.109-0.75 1.219-4.266-2.578v-4.969zM12.984 3c4.969 0 9 4.031 9 9s-4.031 9-9 9c-2.484 0-4.688-0.984-6.328-2.625l1.406-1.453c1.266 1.266 3 2.063 4.922 2.063 3.891 0 7.031-3.094 7.031-6.984s-3.141-6.984-7.031-6.984-6.984 3.094-6.984 6.984h3l-4.031 4.031-0.094-0.141-3.891-3.891h3c0-4.969 4.031-9 9-9z"></path>
</svg>
<svg id="icon24-home" width="24" height="24" viewBox="0 0 24 24" x="200" y="160">
<path d="M9.984 20.016h-4.969v-8.016h-3l9.984-9 9.984 9h-3v8.016h-4.969v-6h-4.031v6z"></path>
</svg>
<svg id="icon24-lock" width="24" height="24" viewBox="0 0 24 24" x="240" y="160">
<path d="M15.094 8.016v-2.016c0-1.688-1.406-3.094-3.094-3.094s-3.094 1.406-3.094 3.094v2.016h6.188zM12 17.016c1.078 0 2.016-0.938 2.016-2.016s-0.938-2.016-2.016-2.016-2.016 0.938-2.016 2.016 0.938 2.016 2.016 2.016zM18 8.016c1.078 0 2.016 0.891 2.016 1.969v10.031c0 1.078-0.938 1.969-2.016 1.969h-12c-1.078 0-2.016-0.891-2.016-1.969v-10.031c0-1.078 0.938-1.969 2.016-1.969h0.984v-2.016c0-2.766 2.25-5.016 5.016-5.016s5.016 2.25 5.016 5.016v2.016h0.984z"></path>
</svg>
<svg id="icon24-info_outline" width="24" height="24" viewBox="0 0 24 24" x="280" y="160">
<path d="M11.016 9v-2.016h1.969v2.016h-1.969zM12 20.016c4.406 0 8.016-3.609 8.016-8.016s-3.609-8.016-8.016-8.016-8.016 3.609-8.016 8.016 3.609 8.016 8.016 8.016zM12 2.016c5.531 0 9.984 4.453 9.984 9.984s-4.453 9.984-9.984 9.984-9.984-4.453-9.984-9.984 4.453-9.984 9.984-9.984zM11.016 17.016v-6h1.969v6h-1.969z"></path>
</svg>
<svg id="icon24-insert_comment" width="24" height="24" viewBox="0 0 24 24" x="320" y="160">
<path d="M18 8.016v-2.016h-12v2.016h12zM18 11.016v-2.016h-12v2.016h12zM18 14.016v-2.016h-12v2.016h12zM20.016 2.016c1.078 0 1.969 0.891 1.969 1.969v18l-3.984-3.984h-14.016c-1.078 0-1.969-0.938-1.969-2.016v-12c0-1.078 0.891-1.969 1.969-1.969h16.031z"></path>
</svg>
<svg id="icon24-insert_drive_file" width="24" height="24" viewBox="0 0 24 24" x="360" y="160">
<path d="M12.984 9h5.531l-5.531-5.484v5.484zM6 2.016h8.016l6 6v12c0 1.078-0.938 1.969-2.016 1.969h-12c-1.078 0-2.016-0.891-2.016-1.969l0.047-16.031c0-1.078 0.891-1.969 1.969-1.969z"></path>
</svg>
<svg id="icon24-keyboard_arrow_down" width="24" height="24" viewBox="0 0 24 24" x="400" y="160">
<path d="M7.406 7.828l4.594 4.594 4.594-4.594 1.406 1.406-6 6-6-6z"></path>
</svg>
<svg id="icon24-keyboard_arrow_left" width="24" height="24" viewBox="0 0 24 24" x="440" y="160">
<path d="M15.422 16.078l-1.406 1.406-6-6 6-6 1.406 1.406-4.594 4.594z"></path>
</svg>
<svg id="icon24-keyboard_arrow_right" width="24" height="24" viewBox="0 0 24 24" x="480" y="160">
<path d="M8.578 16.359l4.594-4.594-4.594-4.594 1.406-1.406 6 6-6 6z"></path>
</svg>
<svg id="icon24-keyboard_arrow_up" width="24" height="24" viewBox="0 0 24 24" x="520" y="160">
<path d="M7.406 15.422l-1.406-1.406 6-6 6 6-1.406 1.406-4.594-4.594z"></path>
</svg>
<svg id="icon24-keyboard_backspace" width="24" height="24" viewBox="0 0 24 24" x="560" y="160">
<path d="M21 11.016v1.969h-14.156l3.563 3.609-1.406 1.406-6-6 6-6 1.406 1.406-3.563 3.609h14.156z"></path>
</svg>
<svg id="icon24-keyboard_voice" width="24" height="24" viewBox="0 0 24 24" x="600" y="160">
<path d="M17.297 12h1.688c0 3.422-2.719 6.234-6 6.703v3.281h-1.969v-3.281c-3.281-0.469-6-3.281-6-6.703h1.688c0 3 2.531 5.109 5.297 5.109s5.297-2.109 5.297-5.109zM12 15c-1.641 0-3-1.359-3-3v-6c0-1.641 1.359-3 3-3s3 1.359 3 3v6c0 1.641-1.359 3-3 3z"></path>
</svg>
<svg id="icon24-label" width="24" height="24" viewBox="0 0 24 24" x="0" y="200">
<path d="M17.625 5.859l4.359 6.141-4.359 6.141c-0.375 0.516-0.984 0.844-1.641 0.844h-10.969c-1.078 0-2.016-0.891-2.016-1.969v-10.031c0-1.078 0.938-1.969 2.016-1.969h10.969c0.656 0 1.266 0.328 1.641 0.844z"></path>
</svg>
<svg id="icon24-label_outline" width="24" height="24" viewBox="0 0 24 24" x="40" y="200">
<path d="M15.984 17.016l3.563-5.016-3.563-5.016h-10.969v10.031h10.969zM17.625 5.859l4.359 6.141-4.359 6.141c-0.375 0.516-0.984 0.844-1.641 0.844h-10.969c-1.078 0-2.016-0.891-2.016-1.969v-10.031c0-1.078 0.938-1.969 2.016-1.969h10.969c0.656 0 1.266 0.328 1.641 0.844z"></path>
</svg>
<svg id="icon24-language" width="24" height="24" viewBox="0 0 24 24" x="80" y="200">
<path d="M16.359 14.016h3.375c0.141-0.656 0.281-1.313 0.281-2.016s-0.141-1.359-0.281-2.016h-3.375c0.094 0.656 0.141 1.313 0.141 2.016s-0.047 1.359-0.141 2.016zM14.578 19.547c1.828-0.609 3.422-1.922 4.359-3.563h-2.953c-0.328 1.266-0.797 2.438-1.406 3.563zM14.344 14.016c0.094-0.656 0.141-1.313 0.141-2.016s-0.047-1.359-0.141-2.016h-4.688c-0.094 0.656-0.141 1.313-0.141 2.016s0.047 1.359 0.141 2.016h4.688zM12 19.969c0.844-1.219 1.5-2.531 1.922-3.984h-3.844c0.422 1.453 1.078 2.766 1.922 3.984zM8.016 8.016c0.328-1.266 0.797-2.438 1.406-3.563-1.828 0.609-3.422 1.922-4.359 3.563h2.953zM5.063 15.984c0.938 1.641 2.531 2.953 4.359 3.563-0.609-1.125-1.078-2.297-1.406-3.563h-2.953zM4.266 14.016h3.375c-0.094-0.656-0.141-1.313-0.141-2.016s0.047-1.359 0.141-2.016h-3.375c-0.141 0.656-0.281 1.313-0.281 2.016s0.141 1.359 0.281 2.016zM12 4.031c-0.844 1.219-1.5 2.531-1.922 3.984h3.844c-0.422-1.453-1.078-2.766-1.922-3.984zM18.938 8.016c-0.938-1.641-2.531-2.953-4.359-3.563 0.609 1.125 1.078 2.297 1.406 3.563h2.953zM12 2.016c5.531 0 9.984 4.453 9.984 9.984s-4.453 9.984-9.984 9.984-9.984-4.453-9.984-9.984 4.453-9.984 9.984-9.984z"></path>
</svg>
<svg id="icon24-open_in_new" width="24" height="24" viewBox="0 0 24 24" x="120" y="200">
<path d="M14.016 3h6.984v6.984h-2.016v-3.563l-9.797 9.797-1.406-1.406 9.797-9.797h-3.563v-2.016zM18.984 18.984v-6.984h2.016v6.984c0 1.078-0.938 2.016-2.016 2.016h-13.969c-1.125 0-2.016-0.938-2.016-2.016v-13.969c0-1.078 0.891-2.016 2.016-2.016h6.984v2.016h-6.984v13.969h13.969z"></path>
</svg>
<svg id="icon24-list" width="24" height="24" viewBox="0 0 24 24" x="160" y="200">
<path d="M6.984 6.984h14.016v2.016h-14.016v-2.016zM6.984 17.016v-2.016h14.016v2.016h-14.016zM6.984 12.984v-1.969h14.016v1.969h-14.016zM3 9v-2.016h2.016v2.016h-2.016zM3 17.016v-2.016h2.016v2.016h-2.016zM3 12.984v-1.969h2.016v1.969h-2.016z"></path>
</svg>
<svg id="icon24-local_hospital" width="24" height="24" viewBox="0 0 24 24" x="200" y="200">
<path d="M18 14.016v-4.031h-3.984v-3.984h-4.031v3.984h-3.984v4.031h3.984v3.984h4.031v-3.984h3.984zM18.984 3c1.078 0 2.016 0.938 2.016 2.016v13.969c0 1.078-0.938 2.016-2.016 2.016h-13.969c-1.078 0-2.016-0.938-2.016-2.016v-13.969c0-1.078 0.938-2.016 2.016-2.016h13.969z"></path>
</svg>
<svg id="icon24-local_offer" width="24" height="24" viewBox="0 0 24 24" x="240" y="200">
<path d="M5.484 6.984c0.844 0 1.5-0.656 1.5-1.5s-0.656-1.5-1.5-1.5-1.5 0.656-1.5 1.5 0.656 1.5 1.5 1.5zM21.422 11.578c0.375 0.375 0.563 0.844 0.563 1.406s-0.188 1.031-0.563 1.406l-7.031 7.031c-0.375 0.375-0.844 0.563-1.406 0.563s-1.031-0.188-1.406-0.563l-9-9c-0.375-0.375-0.563-0.844-0.563-1.406v-7.031c0-1.078 0.891-1.969 1.969-1.969h7.031c0.563 0 1.031 0.188 1.406 0.563z"></path>
</svg>
<svg id="icon24-lock_open" width="24" height="24" viewBox="0 0 24 24" x="280" y="200">
<path d="M18 20.016v-10.031h-12v10.031h12zM18 8.016c1.078 0 2.016 0.891 2.016 1.969v10.031c0 1.078-0.938 1.969-2.016 1.969h-12c-1.078 0-2.016-0.891-2.016-1.969v-10.031c0-1.078 0.938-1.969 2.016-1.969h9.094v-2.016c0-1.688-1.406-3.094-3.094-3.094s-3.094 1.406-3.094 3.094h-1.922c0-2.766 2.25-5.016 5.016-5.016s5.016 2.25 5.016 5.016v2.016h0.984zM12 17.016c-1.078 0-2.016-0.938-2.016-2.016s0.938-2.016 2.016-2.016 2.016 0.938 2.016 2.016-0.938 2.016-2.016 2.016z"></path>
</svg>
<svg id="icon24-lock_outline" width="24" height="24" viewBox="0 0 24 24" x="320" y="200">
<path d="M18 20.016v-10.031h-12v10.031h12zM8.906 6v2.016h6.188v-2.016c0-1.688-1.406-3.094-3.094-3.094s-3.094 1.406-3.094 3.094zM18 8.016c1.078 0 2.016 0.891 2.016 1.969v10.031c0 1.078-0.938 1.969-2.016 1.969h-12c-1.078 0-2.016-0.891-2.016-1.969v-10.031c0-1.078 0.938-1.969 2.016-1.969h0.984v-2.016c0-2.766 2.25-5.016 5.016-5.016s5.016 2.25 5.016 5.016v2.016h0.984zM12 17.016c-1.078 0-2.016-0.938-2.016-2.016s0.938-2.016 2.016-2.016 2.016 0.938 2.016 2.016-0.938 2.016-2.016 2.016z"></path>
</svg>
<svg id="icon24-mail_outline" width="24" height="24" viewBox="0 0 24 24" x="360" y="200">
<path d="M12 11.016l8.016-5.016h-16.031zM20.016 18v-9.984l-8.016 4.969-8.016-4.969v9.984h16.031zM20.016 3.984c1.078 0 1.969 0.938 1.969 2.016v12c0 1.078-0.891 2.016-1.969 2.016h-16.031c-1.078 0-1.969-0.938-1.969-2.016v-12c0-1.078 0.891-2.016 1.969-2.016h16.031z"></path>
</svg>
<svg id="icon24-menu" width="24" height="24" viewBox="0 0 24 24" x="400" y="200">
<path d="M3 6h18v2.016h-18v-2.016zM3 12.984v-1.969h18v1.969h-18zM3 18v-2.016h18v2.016h-18z"></path>
</svg>
<svg id="icon24-message" width="24" height="24" viewBox="0 0 24 24" x="440" y="200">
<path d="M18 8.016v-2.016h-12v2.016h12zM18 11.016v-2.016h-12v2.016h12zM18 14.016v-2.016h-12v2.016h12zM20.016 2.016c1.078 0 1.969 0.891 1.969 1.969v12c0 1.078-0.891 2.016-1.969 2.016h-14.016l-3.984 3.984v-18c0-1.078 0.891-1.969 1.969-1.969h16.031z"></path>
</svg>
<svg id="icon24-mic" width="24" height="24" viewBox="0 0 24 24" x="480" y="200">
<path d="M17.297 11.016h1.688c0 3.422-2.719 6.234-6 6.703v3.281h-1.969v-3.281c-3.281-0.469-6-3.281-6-6.703h1.688c0 3 2.531 5.063 5.297 5.063s5.297-2.063 5.297-5.063zM12 14.016c-1.641 0-3-1.359-3-3v-6c0-1.641 1.359-3 3-3s3 1.359 3 3v6c0 1.641-1.359 3-3 3z"></path>
</svg>
<svg id="icon24-mic_none" width="24" height="24" viewBox="0 0 24 24" x="520" y="200">
<path d="M17.297 11.016h1.688c0 3.422-2.719 6.234-6 6.703v3.281h-1.969v-3.281c-3.281-0.469-6-3.281-6-6.703h1.688c0 3 2.531 5.063 5.297 5.063s5.297-2.063 5.297-5.063zM10.781 4.922v6.188c0 0.656 0.563 1.172 1.219 1.172s1.172-0.516 1.172-1.172l0.047-6.188c0-0.656-0.563-1.219-1.219-1.219s-1.219 0.563-1.219 1.219zM12 14.016c-1.641 0-3-1.359-3-3v-6c0-1.641 1.359-3 3-3s3 1.359 3 3v6c0 1.641-1.359 3-3 3z"></path>
</svg>
<svg id="icon24-mic_off" width="24" height="24" viewBox="0 0 24 24" x="560" y="200">
<path d="M4.266 3l16.734 16.734-1.266 1.266-4.172-4.172c-0.75 0.469-1.688 0.75-2.578 0.891v3.281h-1.969v-3.281c-3.281-0.469-6-3.281-6-6.703h1.688c0 3 2.531 5.063 5.297 5.063 0.797 0 1.594-0.188 2.297-0.516l-1.641-1.641c-0.188 0.047-0.422 0.094-0.656 0.094-1.641 0-3-1.359-3-3v-0.75l-6-6zM15 11.156l-6-5.953v-0.188c0-1.641 1.359-3 3-3s3 1.359 3 3v6.141zM18.984 11.016c0 1.172-0.328 2.297-0.891 3.281l-1.219-1.266c0.281-0.609 0.422-1.266 0.422-2.016h1.688z"></path>
</svg>
<svg id="icon24-mms" width="24" height="24" viewBox="0 0 24 24" x="600" y="200">
<path d="M5.016 14.016h13.969l-4.5-6-3.469 4.5-2.531-3zM20.016 2.016c1.078 0 1.969 0.891 1.969 1.969v12c0 1.078-0.891 2.016-1.969 2.016h-14.016l-3.984 3.984v-18c0-1.078 0.891-1.969 1.969-1.969h16.031z"></path>
</svg>
<svg id="icon24-mode_comment" width="24" height="24" viewBox="0 0 24 24" x="0" y="240">
<path d="M21.984 3.984v18l-3.984-3.984h-14.016c-1.078 0-1.969-0.938-1.969-2.016v-12c0-1.078 0.891-1.969 1.969-1.969h16.031c1.078 0 1.969 0.891 1.969 1.969z"></path>
</svg>
<svg id="icon24-more" width="24" height="24" viewBox="0 0 24 24" x="40" y="240">
<path d="M18.984 13.5c0.844 0 1.5-0.656 1.5-1.5s-0.656-1.5-1.5-1.5-1.5 0.656-1.5 1.5 0.656 1.5 1.5 1.5zM14.016 13.5c0.844 0 1.5-0.656 1.5-1.5s-0.656-1.5-1.5-1.5-1.5 0.656-1.5 1.5 0.656 1.5 1.5 1.5zM9 13.5c0.844 0 1.5-0.656 1.5-1.5s-0.656-1.5-1.5-1.5-1.5 0.656-1.5 1.5 0.656 1.5 1.5 1.5zM21.984 3c1.078 0 2.016 0.938 2.016 2.016v13.969c0 1.078-0.938 2.016-2.016 2.016h-14.906c-0.703 0-1.313-0.375-1.688-0.891l-5.391-8.109 5.391-8.109c0.375-0.516 0.891-0.891 1.594-0.891h15z"></path>
</svg>
<svg id="icon24-more_horiz" width="24" height="24" viewBox="0 0 24 24" x="80" y="240">
<path d="M12 9.984c1.078 0 2.016 0.938 2.016 2.016s-0.938 2.016-2.016 2.016-2.016-0.938-2.016-2.016 0.938-2.016 2.016-2.016zM18 9.984c1.078 0 2.016 0.938 2.016 2.016s-0.938 2.016-2.016 2.016-2.016-0.938-2.016-2.016 0.938-2.016 2.016-2.016zM6 9.984c1.078 0 2.016 0.938 2.016 2.016s-0.938 2.016-2.016 2.016-2.016-0.938-2.016-2.016 0.938-2.016 2.016-2.016z"></path>
</svg>
<svg id="icon24-more_vert" width="24" height="24" viewBox="0 0 24 24" x="120" y="240">
<path d="M12 15.984c1.078 0 2.016 0.938 2.016 2.016s-0.938 2.016-2.016 2.016-2.016-0.938-2.016-2.016 0.938-2.016 2.016-2.016zM12 9.984c1.078 0 2.016 0.938 2.016 2.016s-0.938 2.016-2.016 2.016-2.016-0.938-2.016-2.016 0.938-2.016 2.016-2.016zM12 8.016c-1.078 0-2.016-0.938-2.016-2.016s0.938-2.016 2.016-2.016 2.016 0.938 2.016 2.016-0.938 2.016-2.016 2.016z"></path>
</svg>
<svg id="icon24-navigation" width="24" height="24" viewBox="0 0 24 24" x="160" y="240">
<path d="M12 2.016l7.5 18.281-0.703 0.703-6.797-3-6.797 3-0.703-0.703z"></path>
</svg>
<svg id="icon24-near_me" width="24" height="24" viewBox="0 0 24 24" x="200" y="240">
<path d="M21 3l-7.547 18h-0.984l-2.625-6.844-6.844-2.625v-0.984z"></path>
</svg>
<svg id="icon24-note" width="24" height="24" viewBox="0 0 24 24" x="240" y="240">
<path d="M15 5.484v5.531h5.484zM21.984 9.984v8.016c0 1.078-0.891 1.969-1.969 1.969l-16.031 0.047c-1.078 0-1.969-0.938-1.969-2.016v-12c0-1.078 0.891-2.016 1.969-2.016h12z"></path>
</svg>
<svg id="icon24-note_add" width="24" height="24" viewBox="0 0 24 24" x="280" y="240">
<path d="M12.984 9h5.531l-5.531-5.484v5.484zM15.984 15.984v-1.969h-3v-3h-1.969v3h-3v1.969h3v3h1.969v-3h3zM14.016 2.016l6 6v12c0 1.078-0.938 1.969-2.016 1.969h-12c-1.078 0-2.016-0.891-2.016-1.969l0.047-16.031c0-1.078 0.891-1.969 1.969-1.969h8.016z"></path>
</svg>
<svg id="icon24-people_outline" width="24" height="24" viewBox="0 0 24 24" x="320" y="240">
<path d="M16.5 6.516c-1.078 0-2.016 0.891-2.016 1.969s0.938 2.016 2.016 2.016 2.016-0.938 2.016-2.016-0.938-1.969-2.016-1.969zM16.5 12c-1.922 0-3.516-1.594-3.516-3.516s1.594-3.469 3.516-3.469 3.516 1.547 3.516 3.469-1.594 3.516-3.516 3.516zM7.5 6.516c-1.078 0-2.016 0.891-2.016 1.969s0.938 2.016 2.016 2.016 2.016-0.938 2.016-2.016-0.938-1.969-2.016-1.969zM7.5 12c-1.922 0-3.516-1.594-3.516-3.516s1.594-3.469 3.516-3.469 3.516 1.547 3.516 3.469-1.594 3.516-3.516 3.516zM21.516 17.484v-1.219c0-0.563-2.578-1.781-5.016-1.781-1.078 0-2.109 0.281-3 0.563 0.328 0.375 0.516 0.75 0.516 1.219v1.219h7.5zM12.516 17.484v-1.219c0-0.563-2.578-1.781-5.016-1.781s-5.016 1.219-5.016 1.781v1.219h10.031zM16.5 12.984c2.156 0 6.516 1.125 6.516 3.281v2.719h-22.031v-2.719c0-2.156 4.359-3.281 6.516-3.281 1.219 0 3.047 0.375 4.5 1.031 1.453-0.656 3.281-1.031 4.5-1.031z"></path>
</svg>
<svg id="icon24-perm_contact_calendar" width="24" height="24" viewBox="0 0 24 24" x="360" y="240">
<path d="M18 18v-0.984c0-2.016-3.984-3.094-6-3.094s-6 1.078-6 3.094v0.984h12zM12 6c-1.641 0-3 1.359-3 3s1.359 3 3 3 3-1.359 3-3-1.359-3-3-3zM18.984 3c1.078 0 2.016 0.938 2.016 2.016v13.969c0 1.078-0.938 2.016-2.016 2.016h-13.969c-1.125 0-2.016-0.938-2.016-2.016v-13.969c0-1.078 0.891-2.016 2.016-2.016h0.984v-2.016h2.016v2.016h7.969v-2.016h2.016v2.016h0.984z"></path>
</svg>
<svg id="icon24-person_outline" width="24" height="24" viewBox="0 0 24 24" x="400" y="240">
<path d="M12 12.984c2.672 0 8.016 1.359 8.016 4.031v3h-16.031v-3c0-2.672 5.344-4.031 8.016-4.031zM12 3.984c2.203 0 3.984 1.828 3.984 4.031s-1.781 3.984-3.984 3.984-3.984-1.781-3.984-3.984 1.781-4.031 3.984-4.031zM12 14.906c-2.953 0-6.094 1.453-6.094 2.109v1.078h12.188v-1.078c0-0.656-3.141-2.109-6.094-2.109zM12 5.906c-1.172 0-2.109 0.938-2.109 2.109s0.938 2.063 2.109 2.063 2.109-0.891 2.109-2.063-0.938-2.109-2.109-2.109z"></path>
</svg>
<svg id="icon24-person" width="24" height="24" viewBox="0 0 24 24" x="440" y="240">
<path d="M12 14.016c2.672 0 8.016 1.313 8.016 3.984v2.016h-16.031v-2.016c0-2.672 5.344-3.984 8.016-3.984zM12 12c-2.203 0-3.984-1.781-3.984-3.984s1.781-4.031 3.984-4.031 3.984 1.828 3.984 4.031-1.781 3.984-3.984 3.984z"></path>
</svg>
<svg id="icon24-person_add" width="24" height="24" viewBox="0 0 24 24" x="480" y="240">
<path d="M15 14.016c2.672 0 8.016 1.313 8.016 3.984v2.016h-16.031v-2.016c0-2.672 5.344-3.984 8.016-3.984zM6 9.984h3v2.016h-3v3h-2.016v-3h-3v-2.016h3v-3h2.016v3zM15 12c-2.203 0-3.984-1.781-3.984-3.984s1.781-4.031 3.984-4.031 3.984 1.828 3.984 4.031-1.781 3.984-3.984 3.984z"></path>
</svg>
<svg id="icon24-person_pin" width="24" height="24" viewBox="0 0 24 24" x="520" y="240">
<path d="M18 15.984v-0.891c0-2.016-3.984-3.094-6-3.094s-6 1.078-6 3.094v0.891h12zM12 5.297c-1.5 0-2.719 1.219-2.719 2.719s1.219 2.672 2.719 2.672 2.719-1.172 2.719-2.672-1.219-2.719-2.719-2.719zM18.984 2.016c1.078 0 2.016 0.891 2.016 1.969v14.016c0 1.078-0.938 2.016-2.016 2.016h-3.984l-3 3-3-3h-3.984c-1.125 0-2.016-0.938-2.016-2.016v-14.016c0-1.078 0.891-1.969 2.016-1.969h13.969z"></path>
</svg>
<svg id="icon24-person_pin_circle" width="24" height="24" viewBox="0 0 24 24" x="560" y="240">
<path d="M12 14.016c1.688 0 3.141-0.844 3.984-2.156 0-1.313-2.672-2.063-3.984-2.063s-3.984 0.75-3.984 2.063c0.844 1.313 2.297 2.156 3.984 2.156zM12 3.984c-1.078 0-2.016 0.938-2.016 2.016 0 1.125 0.938 2.016 2.016 2.016s2.016-0.891 2.016-2.016c0-1.078-0.938-2.016-2.016-2.016zM12 2.016c3.844 0 6.984 3.141 6.984 6.984 0 5.25-6.984 12.984-6.984 12.984s-6.984-7.734-6.984-12.984c0-3.844 3.141-6.984 6.984-6.984z"></path>
</svg>
<svg id="icon24-phone_forwarded" width="24" height="24" viewBox="0 0 24 24" x="600" y="240">
<path d="M20.016 15.516c0.563 0 0.984 0.422 0.984 0.984v3.516c0 0.563-0.422 0.984-0.984 0.984-9.375 0-17.016-7.641-17.016-17.016 0-0.563 0.422-0.984 0.984-0.984h3.516c0.563 0 0.984 0.422 0.984 0.984 0 1.266 0.188 2.438 0.563 3.563 0.094 0.328 0.047 0.75-0.234 1.031l-2.203 2.203c1.453 2.859 3.797 5.156 6.609 6.609l2.203-2.203c0.281-0.281 0.703-0.328 1.031-0.234 1.125 0.375 2.297 0.563 3.563 0.563zM18 11.016v-3h-3.984v-4.031h3.984v-3l5.016 5.016z"></path>
</svg>
<svg id="icon24-phone_in_talk" width="24" height="24" viewBox="0 0 24 24" x="0" y="280">
<path d="M15 12c0-1.641-1.359-3-3-3v-2.016c2.766 0 5.016 2.25 5.016 5.016h-2.016zM18.984 12c0-3.891-3.094-6.984-6.984-6.984v-2.016c4.969 0 9 4.031 9 9h-2.016zM20.016 15.516c0.563 0 0.984 0.422 0.984 0.984v3.516c0 0.563-0.422 0.984-0.984 0.984-9.375 0-17.016-7.641-17.016-17.016 0-0.563 0.422-0.984 0.984-0.984h3.516c0.563 0 0.984 0.422 0.984 0.984 0 1.266 0.188 2.438 0.563 3.563 0.094 0.328 0.047 0.75-0.234 1.031l-2.203 2.203c1.453 2.859 3.797 5.156 6.609 6.609l2.203-2.203c0.281-0.281 0.703-0.328 1.031-0.234 1.125 0.375 2.297 0.563 3.563 0.563z"></path>
</svg>
<svg id="icon24-phone_paused" width="24" height="24" viewBox="0 0 24 24" x="40" y="280">
<path d="M18.984 3h2.016v6.984h-2.016v-6.984zM20.016 15.516c0.563 0 0.984 0.422 0.984 0.984v3.516c0 0.563-0.422 0.984-0.984 0.984-9.375 0-17.016-7.641-17.016-17.016 0-0.563 0.422-0.984 0.984-0.984h3.516c0.563 0 0.984 0.422 0.984 0.984 0 1.266 0.188 2.438 0.563 3.563 0.094 0.328 0.047 0.75-0.234 1.031l-2.203 2.203c1.453 2.859 3.797 5.156 6.609 6.609l2.203-2.203c0.281-0.281 0.703-0.328 1.031-0.234 1.125 0.375 2.297 0.563 3.563 0.563zM17.016 3v6.984h-2.016v-6.984h2.016z"></path>
</svg>
<svg id="icon24-pin_drop" width="24" height="24" viewBox="0 0 24 24" x="80" y="280">
<path d="M5.016 20.016h13.969v1.969h-13.969v-1.969zM9.984 8.016c0 1.078 0.938 1.969 2.016 1.969 1.125 0 2.016-0.891 2.016-1.969s-0.938-2.016-2.016-2.016-2.016 0.938-2.016 2.016zM18 8.016c0 4.5-6 10.969-6 10.969s-6-6.469-6-10.969c0-3.328 2.672-6 6-6s6 2.672 6 6z"></path>
</svg>
<svg id="icon24-playlist_add" width="24" height="24" viewBox="0 0 24 24" x="120" y="280">
<path d="M2.016 15.984v-1.969h7.969v1.969h-7.969zM18 14.016h3.984v1.969h-3.984v4.031h-2.016v-4.031h-3.984v-1.969h3.984v-4.031h2.016v4.031zM14.016 6v2.016h-12v-2.016h12zM14.016 9.984v2.016h-12v-2.016h12z"></path>
</svg>
<svg id="icon24-playlist_add_check" width="24" height="24" viewBox="0 0 24 24" x="160" y="280">
<path d="M21.516 11.484l1.5 1.5-6.984 7.031-4.547-4.5 1.5-1.5 3.047 3zM2.016 15.984v-1.969h7.969v1.969h-7.969zM14.016 6v2.016h-12v-2.016h12zM14.016 9.984v2.016h-12v-2.016h12z"></path>
</svg>
<svg id="icon24-power_settings_new" width="24" height="24" viewBox="0 0 24 24" x="200" y="280">
<path d="M17.813 5.156c1.922 1.641 3.188 4.125 3.188 6.844 0 4.969-4.031 9-9 9s-9-4.031-9-9c0-2.719 1.266-5.203 3.188-6.844l1.406 1.406c-1.547 1.266-2.578 3.234-2.578 5.438 0 3.891 3.094 6.984 6.984 6.984s6.984-3.094 6.984-6.984c0-2.203-0.984-4.125-2.578-5.391zM12.984 3v9.984h-1.969v-9.984h1.969z"></path>
</svg>
<svg id="icon24-present_to_all" width="24" height="24" viewBox="0 0 24 24" x="240" y="280">
<path d="M9.984 12h-1.969l3.984-3.984 3.984 3.984h-1.969v3.984h-4.031v-3.984zM21 19.031v-14.063h-18v14.063h18zM21 3c1.125 0 2.016 0.891 2.016 2.016v13.969c0 1.125-0.891 2.016-2.016 2.016h-18c-1.125 0-2.016-0.891-2.016-2.016v-13.969c0-1.125 0.891-2.016 2.016-2.016h18z"></path>
</svg>
<svg id="icon24-priority_high" width="24" height="24" viewBox="0 0 24 24" x="280" y="280">
<path d="M9.984 3h4.031v12h-4.031v-12zM9.984 18.984c0-1.125 0.891-1.969 2.016-1.969s2.016 0.844 2.016 1.969-0.891 2.016-2.016 2.016-2.016-0.891-2.016-2.016z"></path>
</svg>
<svg id="icon24-record_voice_over" width="24" height="24" viewBox="0 0 24 24" x="320" y="280">
<path d="M20.063 2.016c3.891 4.031 3.891 10.078 0 13.969l-1.641-1.594c2.766-3.188 2.766-7.781 0-10.781zM16.781 5.344c2.016 2.203 2.016 5.25 0 7.266l-1.688-1.688c0.844-1.172 0.844-2.719 0-3.891zM9 15c2.672 0 8.016 1.313 8.016 3.984v2.016h-16.031v-2.016c0-2.672 5.344-3.984 8.016-3.984zM5.016 9c0-2.203 1.781-3.984 3.984-3.984s3.984 1.781 3.984 3.984-1.781 3.984-3.984 3.984-3.984-1.781-3.984-3.984z"></path>
</svg>
<svg id="icon24-remove" width="24" height="24" viewBox="0 0 24 24" x="360" y="280">
<path d="M18.984 12.984h-13.969v-1.969h13.969v1.969z"></path>
</svg>
<svg id="icon24-reply" width="24" height="24" viewBox="0 0 24 24" x="400" y="280">
<path d="M9.984 9c6.984 0.984 10.031 6 11.016 11.016-2.484-3.516-6-5.109-11.016-5.109v4.078l-6.984-6.984 6.984-6.984v3.984z"></path>
</svg>
<svg id="icon24-reply_all" width="24" height="24" viewBox="0 0 24 24" x="440" y="280">
<path d="M12.984 9c6.984 0.984 10.031 6 11.016 11.016-2.484-3.516-6-5.109-11.016-5.109v4.078l-6.984-6.984 6.984-6.984v3.984zM6.984 8.016l-3.984 3.984 3.984 3.984v3l-6.984-6.984 6.984-6.984v3z"></path>
</svg>
<svg id="icon24-search" width="24" height="24" viewBox="0 0 24 24" x="480" y="280">
<path d="M9.516 14.016c2.484 0 4.5-2.016 4.5-4.5s-2.016-4.5-4.5-4.5-4.5 2.016-4.5 4.5 2.016 4.5 4.5 4.5zM15.516 14.016l4.969 4.969-1.5 1.5-4.969-4.969v-0.797l-0.281-0.281c-1.125 0.984-2.625 1.547-4.219 1.547-3.609 0-6.516-2.859-6.516-6.469s2.906-6.516 6.516-6.516 6.469 2.906 6.469 6.516c0 1.594-0.563 3.094-1.547 4.219l0.281 0.281h0.797z"></path>
</svg>
<svg id="icon24-send" width="24" height="24" viewBox="0 0 24 24" x="520" y="280">
<path d="M2.016 21v-6.984l15-2.016-15-2.016v-6.984l21 9z"></path>
</svg>
<svg id="icon24-settings" width="24" height="24" viewBox="0 0 24 24" x="560" y="280">
<path d="M12 15.516c1.922 0 3.516-1.594 3.516-3.516s-1.594-3.516-3.516-3.516-3.516 1.594-3.516 3.516 1.594 3.516 3.516 3.516zM19.453 12.984l2.109 1.641c0.188 0.141 0.234 0.422 0.094 0.656l-2.016 3.469c-0.141 0.234-0.375 0.281-0.609 0.188l-2.484-0.984c-0.516 0.375-1.078 0.75-1.688 0.984l-0.375 2.625c-0.047 0.234-0.234 0.422-0.469 0.422h-4.031c-0.234 0-0.422-0.188-0.469-0.422l-0.375-2.625c-0.609-0.234-1.172-0.563-1.688-0.984l-2.484 0.984c-0.234 0.094-0.469 0.047-0.609-0.188l-2.016-3.469c-0.141-0.234-0.094-0.516 0.094-0.656l2.109-1.641c-0.047-0.328-0.047-0.656-0.047-0.984s0-0.656 0.047-0.984l-2.109-1.641c-0.188-0.141-0.234-0.422-0.094-0.656l2.016-3.469c0.141-0.234 0.375-0.281 0.609-0.188l2.484 0.984c0.516-0.375 1.078-0.75 1.688-0.984l0.375-2.625c0.047-0.234 0.234-0.422 0.469-0.422h4.031c0.234 0 0.422 0.188 0.469 0.422l0.375 2.625c0.609 0.234 1.172 0.563 1.688 0.984l2.484-0.984c0.234-0.094 0.469-0.047 0.609 0.188l2.016 3.469c0.141 0.234 0.094 0.516-0.094 0.656l-2.109 1.641c0.047 0.328 0.047 0.656 0.047 0.984s0 0.656-0.047 0.984z"></path>
</svg>
<svg id="icon24-share" width="24" height="24" viewBox="0 0 24 24" x="600" y="280">
<path d="M18 16.078c1.594 0 2.906 1.313 2.906 2.906s-1.313 2.953-2.906 2.953-2.906-1.359-2.906-2.953c0-0.234 0-0.469 0.047-0.656l-7.078-4.125c-0.563 0.516-1.266 0.797-2.063 0.797-1.641 0-3-1.359-3-3s1.359-3 3-3c0.797 0 1.5 0.281 2.063 0.797l7.031-4.078c-0.047-0.234-0.094-0.469-0.094-0.703 0-1.641 1.359-3 3-3s3 1.359 3 3-1.359 3-3 3c-0.797 0-1.5-0.328-2.063-0.844l-7.031 4.125c0.047 0.234 0.094 0.469 0.094 0.703s-0.047 0.469-0.094 0.703l7.125 4.125c0.516-0.469 1.219-0.75 1.969-0.75z"></path>
</svg>
<svg id="icon24-textsms" width="24" height="24" viewBox="0 0 24 24" x="0" y="320">
<path d="M17.016 11.016v-2.016h-2.016v2.016h2.016zM12.984 11.016v-2.016h-1.969v2.016h1.969zM9 11.016v-2.016h-2.016v2.016h2.016zM20.016 2.016c1.078 0 1.969 0.891 1.969 1.969v12c0 1.078-0.891 2.016-1.969 2.016h-14.016l-3.984 3.984v-18c0-1.078 0.891-1.969 1.969-1.969h16.031z"></path>
</svg>
<svg id="icon24-speaker_notes" width="24" height="24" viewBox="0 0 24 24" x="40" y="320">
<path d="M18 8.016v-2.016h-8.016v2.016h8.016zM18 11.016v-2.016h-8.016v2.016h8.016zM15 14.016v-2.016h-5.016v2.016h5.016zM8.016 8.016v-2.016h-2.016v2.016h2.016zM8.016 11.016v-2.016h-2.016v2.016h2.016zM8.016 14.016v-2.016h-2.016v2.016h2.016zM20.016 2.016c1.078 0 1.969 0.891 1.969 1.969v12c0 1.078-0.891 2.016-1.969 2.016h-14.016l-3.984 3.984v-18c0-1.078 0.891-1.969 1.969-1.969h16.031z"></path>
</svg>
<svg id="icon24-spellcheck" width="24" height="24" viewBox="0 0 24 24" x="80" y="320">
<path d="M21.609 11.578l1.406 1.406-9.516 9.516-5.063-5.109 1.406-1.406 3.656 3.703zM6.422 11.016h4.125l-2.063-5.531zM12.469 15.984l-1.172-3h-5.625l-1.125 3h-2.109l5.109-12.984h1.875l5.109 12.984h-2.063z"></path>
</svg>
<svg id="icon24-subject" width="24" height="24" viewBox="0 0 24 24" x="120" y="320">
<path d="M3.984 5.016h16.031v1.969h-16.031v-1.969zM3.984 15v-2.016h16.031v2.016h-16.031zM20.016 9v2.016h-16.031v-2.016h16.031zM14.016 17.016v1.969h-10.031v-1.969h10.031z"></path>
</svg>
<svg id="icon24-supervisor_account" width="24" height="24" viewBox="0 0 24 24" x="160" y="320">
<path d="M9 12.984c0.656 0 1.5 0.094 2.391 0.281-2.063 1.125-2.391 2.625-2.391 3.469v2.25h-6.984v-2.484c0-2.344 4.641-3.516 6.984-3.516zM16.5 14.016c1.828 0 5.484 0.891 5.484 2.719v2.25h-10.969v-2.25c0-1.828 3.656-2.719 5.484-2.719zM9 11.016c-1.641 0-3-1.359-3-3s1.359-3 3-3 3 1.359 3 3-1.359 3-3 3zM16.5 12c-1.359 0-2.484-1.125-2.484-2.484s1.125-2.531 2.484-2.531 2.484 1.172 2.484 2.531-1.125 2.484-2.484 2.484z"></path>
</svg>
<svg id="icon24-thumb_down" width="24" height="24" viewBox="0 0 24 24" x="200" y="320">
<path d="M18.984 3h4.031v12h-4.031v-12zM15 3c1.078 0 2.016 0.938 2.016 2.016v9.984c0 0.563-0.234 1.031-0.609 1.406l-6.563 6.609-1.078-1.078c-0.281-0.281-0.422-0.609-0.422-1.031v-0.328l0.984-4.594h-6.328c-1.078 0-2.016-0.891-2.016-1.969l0.047-0.094h-0.047v-1.922c0-0.281 0.047-0.516 0.141-0.75l3.047-7.031c0.281-0.703 0.984-1.219 1.828-1.219h9z"></path>
</svg>
<svg id="icon24-thumb_up" width="24" height="24" viewBox="0 0 24 24" x="240" y="320">
<path d="M23.016 9.984l-0.047 0.094h0.047v1.922c0 0.281-0.047 0.516-0.141 0.75l-3.047 7.031c-0.281 0.703-0.984 1.219-1.828 1.219h-9c-1.078 0-2.016-0.938-2.016-2.016v-9.984c0-0.563 0.234-1.031 0.609-1.406l6.563-6.609 1.078 1.078c0.281 0.281 0.422 0.609 0.422 1.031v0.328l-0.984 4.594h6.328c1.078 0 2.016 0.891 2.016 1.969zM0.984 21v-12h4.031v12h-4.031z"></path>
</svg>
<svg id="icon24-toc" width="24" height="24" viewBox="0 0 24 24" x="280" y="320">
<path d="M18.984 12.984v-1.969h2.016v1.969h-2.016zM18.984 6.984h2.016v2.016h-2.016v-2.016zM18.984 17.016v-2.016h2.016v2.016h-2.016zM3 17.016v-2.016h14.016v2.016h-14.016zM3 12.984v-1.969h14.016v1.969h-14.016zM3 9v-2.016h14.016v2.016h-14.016z"></path>
</svg>
<svg id="icon24-trending_flat" width="24" height="24" viewBox="0 0 24 24" x="320" y="320">
<path d="M21.984 12l-3.984 3.984v-3h-15v-1.969h15v-3z"></path>
</svg>
<svg id="icon24-tune" width="24" height="24" viewBox="0 0 24 24" x="360" y="320">
<path d="M15 9v-6h2.016v2.016h3.984v1.969h-3.984v2.016h-2.016zM21 12.984h-9.984v-1.969h9.984v1.969zM6.984 9h2.016v6h-2.016v-2.016h-3.984v-1.969h3.984v-2.016zM12.984 21h-1.969v-6h1.969v2.016h8.016v1.969h-8.016v2.016zM3 5.016h9.984v1.969h-9.984v-1.969zM3 17.016h6v1.969h-6v-1.969z"></path>
</svg>
<svg id="icon24-undo" width="24" height="24" viewBox="0 0 24 24" x="400" y="320">
<path d="M12.516 8.016c4.641 0 8.531 3.047 9.938 7.219l-2.344 0.75c-1.031-3.188-4.031-5.484-7.594-5.484-1.969 0-3.75 0.703-5.156 1.875l3.656 3.609h-9v-9l3.563 3.609c1.828-1.594 4.266-2.578 6.938-2.578z"></path>
</svg>
<svg id="icon24-verified_user" width="24" height="24" viewBox="0 0 24 24" x="440" y="320">
<path d="M9.984 17.016l8.016-8.016-1.406-1.406-6.609 6.563-2.578-2.578-1.406 1.406zM12 0.984l9 4.031v6c0 5.531-3.844 10.734-9 12-5.156-1.266-9-6.469-9-12v-6z"></path>
</svg>
<svg id="icon24-view_module" width="24" height="24" viewBox="0 0 24 24" x="480" y="320">
<path d="M15.984 5.016h5.016v6h-5.016v-6zM9.984 11.016v-6h5.016v6h-5.016zM15.984 18v-6h5.016v6h-5.016zM9.984 18v-6h5.016v6h-5.016zM3.984 18v-6h5.016v6h-5.016zM3.984 11.016v-6h5.016v6h-5.016z"></path>
</svg>
<svg id="icon24-voice_chat" width="24" height="24" viewBox="0 0 24 24" x="520" y="320">
<path d="M18 14.016v-8.016l-3.984 3.188v-3.188h-8.016v8.016h8.016v-3.234zM20.016 2.016c1.078 0 1.969 0.891 1.969 1.969v12c0 1.078-0.891 2.016-1.969 2.016h-14.016l-3.984 3.984v-18c0-1.078 0.891-1.969 1.969-1.969h16.031z"></path>
</svg>
<svg id="icon24-whatshot" width="24" height="24" viewBox="0 0 24 24" x="560" y="320">
<path d="M11.719 18.984c2.672 0 4.781-2.109 4.781-4.781 0-1.406-0.188-2.719-0.563-4.031-1.031 1.359-2.859 2.203-4.641 2.578s-2.813 1.453-2.813 3.094c0 1.734 1.453 3.141 3.234 3.141zM13.5 0.656c3.891 3.141 6.516 7.969 6.516 13.359 0 4.406-3.609 7.969-8.016 7.969s-8.016-3.563-8.016-7.969c0-3.375 1.219-6.516 3.234-8.906v0.375c0 2.063 1.547 3.703 3.609 3.703s3.422-1.641 3.422-3.703c0-2.156-0.75-4.828-0.75-4.828z"></path>
</svg>
<svg id="icon24-zoom_in" width="24" height="24" viewBox="0 0 24 24" x="600" y="320">
<path d="M12 9.984h-2.016v2.016h-0.984v-2.016h-2.016v-0.984h2.016v-2.016h0.984v2.016h2.016v0.984zM9.516 14.016c2.484 0 4.5-2.016 4.5-4.5s-2.016-4.5-4.5-4.5-4.5 2.016-4.5 4.5 2.016 4.5 4.5 4.5zM15.516 14.016l4.969 4.969-1.5 1.5-4.969-4.969v-0.797l-0.281-0.281c-1.125 0.984-2.625 1.547-4.219 1.547-3.609 0-6.516-2.859-6.516-6.469s2.906-6.516 6.516-6.516 6.469 2.906 6.469 6.516c0 1.594-0.563 3.094-1.547 4.219l0.281 0.281h0.797z"></path>
</svg>
<svg id="icon24-zoom_out" width="24" height="24" viewBox="0 0 24 24" x="0" y="360">
<path d="M6.984 9h5.016v0.984h-5.016v-0.984zM9.516 14.016c2.484 0 4.5-2.016 4.5-4.5s-2.016-4.5-4.5-4.5-4.5 2.016-4.5 4.5 2.016 4.5 4.5 4.5zM15.516 14.016l4.969 4.969-1.5 1.5-4.969-4.969v-0.797l-0.281-0.281c-1.125 0.984-2.625 1.547-4.219 1.547-3.609 0-6.516-2.859-6.516-6.469s2.906-6.516 6.516-6.516 6.469 2.906 6.469 6.516c0 1.594-0.563 3.094-1.547 4.219l0.281 0.281h0.797z"></path>
</svg>
<svg id="icon24-zoom_out_map" width="24" height="24" viewBox="0 0 24 24" x="40" y="360">
<path d="M21 15v6h-6l2.297-2.297-2.906-2.859 1.453-1.453 2.859 2.906zM9 21h-6v-6l2.297 2.297 2.859-2.906 1.453 1.453-2.906 2.859zM3 9v-6h6l-2.297 2.297 2.906 2.859-1.453 1.453-2.859-2.906zM15 3h6v6l-2.297-2.297-2.859 2.906-1.453-1.453 2.906-2.859z"></path>
</svg>
</svg>
