<?xml version="1.0" encoding="utf-8"?>
<!-- Generator: Adobe Illustrator 19.0.1, SVG Export Plug-In . SVG Version: 6.00 Build 0)  -->
<svg version="1.2" baseProfile="tiny" id="icon24-zoom_out_map"
	 xmlns="http://www.w3.org/2000/svg" xmlns:xlink="http://www.w3.org/1999/xlink" x="0px" y="0px" width="624px" height="384px"
	 viewBox="6 -384 624 384" xml:space="preserve">
<path fill="#0C0E0F" d="M18-364c3.9,0,7-3.1,7-7c0-3.9-3.1-7-7-7s-7,3.1-7,7C11-367.1,14.1-364,18-364z M18-380c5,0,9,4,9,9
	s-4,9-9,9s-9-4-9-9S13-380,18-380z M18.5-376v5.3l4,2.3l-0.8,1.2L17-370v-6C17-376,18.5-376,18.5-376z M13.9-380.6l-4.6,3.8L8-378.3
	l4.6-3.8L13.9-380.6z M28-378.3l-1.3,1.5l-4.6-3.9l1.3-1.5L28-378.3z"/>
<path fill="#0C0E0F" d="M58.5-377v5.3l4.5,2.7l-0.8,1.3L57-371v-6C57-377,58.5-377,58.5-377z M58-364c4.4,0,8-3.6,8-8s-3.6-8-8-8
	s-8,3.6-8,8S53.6-364,58-364z M58-382c5.5,0,10,4.5,10,10s-4.5,10-10,10s-10-4.5-10-10S52.5-382,58-382z"/>
<path fill="#0C0E0F" d="M98-364.8c2.5,0,4.7-1.3,6-3.2c0-2-4-3.1-6-3.1c-2,0-6,1.1-6,3.1C93.3-366.1,95.5-364.8,98-364.8z M98-379
	c-1.6,0-3,1.4-3,3c0,1.6,1.4,3,3,3s3-1.4,3-3C101-377.6,99.6-379,98-379z M98-382c5.5,0,10,4.5,10,10s-4.5,10-10,10
	c-5.5,0-10-4.5-10-10S92.5-382,98-382z"/>
<path fill="#0C0E0F" d="M145-371h-6v6h-2v-6h-6v-2h6v-6h2v6h6C145-373,145-371,145-371z"/>
<path fill="#0C0E0F" d="M176.5-369.5l4.9-5l1.1,1.1l-6,6l-3.2-3.2l1-1L176.5-369.5z M178-364c3.9,0,7-3.1,7-7c0-3.9-3.1-7-7-7
	s-7,3.1-7,7C171-367.1,174.1-364,178-364z M178-380c5,0,9,4,9,9s-4,9-9,9s-9-4-9-9S173-380,178-380z M173.9-380.6l-4.6,3.8l-1.3-1.5
	l4.6-3.8L173.9-380.6z M188-378.3l-1.3,1.5l-4.6-3.9l1.3-1.5L188-378.3z"/>
<path fill="#0C0E0F" d="M219-369v-2h-2v2H219z M219-373v-6h-2v6H219z M226-382c1.1,0,2,0.9,2,2v12c0,1.1-0.9,2-2,2h-14l-4,4v-18
	c0-1.1,0.9-2,2-2C210-382,226-382,226-382z"/>
<path fill="#0C0E0F" d="M262-364v-4h4v4C266-364,262-364,262-364z M262-370v-4h4v4C266-370,262-370,262-370z M256-376v-4h4v4H256z
	 M262-380h4v4h-4C262-376,262-380,262-380z M256-370v-4h4v4H256z M250-370v-4h4v4C254-370,250-370,250-370z M250-364v-4h4v4
	C254-364,250-364,250-364z M256-364v-4h4v4H256z M250-376v-4h4v4C254-376,250-376,250-376z"/>
<path fill="#0C0E0F" d="M306-373v2h-12.2l5.6,5.6L298-364l-8-8l8-8l1.4,1.4l-5.6,5.6L306-373L306-373z"/>
<path fill="#0C0E0F" d="M346-372l-8,8l-8-8l1.5-1.4l5.6,5.6V-380h2v12.2l5.6-5.6L346-372z"/>
<path fill="#0C0E0F" d="M373-374h10l-5,5L373-374z"/>
<path fill="#0C0E0F" d="M413-370l5-5l5,5H413L413-370z"/>
<path fill="#0C0E0F" d="M458-380l8,8l-8,8l-1.4-1.4l5.6-5.6H450v-2h12.2l-5.6-5.6L458-380z"/>
<path fill="#0C0E0F" d="M490-372l8-8l8,8l-1.5,1.4l-5.6-5.6v12.2h-2v-12.2l-5.6,5.6L490-372z"/>
<path fill="#0C0E0F" d="M536.5-369l-2.3-3l-1.7,2.3l-1.3-1.5l-1.7,2.3H536.5z M538-375v6c0,1.1-0.9,2-2,2h-6c-1.1,0-2-0.9-2-2v-6
	c0-1.1,0.9-2,2-2h6C537.1-377,538-376.1,538-375z M540-367v-2h8v2C548-367,540-367,540-367z M548-377v2h-8v-2H548z M548-371h-8v-2h8
	V-371z"/>
<path fill="#0C0E0F" d="M587-365V-379h-18v14.1H587z M587-381c1.1,0,2,0.9,2,2v14c0,1.1-0.9,2-2,2h-18c-1.1,0-2-0.9-2-2v-14
	c0-1.1,0.9-2,2-2C569-381,587-381,587-381z M573-375v3h-2v-5h5v2H573z M585-372v5h-5v-2h3v-3C583-372,585-372,585-372z"/>
<path fill="#0C0E0F" d="M624-365v-1.4c0-2-4-3.1-6-3.1s-6,1.1-6,3.1v1.4H624z M618-377c-1.6,0-3,1.4-3,3c0,1.6,1.4,3,3,3s3-1.4,3-3
	C621-375.7,619.6-377,618-377z M618-381c-0.6,0-1,0.4-1,1c0,0.6,0.4,1,1,1s1-0.5,1-1C619-380.6,618.6-381,618-381z M625-381
	c1.1,0,2,0.9,2,2v14c0,1.1-0.9,2-2,2h-14c-1.1,0-2-0.9-2-2v-14c0-1.1,0.9-2,2-2h4.2c0.4-1.2,1.5-2,2.8-2s2.4,0.8,2.8,2H625L625-381z
	"/>
<path fill="#0C0E0F" d="M18-339c0.6,0,1-0.5,1-1c0-0.6-0.4-1-1-1s-1,0.4-1,1C17-339.5,17.4-339,18-339z M19-330v-6h-2v6H19z M19-326
	v-2h-2v2H19z M25-341c1.1,0,2,0.9,2,2v14c0,1.1-0.9,2-2,2H11c-1.1,0-2-0.9-2-2v-14c0-1.1,0.9-2,2-2h4.2c0.4-1.2,1.5-2,2.8-2
	s2.4,0.8,2.8,2H25L25-341z"/>
<path fill="#0C0E0F" d="M56-327l8-8l-1.4-1.4l-6.6,6.6l-2.6-2.6L52-331L56-327z M58-341c-0.6,0-1,0.4-1,1c0,0.6,0.4,1,1,1s1-0.5,1-1
	C59-340.6,58.6-341,58-341z M65-341c1.1,0,2,0.9,2,2v14c0,1.1-0.9,2-2,2H51c-1.1,0-2-0.9-2-2v-14c0-1.1,0.9-2,2-2h4.2
	c0.4-1.2,1.5-2,2.8-2s2.4,0.8,2.8,2H65L65-341z"/>
<path fill="#0C0E0F" d="M100.4-338h5.6v10h-7l-0.4-2H93v7h-2v-17h9L100.4-338z"/>
<path fill="#0C0E0F" d="M144.8-336.3c0.8,1.2,1.3,2.7,1.3,4.3c0,4.4-3.6,8-8,8v3l-4-4l4-4v3c3.3,0,6-2.7,6-6c0-1-0.3-2-0.7-2.8
	L144.8-336.3z M138-338c-3.3,0-6,2.7-6,6c0,1,0.2,2,0.7,2.8l-1.5,1.5c-0.8-1.2-1.3-2.7-1.3-4.3c0-4.4,3.6-8,8-8v-3l4,4l-4,4V-338
	L138-338z"/>
<path fill="#0C0E0F" d="M185-328.4l-3.6-3.6l3.6-3.6l-1.4-1.4l-3.6,3.6l-3.6-3.6l-1.4,1.4l3.6,3.6l-3.6,3.6l1.4,1.4l3.6-3.6l3.6,3.6
	L185-328.4z M188-341c1.1,0,2,0.9,2,2v14c0,1.1-0.9,2-2,2h-15c-0.7,0-1.2-0.4-1.6-0.9L166-332l5.4-8.1c0.4-0.5,0.9-0.9,1.6-0.9
	L188-341L188-341z"/>
<path fill="#0C0E0F" d="M220-331h3l-5-5l-5,5h3v4h4L220-331L220-331z M225.4-334c2.6,0.2,4.6,2.3,4.6,5c0,2.8-2.3,5-5,5h-13
	c-3.3,0-6-2.7-6-6c0-3.1,2.3-5.6,5.3-6c1.3-2.4,3.8-4.1,6.7-4.1C221.7-340,224.7-337.4,225.4-334L225.4-334z"/>
<path fill="#0C0E0F" d="M268.7-325c0.4,0.3,0.4,1-0.1,1.4l-2.3,2.3c-0.4,0.4-1,0.4-1.4,0l-9.1-9.1c-2.3,0.9-5,0.4-6.9-1.5
	c-2-2-2.5-5-1.3-7.4l4.4,4.3l3-3l-4.3-4.3c2.4-1.1,5.4-0.7,7.4,1.3c1.9,1.9,2.4,4.6,1.5,6.9L268.7-325z"/>
<path fill="#0C0E0F" d="M292-332h3l-4,4l-4-4h3c0-4.4,3.6-8,8-8c1.5,0,3,0.5,4.3,1.3l-1.5,1.5c-0.8-0.5-1.8-0.7-2.8-0.7
	C294.7-338,292-335.3,292-332L292-332z M305-336l4,4h-3c0,4.4-3.6,8-8,8c-1.5,0-3-0.5-4.3-1.3l1.5-1.5c0.8,0.5,1.8,0.7,2.8,0.7
	c3.3,0,6-2.7,6-6h-3L305-336z"/>
<path fill="#0C0E0F" d="M332.6-333.2c1.5,2.8,3.8,5.2,6.6,6.6l2.2-2.2c0.3-0.3,0.7-0.4,1-0.2c1.1,0.4,2.3,0.6,3.6,0.6
	c0.6,0,1,0.4,1,1v3.5c0,0.6-0.4,1-1,1c-9.4,0-17-7.6-17-17c0-0.6,0.4-1,1-1h3.5c0.6,0,1,0.4,1,1c0,1.3,0.2,2.4,0.6,3.6
	c0.1,0.3,0,0.8-0.2,1L332.6-333.2z"/>
<path fill="#0C0E0F" d="M378-335c-1.6,0-3.1,0.2-4.6,0.7v3.1c0,0.4-0.2,0.8-0.6,0.9c-1,0.5-1.9,1.1-2.7,1.8
	c-0.2,0.2-0.4,0.3-0.7,0.3c-0.3,0-0.5-0.1-0.7-0.3l-2.5-2.5c-0.2-0.2-0.3-0.4-0.3-0.7s0.1-0.5,0.3-0.7c3-2.9,7.2-4.7,11.7-4.7
	s8.7,1.8,11.7,4.7c0.2,0.2,0.3,0.4,0.3,0.7s-0.1,0.5-0.3,0.7l-2.5,2.5c-0.2,0.2-0.4,0.3-0.7,0.3c-0.3,0-0.5-0.1-0.7-0.3
	c-0.8-0.8-1.7-1.4-2.7-1.8c-0.3-0.1-0.6-0.5-0.6-0.9v-3.1C381.1-334.7,379.6-335,378-335z"/>
<path fill="#0C0E0F" d="M415-339h10v10h-2v-6.6L411.4-324l-1.4-1.4l11.6-11.6H415C415-337,415-339,415-339z"/>
<path fill="#0C0E0F" d="M464-336v-2h-12v2H464z M460-330v-2h-8v2H460z M452-335v2h12v-2H452z M466-342c1.1,0,2,0.9,2,2v12
	c0,1.1-0.9,2-2,2h-14l-4,4v-18c0-1.1,0.9-2,2-2C450-342,466-342,466-342z"/>
<path fill="#0C0E0F" d="M506-342c1.1,0,2,0.9,2,2v12c0,1.1-0.9,2-2,2h-14l-4,4v-18c0-1.1,0.9-2,2-2C490-342,506-342,506-342z"/>
<path fill="#0C0E0F" d="M546-328v-12h-16v14l2-2H546L546-328z M546-342c1.1,0,2,0.9,2,2v12c0,1.1-0.9,2-2,2h-14l-4,4v-18
	c0-1.1,0.9-2,2-2C530-342,546-342,546-342z"/>
<path fill="#0C0E0F" d="M575-327.8l10.6-10.6l1.4,1.4l-12,12l-5.6-5.6l1.4-1.4L575-327.8z"/>
<path fill="#0C0E0F" d="M621.4-336.6l-4.6,4.6l4.6,4.6L620-326l-6-6l6-6L621.4-336.6z"/>
<path fill="#0C0E0F" d="M16-298l6,6l-6,6l-1.4-1.4l4.6-4.6l-4.6-4.6L16-298z"/>
<path fill="#0C0E0F" d="M65-297.6l-5.6,5.6l5.6,5.6l-1.4,1.4l-5.6-5.6l-5.6,5.6l-1.4-1.4l5.6-5.6l-5.6-5.6l1.4-1.4l5.6,5.6l5.6-5.6
	L65-297.6z"/>
<path fill="#0C0E0F" d="M93-297h14v2H93V-297z M89-287v-2h14v2C103-287,89-287,89-287z M91-291v-2h14v2C105-291,91-291,91-291z"/>
<path fill="#0C0E0F" d="M136-287l6.6-6.6l-1.4-1.4l-5.2,5.2l-2.1-2.1l-1.4,1.4L136-287z M145.4-294c2.6,0.2,4.6,2.3,4.6,5
	c0,2.8-2.3,5-5,5h-13c-3.3,0-6-2.7-6-6c0-3.1,2.3-5.6,5.3-6c1.3-2.4,3.8-4.1,6.7-4.1C141.7-300,144.7-297.4,145.4-294L145.4-294z"/>
<path fill="#0C0E0F" d="M183-291h-3v-4h-4v4h-3l5,5L183-291z M185.4-294c2.6,0.2,4.6,2.3,4.6,5c0,2.8-2.3,5-5,5h-13
	c-3.3,0-6-2.7-6-6c0-3.1,2.3-5.6,5.3-6c1.3-2.4,3.8-4.1,6.7-4.1C181.7-300,184.7-297.4,185.4-294L185.4-294z"/>
<path fill="#0C0E0F" d="M225-286c1.6,0,3-1.4,3-3s-1.4-3-3-3h-1.5v-0.5c0-3-2.4-5.5-5.5-5.5c-2.5,0-4.6,1.7-5.3,4H212
	c-2.2,0-4,1.8-4,4c0,2.2,1.8,4,4,4L225-286L225-286z M225.4-294c2.6,0.2,4.6,2.3,4.6,5c0,2.8-2.3,5-5,5h-13c-3.3,0-6-2.7-6-6
	c0-3.1,2.3-5.6,5.3-6c1.3-2.4,3.8-4.1,6.7-4.1C221.7-300,224.7-297.4,225.4-294L225.4-294z"/>
<path fill="#0C0E0F" d="M260.6-287.4l4.6-4.6l-4.6-4.6l1.4-1.4l6,6l-6,6L260.6-287.4z M255.4-287.4L254-286l-6-6l6-6l1.4,1.4
	l-4.6,4.6L255.4-287.4z"/>
<path fill="#0C0E0F" d="M304-296v-2h-12v2H304z M304-293v-2h-12v2H304z M304-290v-2h-12v2H304z M308-300v18l-4-4h-14
	c-1.1,0-2-0.9-2-2v-12c0-1.1,0.9-2,2-2h16C307.1-302,308-301.1,308-300z"/>
<path fill="#0C0E0F" d="M330-298v10h16v-10C346-298,330-298,330-298z M346-286h4v2h-24v-2h4c-1.1,0-2-0.9-2-2v-10c0-1.1,0.9-2,2-2
	h16c1.1,0,2,0.9,2,2v10C348-286.9,347.1-286,346-286L346-286z"/>
<path fill="#0C0E0F" d="M386.7-297l-1.8,1.8l-3.8-3.8l1.8-1.8c0.4-0.4,1-0.4,1.4,0l2.3,2.3C387.1-298,387.1-297.3,386.7-297z
	 M369-286.8l11.1-11.1l3.8,3.8L372.8-283H369V-286.8z"/>
<path fill="#0C0E0F" d="M426-296v-2h-16v2H426z M426-286v-6h-16v6H426z M426-300c1.1,0,2,0.9,2,2v12c0,1.1-0.8,2-2,2h-16
	c-1.1,0-2-0.9-2-2v-12c0-1.1,0.8-2,2-2H426z"/>
<path fill="#0C0E0F" d="M465-300v2h-14v-2h3.5l1-1h5l1,1H465z M452-285v-12h12v12c0,1.1-0.9,2-2,2h-8C452.9-283,452-283.9,452-285
	L452-285z"/>
<path fill="#0C0E0F" d="M501.5-300h3.5v2h-14v-2h3.5l1-1h5L501.5-300z M494.4-292.1l2.2,2.2l-2.1,2.1l1.4,1.4l2.1-2.1l2.1,2.1
	l1.4-1.4l-2.1-2.1l2.1-2.2l-1.4-1.4l-2.1,2.2l-2.1-2.2L494.4-292.1z M492-285v-12h12v12c0,1.1-0.9,2-2,2h-8
	C492.9-283,492-283.9,492-285L492-285z"/>
<path fill="#0C0E0F" d="M539-295h5.5l-5.5-5.5C539-300.5,539-295,539-295z M542-290v-2h-8v2H542z M542-286v-2h-8v2H542z M540-302
	l6,6v12c0,1.1-0.9,2-2,2h-12c-1.1,0-2-0.9-2-2l0-16c0-1.1,0.9-2,2-2C532-302,540-302,540-302z"/>
<path fill="#0C0E0F" d="M587-288v-12h-18v12H587z M587-302c1.1,0,2,0.9,2,2v12c0,1.1-0.9,2-2,2h-7v2h2v2h-8v-2h2v-2h-7
	c-1.1,0-2-0.9-2-2v-12c0-1.1,0.9-2,2-2H587L587-302z"/>
<path fill="#0C0E0F" d="M615-287.8l10.6-10.6l1.4,1.4l-12,12l-5.6-5.6l1.4-1.4L615-287.8z"/>
<path fill="#0C0E0F" d="M6.4-250.6l1.4-1.4l5.6,5.6L12-245L6.4-250.6z M28.2-258.4l1.5,1.4l-12,12l-5.6-5.6l1.5-1.4l4.2,4.2
	L28.2-258.4z M24-257l-6.3,6.4l-1.4-1.4l6.3-6.4L24-257z"/>
<path fill="#0C0E0F" d="M58-251l8.3-5.2L58-261l-8.3,4.8L58-251z M68-256v10c0,1.1-0.9,2-2,2H50c-1.1,0-2-0.9-2-2v-10
	c0-0.7,0.4-1.4,0.9-1.7l9-5.3l9,5.3C67.6-257.4,68-256.7,68-256L68-256z"/>
<path fill="#0C0E0F" d="M90-249v-2h16v2C106-249,90-249,90-249z M106-255v2H90v-2H106z"/>
<path fill="#0C0E0F" d="M146-256v-2l-8,5l-8-5v2l8,5L146-256z M146-260c1.1,0,2,0.9,2,2v12c0,1.1-0.9,2-2,2h-16c-1.1,0-2-0.9-2-2
	v-12c0-1.1,0.9-2,2-2H146z"/>
<path fill="#0C0E0F" d="M182-255h4v11h-4C182-244,182-255,182-255z M170-244v-8h4v8C174-244,170-244,170-244z M176-244v-16h4v16H176
	z"/>
<path fill="#0C0E0F" d="M219-251v-6h-2v6H219z M219-247v-2h-2v2H219z M218-262c5.5,0,10,4.5,10,10s-4.5,10-10,10s-10-4.5-10-10
	S212.5-262,218-262z"/>
<path fill="#0C0E0F" d="M258-244c4.4,0,8-3.6,8-8c0-4.4-3.6-8-8-8c-4.4,0-8,3.6-8,8C250-247.6,253.6-244,258-244z M258-262
	c5.5,0,10,4.5,10,10s-4.5,10-10,10s-10-4.5-10-10S252.5-262,258-262z M257-257h2v6h-2V-257z M257-249h2v2h-2
	C257-247,257-249,257-249z"/>
<path fill="#0C0E0F" d="M298-256l6,6l-1.4,1.4l-4.6-4.6l-4.6,4.6L292-250L298-256z"/>
<path fill="#0C0E0F" d="M342.6-255.4l1.4,1.4l-6,6l-6-6l1.4-1.4l4.6,4.6L342.6-255.4z"/>
<path fill="#0C0E0F" d="M378-242.7l-1.5-1.3c-5.2-4.7-8.5-7.7-8.5-11.5c0-3.1,2.4-5.5,5.5-5.5c1.7,0,3.4,0.8,4.5,2.1
	c1.1-1.3,2.8-2.1,4.5-2.1c3.1,0,5.5,2.4,5.5,5.5c0,3.8-3.4,6.9-8.5,11.6L378-242.7z"/>
<path fill="#0C0E0F" d="M418.1-245.4c4.8-4.3,7.9-7.2,7.9-10.1c0-2-1.5-3.5-3.5-3.5c-1.5,0-3,1-3.6,2.3h-1.9c-0.5-1.4-2-2.3-3.6-2.3
	c-2,0-3.5,1.5-3.5,3.5c0,2.9,3.1,5.8,7.9,10.1H418.1L418.1-245.4z M422.5-261c3.1,0,5.5,2.4,5.5,5.5c0,3.8-3.4,6.8-8.5,11.5
	l-1.5,1.3l-1.5-1.3c-5.2-4.7-8.5-7.8-8.5-11.6c0-3.1,2.4-5.5,5.5-5.5c1.7,0,3.4,0.8,4.5,2.1C419.1-260.2,420.8-261,422.5-261z"/>
<path fill="#0C0E0F" d="M459-254v-4h-2v4H459z M459-250v-2h-2v2H459z M466-262c1.1,0,2,0.9,2,2v12c0,1.1-0.9,2-2,2h-14l-4,4v-18
	c0-1.1,0.9-2,2-2C450-262,466-262,466-262z"/>
<path fill="#0C0E0F" d="M491-246h14v2h-14C491-244,491-246,491-246z M505-255l-7,7l-7-7h4v-6h6v6H505z"/>
<path fill="#0C0E0F" d="M531-246h14v2h-14C531-244,531-246,531-246z M535-248v-6h-4l7-7l7,7h-4v6C541-248,535-248,535-248z"/>
<path fill="#0C0E0F" d="M583-252c0,0.6-0.5,1-1,1h-10l-4,4v-14c0-0.6,0.4-1,1-1h13c0.6,0,1,0.4,1,1V-252L583-252z M587-258
	c0.6,0,1,0.4,1,1v15l-4-4h-11c-0.6,0-1-0.4-1-1v-2h13v-9C585-258,587-258,587-258z"/>
<path fill="#0C0E0F" d="M620-259h5v5h-2v-3h-3C620-257,620-259,620-259z M623-247v-3h2v5h-5v-2H623z M611-254v-5h5v2h-3v3H611z
	 M613-250v3h3v2h-5v-5C611-250,613-250,613-250z"/>
<path fill="#0C0E0F" d="M22-216h3v2h-5v-5h2C22-219,22-216,22-216z M20-205v-5h5v2h-3v3C22-205,20-205,20-205z M14-216v-3h2v5h-5v-2
	H14z M11-208v-2h5v5h-2v-3C14-208,11-208,11-208z"/>
<path fill="#0C0E0F" d="M62-211c2.3,0,7,1.2,7,3.5v2.5h-6v-2.5c0-1.5-0.8-2.6-2-3.5C61.4-211,61.7-211,62-211z M54-211
	c2.3,0,7,1.2,7,3.5v2.5H47v-2.5C47-209.8,51.7-211,54-211L54-211z M54-213c-1.6,0-3-1.4-3-3c0-1.6,1.4-3,3-3s3,1.4,3,3
	C57-214.3,55.7-213,54-213z M62-213c-1.6,0-3-1.4-3-3c0-1.6,1.4-3,3-3s3,1.4,3,3C65-214.3,63.6-213,62-213z"/>
<path fill="#0C0E0F" d="M99-211c2,0,6,1,6,3v2H93v-2C93-210,97-211,99-211z M105.6-210.8c2,0.3,4.4,1.3,4.4,2.8v2h-3v-2
	C107-209.2,106.5-210.1,105.6-210.8z M99-213c-1.6,0-3-1.4-3-3c0-1.6,1.4-3,3-3s3,1.4,3,3C102-214.3,100.6-213,99-213z M104-213
	c-0.3,0-0.6,0-0.9-0.1c0.6-0.8,0.9-1.8,0.9-2.9c0-1.1-0.3-2.1-0.9-2.9c0.3-0.1,0.6-0.1,0.9-0.1c1.6,0,3,1.4,3,3
	C107-214.3,105.6-213,104-213z M94-214v2h-3v3h-2v-3h-3v-2h3v-3h2v3H94z"/>
<path fill="#0C0E0F" d="M138-204c4.4,0,8-3.6,8-8s-3.6-8-8-8s-8,3.6-8,8S133.6-204,138-204z M138-222c5.5,0,10,4.5,10,10
	s-4.5,10-10,10s-10-4.5-10-10S132.5-222,138-222z M140.6-216l1.4,1.4l-2.6,2.6l2.6,2.6l-1.4,1.4l-2.6-2.6l-2.6,2.6l-1.4-1.4l2.6-2.6
	l-2.6-2.6l1.4-1.4l2.6,2.6L140.6-216z"/>
<path fill="#0C0E0F" d="M178-216h1.5v4.2l3.5,2.1l-0.8,1.2L178-211C178-211,178-216,178-216z M179-221c5,0,9,4,9,9s-4,9-9,9
	c-2.5,0-4.7-1-6.3-2.6l1.4-1.5c1.3,1.3,3,2.1,4.9,2.1c3.9,0,7-3.1,7-7c0-3.9-3.1-7-7-7c-3.9,0-7,3.1-7,7h3l-4,4l-0.1-0.1L167-212h3
	C170-217,174-221,179-221z"/>
<path fill="#0C0E0F" d="M216-204h-5v-8h-3l10-9l10,9h-3v8h-5v-6h-4L216-204L216-204z"/>
<path fill="#0C0E0F" d="M261.1-216v-2c0-1.7-1.4-3.1-3.1-3.1s-3.1,1.4-3.1,3.1v2H261.1z M258-207c1.1,0,2-0.9,2-2s-0.9-2-2-2
	s-2,0.9-2,2S256.9-207,258-207z M264-216c1.1,0,2,0.9,2,2v10c0,1.1-0.9,2-2,2h-12c-1.1,0-2-0.9-2-2v-10c0-1.1,0.9-2,2-2h1v-2
	c0-2.8,2.3-5,5-5c2.8,0,5,2.3,5,5v2C263-216,264-216,264-216z"/>
<path fill="#0C0E0F" d="M297-215v-2h2v2H297z M298-204c4.4,0,8-3.6,8-8s-3.6-8-8-8s-8,3.6-8,8S293.6-204,298-204z M298-222
	c5.5,0,10,4.5,10,10s-4.5,10-10,10s-10-4.5-10-10S292.5-222,298-222z M297-207v-6h2v6H297z"/>
<path fill="#0C0E0F" d="M344-216v-2h-12v2H344z M344-213v-2h-12v2H344z M344-210v-2h-12v2H344z M346-222c1.1,0,2,0.9,2,2v18l-4-4
	h-14c-1.1,0-2-0.9-2-2v-12c0-1.1,0.9-2,2-2C330-222,346-222,346-222z"/>
<path fill="#0C0E0F" d="M379-215h5.5l-5.5-5.5C379-220.5,379-215,379-215z M372-222h8l6,6v12c0,1.1-0.9,2-2,2h-12c-1.1,0-2-0.9-2-2
	l0-16C370-221.1,370.9-222,372-222z"/>
<path fill="#0C0E0F" d="M413.4-216.2l4.6,4.6l4.6-4.6l1.4,1.4l-6,6l-6-6L413.4-216.2z"/>
<path fill="#0C0E0F" d="M461.4-207.9l-1.4,1.4l-6-6l6-6l1.4,1.4l-4.6,4.6L461.4-207.9z"/>
<path fill="#0C0E0F" d="M494.6-207.6l4.6-4.6l-4.6-4.6l1.4-1.4l6,6l-6,6L494.6-207.6z"/>
<path fill="#0C0E0F" d="M533.4-208.6L532-210l6-6l6,6l-1.4,1.4l-4.6-4.6L533.4-208.6z"/>
<path fill="#0C0E0F" d="M587-213v2h-14.2l3.6,3.6L575-206l-6-6l6-6l1.4,1.4l-3.6,3.6L587-213L587-213z"/>
<path fill="#0C0E0F" d="M623.3-212h1.7c0,3.4-2.7,6.2-6,6.7v3.3h-2v-3.3c-3.3-0.5-6-3.3-6-6.7h1.7c0,3,2.5,5.1,5.3,5.1
	C620.8-206.9,623.3-209,623.3-212L623.3-212z M618-209c-1.6,0-3-1.4-3-3v-6c0-1.6,1.4-3,3-3s3,1.4,3,3v6
	C621-210.4,619.6-209,618-209z"/>
<path fill="#0C0E0F" d="M23.6-178.1L28-172l-4.4,6.1c-0.4,0.5-1,0.8-1.6,0.8H11c-1.1,0-2-0.9-2-2v-10c0-1.1,0.9-2,2-2h11
	C22.6-179,23.3-178.7,23.6-178.1L23.6-178.1z"/>
<path fill="#0C0E0F" d="M62-167l3.6-5l-3.6-5H51v10L62-167L62-167z M63.6-178.1L68-172l-4.4,6.1c-0.4,0.5-1,0.8-1.6,0.8H51
	c-1.1,0-2-0.9-2-2v-10c0-1.1,0.9-2,2-2h11C62.6-179,63.3-178.7,63.6-178.1L63.6-178.1z"/>
<path fill="#0C0E0F" d="M102.4-170h3.4c0.1-0.7,0.3-1.3,0.3-2s-0.1-1.4-0.3-2h-3.4c0.1,0.7,0.1,1.3,0.1,2S102.5-170.6,102.4-170z
	 M100.6-164.5c1.8-0.6,3.4-1.9,4.4-3.6h-3C101.7-166.8,101.2-165.6,100.6-164.5z M100.3-170c0.1-0.7,0.1-1.3,0.1-2s0-1.4-0.1-2h-4.7
	c-0.1,0.7-0.1,1.3-0.1,2s0,1.4,0.1,2H100.3z M98-164c0.8-1.2,1.5-2.5,1.9-4h-3.8C96.5-166.6,97.2-165.2,98-164z M94-176
	c0.3-1.3,0.8-2.4,1.4-3.6c-1.8,0.6-3.4,1.9-4.4,3.6H94z M91.1-168c0.9,1.6,2.5,3,4.4,3.6c-0.6-1.1-1.1-2.3-1.4-3.6
	C94-168,91.1-168,91.1-168z M90.3-170h3.4c-0.1-0.7-0.1-1.3-0.1-2s0-1.4,0.1-2h-3.4c-0.1,0.7-0.3,1.3-0.3,2S90.1-170.6,90.3-170z
	 M98-180c-0.8,1.2-1.5,2.5-1.9,4h3.8C99.5-177.4,98.8-178.8,98-180z M104.9-176c-0.9-1.6-2.5-3-4.4-3.6c0.6,1.1,1.1,2.3,1.4,3.6
	H104.9z M98-182c5.5,0,10,4.5,10,10s-4.5,10-10,10c-5.5,0-10-4.5-10-10S92.5-182,98-182z"/>
<path fill="#0C0E0F" d="M140-181h7v7h-2v-3.6l-9.8,9.8l-1.4-1.4l9.8-9.8H140L140-181L140-181z M145-165v-7h2v7c0,1.1-0.9,2-2,2h-14
	c-1.1,0-2-0.9-2-2v-14c0-1.1,0.9-2,2-2h7v2h-7v14H145z"/>
<path fill="#0C0E0F" d="M173-177h14v2h-14V-177z M173-167v-2h14v2H173z M173-171v-2h14v2H173z M169-175v-2h2v2
	C171-175,169-175,169-175z M169-167v-2h2v2C171-167,169-167,169-167z M169-171v-2h2v2C171-171,169-171,169-171z"/>
<path fill="#0C0E0F" d="M224-170v-4h-4v-4h-4v4h-4v4h4v4h4v-4H224z M225-181c1.1,0,2,0.9,2,2v14c0,1.1-0.9,2-2,2h-14
	c-1.1,0-2-0.9-2-2v-14c0-1.1,0.9-2,2-2C211-181,225-181,225-181z"/>
<path fill="#0C0E0F" d="M251.5-177c0.8,0,1.5-0.7,1.5-1.5c0-0.8-0.7-1.5-1.5-1.5c-0.8,0-1.5,0.7-1.5,1.5
	C250-177.7,250.6-177,251.5-177z M267.4-172.4c0.4,0.4,0.6,0.8,0.6,1.4c0,0.6-0.2,1-0.6,1.4l-7,7c-0.4,0.4-0.8,0.6-1.4,0.6
	c-0.6,0-1-0.2-1.4-0.6l-9-9c-0.4-0.4-0.6-0.8-0.6-1.4v-7c0-1.1,0.9-2,2-2h7c0.6,0,1,0.2,1.4,0.6L267.4-172.4z"/>
<path fill="#0C0E0F" d="M304-164v-10h-12v10H304z M304-176c1.1,0,2,0.9,2,2v10c0,1.1-0.9,2-2,2h-12c-1.1,0-2-0.9-2-2v-10
	c0-1.1,0.9-2,2-2h9.1v-2c0-1.7-1.4-3.1-3.1-3.1s-3.1,1.4-3.1,3.1H293c0-2.8,2.3-5,5-5s5,2.3,5,5v2C303-176,304-176,304-176z
	 M298-167c-1.1,0-2-0.9-2-2s0.9-2,2-2s2,0.9,2,2S299.1-167,298-167z"/>
<path fill="#0C0E0F" d="M344-164v-10h-12v10H344z M334.9-178v2h6.2v-2c0-1.7-1.4-3.1-3.1-3.1S334.9-179.7,334.9-178z M344-176
	c1.1,0,2,0.9,2,2v10c0,1.1-0.9,2-2,2h-12c-1.1,0-2-0.9-2-2v-10c0-1.1,0.9-2,2-2h1v-2c0-2.8,2.3-5,5-5s5,2.3,5,5v2
	C343-176,344-176,344-176z M338-167c-1.1,0-2-0.9-2-2s0.9-2,2-2s2,0.9,2,2S339.1-167,338-167z"/>
<path fill="#0C0E0F" d="M378-173l8-5h-16L378-173z M386-166v-10l-8,5l-8-5v10H386L386-166z M386-180c1.1,0,2,0.9,2,2v12
	c0,1.1-0.9,2-2,2h-16c-1.1,0-2-0.9-2-2v-12c0-1.1,0.9-2,2-2H386z"/>
<path fill="#0C0E0F" d="M409-178h18v2h-18V-178z M409-171v-2h18v2H409z M409-166v-2h18v2H409z"/>
<path fill="#0C0E0F" d="M464-176v-2h-12v2H464z M464-173v-2h-12v2H464z M464-170v-2h-12v2H464z M466-182c1.1,0,2,0.9,2,2v12
	c0,1.1-0.9,2-2,2h-14l-4,4v-18c0-1.1,0.9-2,2-2C450-182,466-182,466-182z"/>
<path fill="#0C0E0F" d="M503.3-173h1.7c0,3.4-2.7,6.2-6,6.7v3.3h-2v-3.3c-3.3-0.5-6-3.3-6-6.7h1.7c0,3,2.5,5.1,5.3,5.1
	C500.8-167.9,503.3-170,503.3-173L503.3-173z M498-170c-1.6,0-3-1.4-3-3v-6c0-1.6,1.4-3,3-3s3,1.4,3,3v6
	C501-171.3,499.6-170,498-170z"/>
<path fill="#0C0E0F" d="M543.3-173h1.7c0,3.4-2.7,6.2-6,6.7v3.3h-2v-3.3c-3.3-0.5-6-3.3-6-6.7h1.7c0,3,2.5,5.1,5.3,5.1
	C540.8-167.9,543.3-170,543.3-173L543.3-173z M536.8-179.1v6.2c0,0.7,0.6,1.2,1.2,1.2s1.2-0.5,1.2-1.2l0-6.2c0-0.7-0.6-1.2-1.2-1.2
	S536.8-179.7,536.8-179.1z M538-170c-1.6,0-3-1.4-3-3v-6c0-1.6,1.4-3,3-3s3,1.4,3,3v6C541-171.3,539.6-170,538-170z"/>
<path fill="#0C0E0F" d="M570.3-181l16.7,16.7l-1.3,1.3l-4.2-4.2c-0.8,0.5-1.7,0.8-2.6,0.9v3.3h-2v-3.3c-3.3-0.5-6-3.3-6-6.7h1.7
	c0,3,2.5,5.1,5.3,5.1c0.8,0,1.6-0.2,2.3-0.5l-1.6-1.6c-0.2,0-0.4,0.1-0.7,0.1c-1.6,0-3-1.4-3-3v-0.8l-6-6L570.3-181z M581-172.8
	l-6-6v-0.2c0-1.6,1.4-3,3-3s3,1.4,3,3V-172.8z M585-173c0,1.2-0.3,2.3-0.9,3.3l-1.2-1.3c0.3-0.6,0.4-1.3,0.4-2L585-173L585-173z"/>
<path fill="#0C0E0F" d="M611-170h14l-4.5-6l-3.5,4.5l-2.5-3L611-170z M626-182c1.1,0,2,0.9,2,2v12c0,1.1-0.9,2-2,2h-14l-4,4v-18
	c0-1.1,0.9-2,2-2C610-182,626-182,626-182z"/>
<path fill="#0C0E0F" d="M28-140v18l-4-4H10c-1.1,0-2-0.9-2-2v-12c0-1.1,0.9-2,2-2h16C27.1-142,28-141.1,28-140z"/>
<path fill="#0C0E0F" d="M65-130.5c0.8,0,1.5-0.7,1.5-1.5s-0.7-1.5-1.5-1.5s-1.5,0.7-1.5,1.5S64.1-130.5,65-130.5z M60-130.5
	c0.8,0,1.5-0.7,1.5-1.5s-0.7-1.5-1.5-1.5c-0.8,0-1.5,0.7-1.5,1.5S59.2-130.5,60-130.5z M55-130.5c0.8,0,1.5-0.7,1.5-1.5
	s-0.7-1.5-1.5-1.5s-1.5,0.7-1.5,1.5S54.2-130.5,55-130.5z M68-141c1.1,0,2,0.9,2,2v14c0,1.1-0.9,2-2,2H53.1c-0.7,0-1.3-0.4-1.7-0.9
	L46-132l5.4-8.1c0.4-0.5,0.9-0.9,1.6-0.9L68-141L68-141z"/>
<path fill="#0C0E0F" d="M98-134c1.1,0,2,0.9,2,2s-0.9,2-2,2s-2-0.9-2-2S96.9-134,98-134z M104-134c1.1,0,2,0.9,2,2s-0.9,2-2,2
	s-2-0.9-2-2S102.9-134,104-134z M92-134c1.1,0,2,0.9,2,2s-0.9,2-2,2s-2-0.9-2-2S90.9-134,92-134z"/>
<path fill="#0C0E0F" d="M138-128c1.1,0,2,0.9,2,2s-0.9,2-2,2s-2-0.9-2-2S136.9-128,138-128z M138-134c1.1,0,2,0.9,2,2s-0.9,2-2,2
	s-2-0.9-2-2S136.9-134,138-134z M138-136c-1.1,0-2-0.9-2-2s0.9-2,2-2s2,0.9,2,2S139.1-136,138-136z"/>
<path fill="#0C0E0F" d="M178-142l7.5,18.3l-0.7,0.7l-6.8-3l-6.8,3l-0.7-0.7L178-142z"/>
<path fill="#0C0E0F" d="M227-141l-7.5,18h-1l-2.6-6.8l-6.8-2.6v-1L227-141z"/>
<path fill="#0C0E0F" d="M261-138.5v5.5h5.5L261-138.5z M268-134v8c0,1.1-0.9,2-2,2l-16,0c-1.1,0-2-0.9-2-2v-12c0-1.1,0.9-2,2-2h12
	L268-134z"/>
<path fill="#0C0E0F" d="M299-135h5.5l-5.5-5.5C299-140.5,299-135,299-135z M302-128v-2h-3v-3h-2v3h-3v2h3v3h2v-3
	C299-128,302-128,302-128z M300-142l6,6v12c0,1.1-0.9,2-2,2h-12c-1.1,0-2-0.9-2-2l0-16c0-1.1,0.9-2,2-2C292-142,300-142,300-142z"/>
<path fill="#0C0E0F" d="M342.5-137.5c-1.1,0-2,0.9-2,2s0.9,2,2,2s2-0.9,2-2S343.6-137.5,342.5-137.5z M342.5-132
	c-1.9,0-3.5-1.6-3.5-3.5c0-1.9,1.6-3.5,3.5-3.5s3.5,1.5,3.5,3.5C346-133.6,344.4-132,342.5-132z M333.5-137.5c-1.1,0-2,0.9-2,2
	s0.9,2,2,2s2-0.9,2-2S334.6-137.5,333.5-137.5z M333.5-132c-1.9,0-3.5-1.6-3.5-3.5c0-1.9,1.6-3.5,3.5-3.5s3.5,1.5,3.5,3.5
	C337-133.6,335.4-132,333.5-132z M347.5-126.5v-1.2c0-0.6-2.6-1.8-5-1.8c-1.1,0-2.1,0.3-3,0.6c0.3,0.4,0.5,0.8,0.5,1.2v1.2
	L347.5-126.5L347.5-126.5z M338.5-126.5v-1.2c0-0.6-2.6-1.8-5-1.8s-5,1.2-5,1.8v1.2H338.5L338.5-126.5z M342.5-131
	c2.2,0,6.5,1.1,6.5,3.3v2.7h-22v-2.7c0-2.2,4.4-3.3,6.5-3.3c1.2,0,3,0.4,4.5,1C339.5-130.6,341.3-131,342.5-131L342.5-131z"/>
<path fill="#0C0E0F" d="M384-126v-1c0-2-4-3.1-6-3.1s-6,1.1-6,3.1v1H384z M378-138c-1.6,0-3,1.4-3,3s1.4,3,3,3s3-1.4,3-3
	S379.6-138,378-138z M385-141c1.1,0,2,0.9,2,2v14c0,1.1-0.9,2-2,2h-14c-1.1,0-2-0.9-2-2v-14c0-1.1,0.9-2,2-2h1v-2h2v2h8v-2h2v2
	C384-141,385-141,385-141z"/>
<path fill="#0C0E0F" d="M418-131c2.7,0,8,1.4,8,4v3h-16v-3C410-129.7,415.3-131,418-131L418-131z M418-140c2.2,0,4,1.8,4,4
	s-1.8,4-4,4s-4-1.8-4-4S415.8-140,418-140z M418-129.1c-3,0-6.1,1.5-6.1,2.1v1.1h12.2v-1.1C424.1-127.6,421-129.1,418-129.1z
	 M418-138.1c-1.2,0-2.1,0.9-2.1,2.1s0.9,2.1,2.1,2.1s2.1-0.9,2.1-2.1S419.2-138.1,418-138.1z"/>
<path fill="#0C0E0F" d="M458-130c2.7,0,8,1.3,8,4v2h-16v-2C450-128.7,455.3-130,458-130L458-130z M458-132c-2.2,0-4-1.8-4-4
	c0-2.2,1.8-4,4-4s4,1.8,4,4C462-133.8,460.2-132,458-132z"/>
<path fill="#0C0E0F" d="M501-130c2.7,0,8,1.3,8,4v2h-16v-2C493-128.7,498.3-130,501-130L501-130z M492-134h3v2h-3v3h-2v-3h-3v-2h3
	v-3h2V-134z M501-132c-2.2,0-4-1.8-4-4c0-2.2,1.8-4,4-4s4,1.8,4,4C505-133.8,503.2-132,501-132z"/>
<path fill="#0C0E0F" d="M544-128v-0.9c0-2-4-3.1-6-3.1s-6,1.1-6,3.1v0.9H544z M538-138.7c-1.5,0-2.7,1.2-2.7,2.7s1.2,2.7,2.7,2.7
	s2.7-1.2,2.7-2.7S539.5-138.7,538-138.7z M545-142c1.1,0,2,0.9,2,2v14c0,1.1-0.9,2-2,2h-4l-3,3l-3-3h-4c-1.1,0-2-0.9-2-2v-14
	c0-1.1,0.9-2,2-2H545L545-142z"/>
<path fill="#0C0E0F" d="M578-130c1.7,0,3.1-0.8,4-2.2c0-1.3-2.7-2.1-4-2.1s-4,0.8-4,2.1C574.9-130.8,576.3-130,578-130z M578-140
	c-1.1,0-2,0.9-2,2c0,1.1,0.9,2,2,2s2-0.9,2-2C580-139.1,579.1-140,578-140z M578-142c3.8,0,7,3.1,7,7c0,5.3-7,13-7,13s-7-7.7-7-13
	C571-138.8,574.2-142,578-142z"/>
<path fill="#0C0E0F" d="M626-128.5c0.6,0,1,0.4,1,1v3.5c0,0.6-0.4,1-1,1c-9.4,0-17-7.6-17-17c0-0.6,0.4-1,1-1h3.5c0.6,0,1,0.4,1,1
	c0,1.3,0.2,2.4,0.6,3.6c0.1,0.3,0,0.8-0.2,1l-2.2,2.2c1.5,2.9,3.8,5.2,6.6,6.6l2.2-2.2c0.3-0.3,0.7-0.3,1-0.2
	C623.6-128.7,624.8-128.5,626-128.5z M624-133v-3h-4v-4h4v-3l5,5L624-133z"/>
<path fill="#0C0E0F" d="M21-92c0-1.6-1.4-3-3-3v-2c2.8,0,5,2.3,5,5C23-92,21-92,21-92z M25-92c0-3.9-3.1-7-7-7v-2c5,0,9,4,9,9H25z
	 M26-88.5c0.6,0,1,0.4,1,1v3.5c0,0.6-0.4,1-1,1c-9.4,0-17-7.6-17-17c0-0.6,0.4-1,1-1h3.5c0.6,0,1,0.4,1,1c0,1.3,0.2,2.4,0.6,3.6
	c0.1,0.3,0,0.8-0.2,1l-2.2,2.2c1.5,2.9,3.8,5.2,6.6,6.6l2.2-2.2c0.3-0.3,0.7-0.3,1-0.2C23.6-88.7,24.8-88.5,26-88.5z"/>
<path fill="#0C0E0F" d="M65-101h2v7h-2V-101z M66-88.5c0.6,0,1,0.4,1,1v3.5c0,0.6-0.4,1-1,1c-9.4,0-17-7.6-17-17c0-0.6,0.4-1,1-1
	h3.5c0.6,0,1,0.4,1,1c0,1.3,0.2,2.4,0.6,3.6c0.1,0.3,0,0.8-0.2,1l-2.2,2.2c1.5,2.9,3.8,5.2,6.6,6.6l2.2-2.2c0.3-0.3,0.7-0.3,1-0.2
	C63.6-88.7,64.8-88.5,66-88.5z M63-101v7h-2v-7H63z"/>
<path fill="#0C0E0F" d="M91-84h14v2H91C91-82,91-84,91-84z M96-96c0,1.1,0.9,2,2,2c1.1,0,2-0.9,2-2c0-1.1-0.9-2-2-2S96-97.1,96-96z
	 M104-96c0,4.5-6,11-6,11s-6-6.5-6-11c0-3.3,2.7-6,6-6S104-99.3,104-96z"/>
<path fill="#0C0E0F" d="M128-88v-2h8v2C136-88,128-88,128-88z M144-90h4v2h-4v4h-2v-4h-4v-2h4v-4h2C144-94,144-90,144-90z M140-98v2
	h-12v-2H140z M140-94v2h-12v-2H140z"/>
<path fill="#0C0E0F" d="M187.5-92.5L189-91l-7,7l-4.5-4.5L179-90l3,3L187.5-92.5z M168-88v-2h8v2C176-88,168-88,168-88z M180-98v2
	h-12v-2H180z M180-94v2h-12v-2H180z"/>
<path fill="#0C0E0F" d="M223.8-98.8c1.9,1.6,3.2,4.1,3.2,6.8c0,5-4,9-9,9c-5,0-9-4-9-9c0-2.7,1.3-5.2,3.2-6.8l1.4,1.4
	c-1.5,1.3-2.6,3.2-2.6,5.4c0,3.9,3.1,7,7,7c3.9,0,7-3.1,7-7c0-2.2-1-4.1-2.6-5.4L223.8-98.8z M219-101v10h-2v-10H219z"/>
<path fill="#0C0E0F" d="M256-92h-2l4-4l4,4h-2v4h-4L256-92L256-92z M267-85V-99h-18V-85H267z M267-101c1.1,0,2,0.9,2,2v14
	c0,1.1-0.9,2-2,2h-18c-1.1,0-2-0.9-2-2v-14c0-1.1,0.9-2,2-2C249-101,267-101,267-101z"/>
<path fill="#0C0E0F" d="M296-101h4v12h-4V-101z M296-85c0-1.1,0.9-2,2-2s2,0.8,2,2s-0.9,2-2,2S296-83.9,296-85z"/>
<path fill="#0C0E0F" d="M346.1-102c3.9,4,3.9,10.1,0,14l-1.6-1.6c2.8-3.2,2.8-7.8,0-10.8L346.1-102z M342.8-98.7c2,2.2,2,5.3,0,7.3
	l-1.7-1.7c0.8-1.2,0.8-2.7,0-3.9L342.8-98.7z M335-89c2.7,0,8,1.3,8,4v2h-16v-2C327-87.7,332.3-89,335-89L335-89z M331-95
	c0-2.2,1.8-4,4-4s4,1.8,4,4s-1.8,4-4,4S331-92.8,331-95z"/>
<path fill="#0C0E0F" d="M385-91h-14v-2h14V-91z"/>
<path fill="#0C0E0F" d="M416-95c7,1,10,6,11,11c-2.5-3.5-6-5.1-11-5.1v4.1l-7-7l7-7V-95L416-95z"/>
<path fill="#0C0E0F" d="M459-95c7,1,10,6,11,11c-2.5-3.5-6-5.1-11-5.1v4.1l-7-7l7-7V-95L459-95z M453-96l-4,4l4,4v3l-7-7l7-7
	C453-99,453-96,453-96z"/>
<path fill="#0C0E0F" d="M495.5-90c2.5,0,4.5-2,4.5-4.5s-2-4.5-4.5-4.5c-2.5,0-4.5,2-4.5,4.5S493-90,495.5-90z M501.5-90l5,5
	l-1.5,1.5l-5-5v-0.8l-0.3-0.3c-1.1,1-2.6,1.5-4.2,1.5c-3.6,0-6.5-2.9-6.5-6.5s2.9-6.5,6.5-6.5c3.6,0,6.5,2.9,6.5,6.5
	c0,1.6-0.6,3.1-1.5,4.2l0.3,0.3C500.7-90,501.5-90,501.5-90z"/>
<path fill="#0C0E0F" d="M528-83v-7l15-2l-15-2v-7l21,9L528-83z"/>
<path fill="#0C0E0F" d="M578-88.5c1.9,0,3.5-1.6,3.5-3.5s-1.6-3.5-3.5-3.5s-3.5,1.6-3.5,3.5S576.1-88.5,578-88.5z M585.5-91l2.1,1.6
	c0.2,0.1,0.2,0.4,0.1,0.7l-2,3.5c-0.1,0.2-0.4,0.3-0.6,0.2l-2.5-1c-0.5,0.4-1.1,0.8-1.7,1l-0.4,2.6c0,0.2-0.2,0.4-0.5,0.4h-4
	c-0.2,0-0.4-0.2-0.5-0.4l-0.4-2.6c-0.6-0.2-1.2-0.6-1.7-1l-2.5,1c-0.2,0.1-0.5,0-0.6-0.2l-2-3.5c-0.1-0.2-0.1-0.5,0.1-0.7l2.1-1.6
	c0-0.3,0-0.7,0-1s0-0.7,0-1l-2.1-1.6c-0.2-0.1-0.2-0.4-0.1-0.7l2-3.5c0.1-0.2,0.4-0.3,0.6-0.2l2.5,1c0.5-0.4,1.1-0.8,1.7-1l0.4-2.6
	c0-0.2,0.2-0.4,0.5-0.4h4c0.2,0,0.4,0.2,0.5,0.4l0.4,2.6c0.6,0.2,1.2,0.6,1.7,1l2.5-1c0.2-0.1,0.5,0,0.6,0.2l2,3.5
	c0.1,0.2,0.1,0.5-0.1,0.7l-2.1,1.6c0,0.3,0,0.7,0,1S585.5-91.3,585.5-91z"/>
<path fill="#0C0E0F" d="M624-87.9c1.6,0,2.9,1.3,2.9,2.9c0,1.6-1.3,3-2.9,3s-2.9-1.4-2.9-3c0-0.2,0-0.5,0-0.7l-7.1-4.1
	c-0.6,0.5-1.3,0.8-2.1,0.8c-1.6,0-3-1.4-3-3s1.4-3,3-3c0.8,0,1.5,0.3,2.1,0.8l7-4.1c0-0.2-0.1-0.5-0.1-0.7c0-1.6,1.4-3,3-3
	s3,1.4,3,3s-1.4,3-3,3c-0.8,0-1.5-0.3-2.1-0.8l-7,4.1c0,0.2,0.1,0.5,0.1,0.7s0,0.5-0.1,0.7l7.1,4.1C622.5-87.6,623.3-87.9,624-87.9z
	"/>
<path fill="#0C0E0F" d="M23-53v-2h-2v2H23z M19-53v-2h-2v2H19z M15-53v-2h-2v2H15z M26-62c1.1,0,2,0.9,2,2v12c0,1.1-0.9,2-2,2H12
	l-4,4v-18c0-1.1,0.9-2,2-2C10-62,26-62,26-62z"/>
<path fill="#0C0E0F" d="M64-56v-2h-8v2H64z M64-53v-2h-8v2H64z M61-50v-2h-5v2H61z M54-56v-2h-2v2H54z M54-53v-2h-2v2H54z M54-50v-2
	h-2v2H54z M66-62c1.1,0,2,0.9,2,2v12c0,1.1-0.9,2-2,2H52l-4,4v-18c0-1.1,0.9-2,2-2C50-62,66-62,66-62z"/>
<path fill="#0C0E0F" d="M107.6-52.4L109-51l-9.5,9.5l-5.1-5.1l1.4-1.4l3.7,3.7L107.6-52.4z M92.4-53h4.1l-2.1-5.5L92.4-53z M98.5-48
	l-1.2-3h-5.6l-1.1,3h-2.1l5.1-13h1.9l5.1,13H98.5L98.5-48z"/>
<path fill="#0C0E0F" d="M130-59h16v2h-16C130-57,130-59,130-59z M130-49v-2h16v2C146-49,130-49,130-49z M146-55v2h-16v-2H146z
	 M140-47v2h-10v-2H140z"/>
<path fill="#0C0E0F" d="M175-51c0.7,0,1.5,0.1,2.4,0.3c-2.1,1.1-2.4,2.6-2.4,3.5v2.3h-7v-2.5C168-49.8,172.7-51,175-51z M182.5-50
	c1.8,0,5.5,0.9,5.5,2.7v2.3h-11v-2.3C177-49.1,180.7-50,182.5-50L182.5-50z M175-53c-1.6,0-3-1.4-3-3s1.4-3,3-3s3,1.4,3,3
	S176.6-53,175-53z M182.5-52c-1.4,0-2.5-1.1-2.5-2.5s1.1-2.5,2.5-2.5c1.4,0,2.5,1.2,2.5,2.5S183.9-52,182.5-52z"/>
<path fill="#0C0E0F" d="M225-61h4v12h-4V-61z M221-61c1.1,0,2,0.9,2,2v10c0,0.6-0.2,1-0.6,1.4l-6.6,6.6l-1.1-1.1
	c-0.3-0.3-0.4-0.6-0.4-1v-0.3l1-4.6H209c-1.1,0-2-0.9-2-2l0-0.1h0V-52c0-0.3,0-0.5,0.1-0.8l3-7c0.3-0.7,1-1.2,1.8-1.2L221-61L221-61
	z"/>
<path fill="#0C0E0F" d="M269-54L269-54L269-54v2c0,0.3,0,0.5-0.1,0.8l-3,7c-0.3,0.7-1,1.2-1.8,1.2h-9c-1.1,0-2-0.9-2-2v-10
	c0-0.6,0.2-1,0.6-1.4l6.6-6.6l1.1,1.1c0.3,0.3,0.4,0.6,0.4,1v0.3l-1,4.6h6.3C268.1-56,269-55.1,269-54L269-54z M247-43v-12h4v12
	C251-43,247-43,247-43z"/>
<path fill="#0C0E0F" d="M305-51v-2h2v2H305z M305-57h2v2h-2V-57z M305-47v-2h2v2H305z M289-47v-2h14v2C303-47,289-47,289-47z
	 M289-51v-2h14v2C303-51,289-51,289-51z M289-55v-2h14v2C303-55,289-55,289-55z"/>
<path fill="#0C0E0F" d="M348-52l-4,4v-3h-15v-2h15v-3L348-52z"/>
<path fill="#0C0E0F" d="M381-55v-6h2v2h4v2h-4v2L381-55L381-55z M387-51h-10v-2h10V-51z M373-55h2v6h-2v-2h-4v-2h4V-55L373-55z
	 M379-43h-2v-6h2v2h8v2h-8V-43L379-43z M369-59h10v2h-10V-59z M369-47h6v2h-6V-47z"/>
<path fill="#0C0E0F" d="M418.5-56c4.6,0,8.5,3,9.9,7.2l-2.3,0.8c-1-3.2-4-5.5-7.6-5.5c-2,0-3.8,0.7-5.2,1.9L417-48h-9v-9l3.6,3.6
	C413.4-55,415.8-56,418.5-56L418.5-56z"/>
<path fill="#0C0E0F" d="M456-47l8-8l-1.4-1.4l-6.6,6.6l-2.6-2.6L452-51L456-47z M458-63l9,4v6c0,5.5-3.8,10.7-9,12
	c-5.2-1.3-9-6.5-9-12v-6L458-63z"/>
<path fill="#0C0E0F" d="M502-59h5v6h-5V-59z M496-53v-6h5v6H496z M502-46v-6h5v6H502z M496-46v-6h5v6H496z M490-46v-6h5v6
	C495-46,490-46,490-46z M490-53v-6h5v6C495-53,490-53,490-53z"/>
<path fill="#0C0E0F" d="M544-50v-8l-4,3.2V-58h-8v8h8v-3.2L544-50z M546-62c1.1,0,2,0.9,2,2v12c0,1.1-0.9,2-2,2h-14l-4,4v-18
	c0-1.1,0.9-2,2-2C530-62,546-62,546-62z"/>
<path fill="#0C0E0F" d="M577.7-45c2.7,0,4.8-2.1,4.8-4.8c0-1.4-0.2-2.7-0.6-4c-1,1.4-2.9,2.2-4.6,2.6c-1.8,0.4-2.8,1.5-2.8,3.1
	C574.5-46.4,575.9-45,577.7-45L577.7-45z M579.5-63.3c3.9,3.1,6.5,8,6.5,13.4c0,4.4-3.6,8-8,8s-8-3.6-8-8c0-3.4,1.2-6.5,3.2-8.9v0.4
	c0,2.1,1.5,3.7,3.6,3.7c2.1,0,3.4-1.6,3.4-3.7C580.2-60.7,579.5-63.3,579.5-63.3L579.5-63.3z"/>
<path fill="#0C0E0F" d="M618-54h-2v2h-1v-2h-2v-1h2v-2h1v2h2V-54z M615.5-50c2.5,0,4.5-2,4.5-4.5s-2-4.5-4.5-4.5s-4.5,2-4.5,4.5
	S613-50,615.5-50z M621.5-50l5,5l-1.5,1.5l-5-5v-0.8l-0.3-0.3c-1.1,1-2.6,1.5-4.2,1.5c-3.6,0-6.5-2.9-6.5-6.5c0-3.6,2.9-6.5,6.5-6.5
	s6.5,2.9,6.5,6.5c0,1.6-0.6,3.1-1.5,4.2l0.3,0.3C620.7-50,621.5-50,621.5-50z"/>
<path fill="#0C0E0F" d="M13-15h5v1h-5V-15z M15.5-10c2.5,0,4.5-2,4.5-4.5S18-19,15.5-19S11-17,11-14.5S13-10,15.5-10z M21.5-10l5,5
	L25-3.5l-5-5v-0.8l-0.3-0.3c-1.1,1-2.6,1.5-4.2,1.5C11.9-8,9-10.9,9-14.5s2.9-6.5,6.5-6.5s6.5,2.9,6.5,6.5c0,1.6-0.6,3.1-1.5,4.2
	l0.3,0.3C20.7-10,21.5-10,21.5-10z"/>
<path fill="#0C0E0F" d="M67-9v6h-6l2.3-2.3l-2.9-2.9l1.5-1.5l2.9,2.9L67-9z M55-3h-6v-6l2.3,2.3l2.9-2.9l1.5,1.5l-2.9,2.9L55-3z
	 M49-15v-6h6l-2.3,2.3l2.9,2.9l-1.5,1.5l-2.9-2.9L49-15z M61-21h6v6l-2.3-2.3l-2.9,2.9l-1.5-1.5l2.9-2.9L61-21z"/>
<path fill="#FFFFFF" d="M409-19h18v2h-18V-19z M409-12v-2h18v2H409z M409-7v-2h18v2H409z"/>
<path fill="#FFFFFF" d="M386.7-18l-1.8,1.8l-3.8-3.8l1.8-1.8c0.4-0.4,1-0.4,1.4,0l2.3,2.3C387.1-19,387.1-18.3,386.7-18z M369-7.7
	l11.1-11.1l3.8,3.8L372.7-4H369V-7.7z"/>
<path fill="#FFFFFF" d="M98-5.8c2.5,0,4.7-1.3,6-3.2c0-2-4-3.1-6-3.1c-2,0-6,1.1-6,3.1C93.3-7.1,95.5-5.8,98-5.8z M98-20
	c-1.6,0-3,1.4-3,3c0,1.6,1.4,3,3,3s3-1.4,3-3C101-18.6,99.6-20,98-20z M98-23c5.5,0,10,4.5,10,10S103.5-3,98-3S88-7.5,88-13
	S92.5-23,98-23z"/>
<path fill="#FFFFFF" d="M458-11c2.7,0,8,1.3,8,4v2h-16v-2C450-9.7,455.3-11,458-11L458-11z M458-13c-2.2,0-4-1.8-4-4s1.8-4,4-4
	s4,1.8,4,4S460.2-13,458-13z"/>
<path fill="#FFFFFF" d="M501-11c2.7,0,8,1.3,8,4v2h-16v-2C493-9.7,498.3-11,501-11L501-11z M492-15h3v2h-3v3h-2v-3h-3v-2h3v-3h2V-15
	z M501-13c-2.2,0-4-1.8-4-4s1.8-4,4-4s4,1.8,4,4S503.2-13,501-13z"/>
<path fill="#FFFFFF" d="M537-10.5c2.5,0,4.5-2,4.5-4.5s-2-4.5-4.5-4.5s-4.5,2-4.5,4.5S534.5-10.5,537-10.5z M543-10.5l5,5L546.5-4
	l-5-5v-0.8l-0.3-0.3c-1.1,1-2.6,1.5-4.2,1.5c-3.6,0-6.5-2.9-6.5-6.5s2.9-6.5,6.5-6.5s6.5,2.9,6.5,6.5c0,1.6-0.6,3.1-1.5,4.2l0.3,0.3
	C542.2-10.5,543-10.5,543-10.5z"/>
<path fill="#FFFFFF" d="M345-16v-2h-12v2H345z M345-13v-2h-12v2H345z M342-10v-2h-9v2L342-10z M347-22c1.1,0,2,0.9,2,2v12
	c0,1.1-0.9,2-2,2h-14l-4,4v-18c0-1.1,0.9-2,2-2C331-22,347-22,347-22z"/>
<polygon fill="#FFFFFF" points="619.6,-21 621,-19.6 613.9,-12.5 621,-5.4 619.6,-4 612.5,-11.1 611.1,-12.5 "/>
</svg>
